<svg width="109" height="50" viewBox="0 0 109 50" fill="none" xmlns="http://www.w3.org/2000/svg">
<path d="M41.072 12.9632L34.6911 20.5026C34.1806 21.1112 34.907 21.9751 35.5942 21.5628L38.0484 20.1099C38.3625 19.9136 38.7552 20.0117 38.9712 20.3062L41.0327 23.212C41.3272 23.6047 41.9163 23.6047 42.1911 23.212L44.2527 20.3062C44.4686 20.0117 44.8613 19.9136 45.1951 20.1099L47.6297 21.5628C48.3168 21.9751 49.0433 21.1112 48.5328 20.5026L42.1519 12.9632C41.877 12.6294 41.3469 12.6294 41.072 12.9632Z" fill="#DFBCA6"/>
<path d="M81.2033 15.0836C79.986 13.6503 77.7674 13.6503 76.5304 15.0836L69.3052 23.6439L67.8131 25.3913C67.067 26.2748 65.6926 26.2748 64.9466 25.3913L44.6257 1.3989C43.055 -0.4663 40.1689 -0.4663 38.5982 1.3989L0.449896 46.4386C-0.59069 47.6558 0.292824 49.5407 1.88315 49.5407H29.4096C31.0195 49.5407 31.8834 47.6558 30.8428 46.4386L25.4632 40.0969C24.9724 39.4883 24.1478 39.2723 23.4213 39.5275L17.0011 41.7461C15.1948 42.3548 13.7223 40.2147 14.9592 38.7618L19.632 33.2251L22.3415 30.0248L40.1885 8.95787C40.9346 8.07435 42.2893 8.07435 43.0354 8.95787L60.8824 30.0248L62.3942 31.8115L63.5918 33.2251L65.2803 35.1885L65.4178 35.3652L68.2843 38.7422C69.5212 40.2147 68.0487 42.3548 66.2424 41.7265L65.8497 41.6087L61.4125 40.0773L61.1965 39.9987L60.4505 39.7435L59.8025 39.5275C59.0761 39.2723 58.2711 39.4883 57.7606 40.0773L52.381 46.4386C51.3404 47.6558 52.2239 49.5407 53.8143 49.5407H81.3603C82.9507 49.5407 83.8145 47.6558 82.7936 46.4386L82.0475 45.5747L72.2896 34.0301L69.4034 30.6334L69.266 30.4764L72.1718 27.0209L77.4336 20.8166C78.1797 19.9134 79.554 19.9134 80.3001 20.8166L92.7282 35.5026L94.6916 37.7997L98.6183 42.453C99.6589 43.6702 98.795 45.5354 97.1851 45.5354L91.9233 45.555C90.3329 45.555 89.469 47.4203 90.49 48.6376L90.6863 48.8732C91.0397 49.2855 91.5698 49.5407 92.1196 49.5407H106.334C107.925 49.5407 108.789 47.6558 107.768 46.4386L81.2033 15.0836Z" fill="#DFBCA6"/>
</svg>
