<svg width="19" height="16" viewBox="0 0 19 16" fill="none" xmlns="http://www.w3.org/2000/svg">
<path d="M2.2933 3.99918C2.30451 3.88481 2.28881 3.76941 2.24746 3.66219C2.20612 3.55497 2.14027 3.45891 2.05518 3.38168L0.293301 1.25668V0.94043H5.76955L10.0039 10.2254L13.7264 0.94043H18.9489V1.25668L17.4414 2.7023C17.3777 2.75069 17.3284 2.81554 17.2987 2.88987C17.2691 2.96421 17.2603 3.04522 17.2733 3.12418V13.7492C17.2603 13.8281 17.2691 13.9091 17.2987 13.9835C17.3284 14.0578 17.3777 14.1227 17.4414 14.1711L18.9139 15.6167V15.9329H11.5039V15.6167L13.0314 14.1361C13.1802 13.9873 13.1802 13.9404 13.1802 13.7142V5.12793L8.93393 15.9054H8.35955L3.42205 5.12793V12.3504C3.37893 12.6548 3.4808 12.9598 3.6958 13.1786L5.68018 15.5848V15.9011H0.0551758V15.5886L2.03955 13.1786C2.25018 12.9598 2.3483 12.6511 2.2933 12.3504V3.99918Z" fill="white"/>
</svg>
