<svg width="51" height="55" viewBox="0 0 51 55" fill="none" xmlns="http://www.w3.org/2000/svg">
<path d="M50.7203 17.8797C50.603 14.6768 48.0748 12.199 44.0141 11.1876C45.2205 10.095 45.9796 8.51689 45.9796 6.76452C45.9796 3.47612 43.3043 0.800781 40.0159 0.800781C36.7275 0.800781 34.0523 3.47612 34.0523 6.76452C34.0523 8.51657 34.8111 10.0945 36.0171 11.1871C33.6091 11.7901 31.689 12.9275 30.5374 14.4384C29.2125 13.2136 27.4426 12.4634 25.5003 12.4634C23.558 12.4634 21.7885 13.2134 20.4636 14.438C19.314 12.928 17.3945 11.791 14.9859 11.1876C16.1922 10.095 16.9513 8.51689 16.9513 6.76463C16.9513 3.47623 14.2761 0.800889 10.9877 0.800889C7.69931 0.800889 5.02396 3.47623 5.02396 6.76463C5.02396 8.51668 5.78279 10.0946 6.98871 11.1871C2.92677 12.198 0.39752 14.6762 0.280215 17.8797C0.279893 17.8875 0.279785 17.8954 0.279785 17.9033V22.6201C0.279785 22.9759 0.568106 23.2641 0.923779 23.2641H18.8849C20.116 25.6689 22.6181 27.32 25.5003 27.32C28.3825 27.32 30.8846 25.6691 32.1157 23.2641H50.0768C50.4326 23.2641 50.7208 22.9758 50.7208 22.6201V17.9033C50.7208 17.8955 50.7208 17.8876 50.7204 17.8797H50.7203ZM35.3402 6.76463C35.3402 4.1865 37.4378 2.08898 40.0159 2.08898C42.594 2.08898 44.6915 4.1865 44.6915 6.76463C44.6915 9.34275 42.594 11.4433 40.0159 11.4433C37.4378 11.4433 35.3402 9.34437 35.3402 6.76463ZM6.31195 6.76463C6.31195 4.1865 8.40947 2.08898 10.9876 2.08898C13.5657 2.08898 15.6632 4.1865 15.6632 6.76463C15.6632 9.34275 13.5657 11.4433 10.9876 11.4433C8.40947 11.4433 6.31195 9.34437 6.31195 6.76463ZM1.56777 21.9761V17.9153C1.70087 14.4897 5.2054 12.7215 8.51217 12.1908C9.26681 12.5368 10.1046 12.7313 10.9876 12.7313C11.8706 12.7313 12.7084 12.5368 13.4629 12.1908C16.2777 12.6388 18.4715 13.7976 19.58 15.4113C18.6344 16.6578 18.072 18.21 18.072 19.8917C18.072 20.6153 18.1779 21.3143 18.3718 21.976H1.56788L1.56777 21.9761ZM25.5002 26.032C22.1144 26.032 19.3598 23.2775 19.3598 19.8918C19.3598 16.5061 22.1144 13.7515 25.5002 13.7515C28.886 13.7515 31.6405 16.5061 31.6405 19.8918C31.6405 23.2775 28.886 26.032 25.5002 26.032ZM49.4326 21.9761H32.6287C32.8225 21.3144 32.9285 20.6154 32.9285 19.8918C32.9285 18.2103 32.3662 16.6582 31.4207 15.4119C32.5318 13.7971 34.7264 12.6379 37.5397 12.1906C38.2945 12.5368 39.1327 12.7314 40.0158 12.7314C40.8989 12.7314 41.736 12.5371 42.4903 12.1913C45.7965 12.7224 49.2994 14.4905 49.4325 17.9153V21.9761H49.4326ZM50.0766 26.3548H44.1388C43.7832 26.3548 43.4949 26.6432 43.4949 26.9988V28.7422H38.2213L30.8637 27.647C29.528 27.4468 28.3059 27.7613 27.2315 28.5822L25.4686 29.9293L23.7521 28.6047C22.6727 27.7748 21.4443 27.4562 20.1013 27.6559L12.7823 28.7422H7.50552V26.9988C7.50552 26.643 7.2172 26.3548 6.86152 26.3548H0.923887C0.568213 26.3548 0.279893 26.6432 0.279893 26.9988V43.0888C0.279893 43.4446 0.568213 43.7328 0.923887 43.7328H6.86163C7.2173 43.7328 7.50562 43.4445 7.50562 43.0888V41.3454H8.6704C9.1596 41.3454 9.57371 41.4785 9.97558 41.7656L10.1827 41.9125L9.31998 42.7738C8.41452 43.6811 8.56674 45.1482 9.68188 46.2623C10.203 46.7827 10.8816 47.1514 11.5573 47.2242C11.5295 47.9404 11.858 48.7248 12.5222 49.389C13.1606 50.0274 13.91 50.3559 14.6032 50.3559C14.8624 50.3559 15.1135 50.3094 15.3482 50.2166C15.4887 50.704 15.7799 51.1933 16.2171 51.6306C16.8552 52.2686 17.6042 52.5969 18.2971 52.5969C18.515 52.5969 18.7266 52.5625 18.9281 52.497C19.0619 53.0046 19.3597 53.5162 19.8153 53.9714C20.4537 54.6093 21.2029 54.9373 21.8955 54.9373C22.422 54.9373 22.916 54.7476 23.3036 54.36L25.0519 52.6117C25.076 52.5877 25.0987 52.563 25.1213 52.5382L27.8281 54.4821C28.1765 54.7329 28.5694 54.8535 28.9732 54.8535C29.7629 54.8535 30.5929 54.3918 31.207 53.54C31.582 53.0198 31.7938 52.4694 31.8455 51.9488C32.2388 52.0113 32.6544 51.9501 33.0678 51.7638C34.0668 51.3134 34.8752 50.2099 35.0139 49.1194C36.0004 49.3382 37.0351 48.7257 37.6729 47.8403C38.2186 47.0829 38.4108 46.2716 38.2619 45.5688C38.3687 45.5376 38.476 45.4978 38.5835 45.4494C39.6133 44.985 40.4733 43.8 40.584 42.6928C40.6049 42.4846 40.5988 42.2844 40.5683 42.0941L41.0331 41.7643C41.4387 41.4746 41.8416 41.3453 42.3396 41.3453H43.4953V43.0887C43.4953 43.4445 43.7836 43.7327 44.1393 43.7327H50.077C50.4328 43.7327 50.721 43.4444 50.721 43.0887V26.9987C50.721 26.6429 50.4327 26.3547 50.077 26.3547L50.0766 26.3548ZM6.21764 42.4448H1.56788V27.6428H6.21764V42.4448ZM10.2308 43.6847L11.9794 41.939C12.0361 41.8821 12.1836 41.7343 12.4737 41.7343C12.5535 41.7343 12.644 41.7455 12.7466 41.7729C13.3792 41.9419 14.0321 42.5943 14.2019 43.2273C14.3279 43.697 14.1144 43.9171 14.0398 43.9918L12.2889 45.7427C11.8103 46.2208 11.012 45.7705 10.5922 45.351C10.2416 45.0007 9.71486 44.2016 10.2308 43.6847ZM13.4331 48.4783C13.0772 48.1224 12.5379 47.3153 13.0448 46.8084L13.1996 46.6536C13.1996 46.6536 13.2 46.6533 13.2002 46.6531L14.948 44.9052C14.948 44.9052 14.9482 44.9049 14.9485 44.9048L16.769 43.0843C16.9174 42.9359 17.0913 42.8772 17.2722 42.8772C17.7095 42.8772 18.1871 43.2207 18.4389 43.4725C18.7948 43.8284 19.3341 44.6355 18.8272 45.1424L15.1031 48.8664C14.5961 49.3735 13.7893 48.834 13.4333 48.4782L13.4331 48.4783ZM18.7965 51.1077C18.2899 51.6141 17.4835 51.0755 17.1277 50.7199C16.7144 50.3066 16.2696 49.5215 16.7383 49.0526L19.7376 46.0533C19.8858 45.9052 20.0596 45.8464 20.2404 45.8464C20.6768 45.8464 21.1535 46.1889 21.4048 46.4399C21.8193 46.8539 22.2653 47.6409 21.796 48.1112L21.2153 48.6913C21.2007 48.705 21.1859 48.7182 21.1715 48.7326L19.4232 50.4809C19.4196 50.4846 19.4163 50.4883 19.4128 50.492L18.7966 51.1075C18.7966 51.1075 18.7966 51.1075 18.7965 51.1077ZM24.1405 51.7015L22.3927 53.4493C21.8877 53.9545 21.0813 53.4156 20.7254 53.0602C20.3709 52.7061 19.8346 51.9052 20.3278 51.3985L22.1078 49.6204C22.2501 49.4905 22.4141 49.4374 22.5843 49.4374C23.0216 49.4374 23.4993 49.781 23.751 50.0328C24.1067 50.3884 24.6459 51.195 24.1405 51.7015ZM39.3022 42.5649C39.2371 43.2162 38.6654 43.9995 38.0538 44.2754C37.6642 44.4511 37.4728 44.322 37.406 44.2742C37.4059 44.2742 37.4058 44.274 37.4056 44.2739L31.1602 39.7123C30.8729 39.5027 30.4702 39.5653 30.2604 39.8526C30.0506 40.1399 30.1133 40.5428 30.4006 40.7526L36.646 45.3142C36.646 45.3142 36.647 45.3148 36.6476 45.3151C36.6481 45.3155 36.6486 45.3161 36.6493 45.3164C37.301 45.7863 36.9424 46.6508 36.6278 47.0876C36.298 47.5454 35.5753 48.1286 35.0388 47.7423L34.2045 47.1425L28.152 42.721C27.8648 42.5112 27.4618 42.5738 27.252 42.8611C27.0421 43.1483 27.1049 43.5513 27.3921 43.761L33.4487 48.1855C33.4487 48.1855 33.4495 48.1861 33.4499 48.1864C33.4509 48.187 33.4517 48.1879 33.4526 48.1885C33.5359 48.2485 33.7892 48.4305 33.7402 48.92C33.675 49.5714 33.1358 50.3205 32.5384 50.5899C32.0893 50.7922 31.8366 50.6102 31.7541 50.5509L31.036 50.0327L31.0325 50.0302L25.801 46.2108C25.5137 46.0009 25.1108 46.064 24.9011 46.3512C24.6914 46.6386 24.7542 47.0414 25.0415 47.2511L30.2759 51.0725C30.2759 51.0725 30.2766 51.0728 30.2769 51.073C30.2776 51.0736 30.2781 51.0741 30.2788 51.0745C30.8183 51.4639 30.5048 52.312 30.1623 52.787C29.8688 53.1943 29.1605 53.8545 28.5806 53.4369L25.6259 51.3119C25.6623 50.589 25.3341 49.794 24.6623 49.1222C24.2075 48.6672 23.696 48.3698 23.1888 48.2363C23.4584 47.3942 23.1534 46.3659 22.3156 45.529C21.7016 44.9156 20.985 44.5898 20.3146 44.5665C20.2914 43.895 19.9648 43.177 19.3499 42.5621C18.226 41.4379 16.7574 41.2748 15.8584 42.1739L15.3715 42.6608C15.0107 41.6723 14.0825 40.7968 13.0795 40.5287C12.3289 40.3283 11.6316 40.4933 11.1092 40.9906L10.7229 40.7166C10.1022 40.2733 9.43095 40.0578 8.67072 40.0578H7.50595V30.0304H12.8302C12.8618 30.0304 12.8935 30.0281 12.9247 30.0235L20.2912 28.9302C21.2751 28.7836 22.1758 29.0174 22.9664 29.6253L24.4092 30.7386L21.5132 32.949C20.2093 33.9461 20.4914 35.7302 21.4439 36.9771C22.397 38.2246 24.0444 38.9666 25.3495 37.9705L28.5783 35.5063C29.1807 35.0441 29.991 35.0464 30.5943 35.5114L35.9596 39.6496C35.9652 39.654 35.9709 39.6582 35.9767 39.6623L39.0101 41.8459C39.156 41.9508 39.3449 42.1392 39.3024 42.5651L39.3022 42.5649ZM42.3393 40.0575C41.5772 40.0575 40.9048 40.2729 40.2858 40.7151L39.9505 40.953C39.8913 40.8994 39.8289 40.848 39.7619 40.8L36.7378 38.6228L31.3808 34.491C30.308 33.664 28.8667 33.6612 27.7958 34.4827L24.5678 36.9465C23.805 37.5283 22.8604 36.7093 22.4675 36.1949C22.0747 35.6809 21.5334 34.5547 22.2951 33.9723L25.8578 31.2532C25.8578 31.2532 25.858 31.2529 25.8581 31.2529C25.8582 31.2529 28.014 29.6056 28.014 29.6056C28.8006 29.0046 29.6952 28.7742 30.6737 28.9208L38.0792 30.0232C38.1105 30.0279 38.1422 30.0302 38.174 30.0302H43.4953V40.0576H42.3396L42.3393 40.0575ZM49.4327 42.4448H44.7829V27.6428H49.4327V42.4448ZM28.218 21.4538C28.218 22.5974 27.3329 23.5589 26.1443 23.8187V24.3558C26.1443 24.7116 25.856 24.9998 25.5003 24.9998C25.1446 24.9998 24.8563 24.7115 24.8563 24.3558V23.8187C23.6678 23.5589 22.7826 22.5974 22.7826 21.4538C22.7826 21.098 23.0709 20.8098 23.4266 20.8098C23.7823 20.8098 24.0706 21.0981 24.0706 21.4538C24.0706 22.086 24.7119 22.6003 25.5003 22.6003C26.2887 22.6003 26.93 22.086 26.93 21.4538C26.93 20.7011 26.5407 20.5478 25.4284 20.3017C24.4828 20.0927 23.0537 19.7764 23.0537 18.0982C23.0537 17.0841 23.8187 16.2284 24.8563 15.973V15.4277C24.8563 15.072 25.1446 14.7837 25.5003 14.7837C25.856 14.7837 26.1443 15.072 26.1443 15.4277V15.9728C27.1836 16.2279 27.95 17.0838 27.95 18.0982C27.95 18.454 27.6617 18.7422 27.3061 18.7422C26.9504 18.7422 26.6621 18.4538 26.6621 18.0982C26.6621 17.6022 26.13 17.183 25.5004 17.183C24.8708 17.183 24.3417 17.6021 24.3417 18.0982C24.3417 18.6663 24.6162 18.803 25.7066 19.0441C26.7067 19.2654 28.218 19.5996 28.218 21.4538Z" fill="white"/>
</svg>
