<svg width="54" height="55" viewBox="0 0 54 55" fill="none" xmlns="http://www.w3.org/2000/svg">
<path d="M16.875 23.7829H15.328V20.5039C15.3885 17.4291 12.7834 14.6603 9.70309 14.7126C6.60168 14.7126 4.07826 17.3106 4.07826 20.5039V23.7829H2.53125C2.06529 23.7829 1.6875 24.1607 1.6875 24.6267V36.1706C1.6875 36.6369 2.06529 37.0143 2.53125 37.0143H5.67183V51.8376C5.67183 52.304 6.04962 52.6814 6.51558 52.6814H12.8907C13.3566 52.6814 13.7344 52.304 13.7344 51.8376V37.0143H16.875C17.341 37.0143 17.7188 36.6369 17.7188 36.1706V24.6267C17.7188 24.1607 17.341 23.7829 16.875 23.7829ZM5.76576 20.5039C5.94538 15.044 13.501 15.1184 13.6405 20.504C13.6405 20.5039 13.6405 23.7829 13.6405 23.7829H5.76576V20.5039ZM12.0469 50.9939H7.35933V37.0143H12.0469V50.9939ZM16.0312 35.3268C12.5094 35.3268 6.89688 35.3268 3.375 35.3268V25.4704H16.0312V35.3268Z" fill="white"/>
<path d="M51.4688 18.657H48.9376V13.9673C48.9376 13.5014 48.5598 13.1236 48.0938 13.1236H45.2165V2.90053C45.2165 2.43457 44.8387 2.05678 44.3728 2.05678C42.1889 2.07376 23.1182 2.04454 20.4273 2.05682C19.9613 2.05678 19.5835 2.43457 19.5835 2.90053V36.2962C19.5835 40.2134 23.0508 43.4005 27.3124 43.4005C27.4436 43.3724 47.4294 43.4547 47.5415 43.3719C50.05 43.6347 52.3349 41.6911 52.3126 39.3293C52.3126 39.3293 52.3126 19.5007 52.3126 19.5007C52.3126 19.0348 51.9348 18.657 51.4688 18.657ZM47.2501 14.8111V18.657H45.2165V14.8111H47.2501ZM27.3124 41.713C23.981 41.713 21.271 39.2831 21.271 36.2962V3.74428H43.529C43.5289 12.4096 43.5291 30.5732 43.529 39.3252C43.5346 40.19 43.8575 41.0215 44.3662 41.713H27.3124ZM50.6251 39.3293C50.6493 40.7781 49.0869 41.927 47.5208 41.6834C46.9418 41.6049 46.4128 41.3742 45.9956 40.9871C45.9898 40.9813 45.9836 40.9764 45.9775 40.9706C45.4938 40.5438 45.2165 39.944 45.2165 39.3252V20.3445H50.6251V39.3293Z" fill="white"/>
<path d="M37.9688 7.11914H26.1562C25.6903 7.11914 25.3125 7.49693 25.3125 7.96289V12.1816C25.3125 12.6476 25.6903 13.0254 26.1562 13.0254H37.9688C38.4347 13.0254 38.8125 12.6476 38.8125 12.1816V7.96289C38.8125 7.49693 38.4347 7.11914 37.9688 7.11914ZM37.125 11.3379H27V8.80664H37.125V11.3379Z" fill="white"/>
<path d="M37.125 18.9316C38.2325 18.9133 38.2351 17.263 37.125 17.2441L32.0625 17.2441C31.5965 17.2441 31.2188 17.6219 31.2188 18.0879C31.2188 18.5538 31.5965 18.9316 32.0625 18.9316H37.125Z" fill="white"/>
<path d="M37.9687 21.4629H26.1562C25.0508 21.4806 25.0443 23.1313 26.1562 23.1504L37.9687 23.1504C39.074 23.1327 39.0806 21.482 37.9687 21.4629Z" fill="white"/>
<path d="M37.9687 25.6816H28.6875C27.5813 25.6996 27.5763 27.3501 28.6875 27.3691L37.9687 27.3691C39.0749 27.3512 39.08 25.7006 37.9687 25.6816Z" fill="white"/>
<path d="M33.75 30.7441H26.1562C25.6903 30.7441 25.3125 31.1215 25.3125 31.5879V38.3379C25.3125 38.8043 25.6903 39.1816 26.1562 39.1816H33.75C34.216 39.1816 34.5938 38.8043 34.5938 38.3379V31.5879C34.5938 31.1215 34.216 30.7441 33.75 30.7441ZM32.9062 37.4941H27V32.4316H32.9062V37.4941Z" fill="white"/>
</svg>
