<svg width="471" height="472" viewBox="0 0 471 472" fill="none" xmlns="http://www.w3.org/2000/svg">
<circle cx="235.5" cy="235.869" r="233.636" stroke="white" stroke-opacity="0.35" stroke-width="3.72823"/>
<path opacity="0.2" d="M235.5 416.164C335.075 416.164 415.796 335.443 415.796 235.869C415.796 136.294 335.075 55.5732 235.5 55.5732C135.926 55.5732 55.2046 136.294 55.2046 235.869C55.2046 335.443 135.926 416.164 235.5 416.164Z" fill="white"/>
<path opacity="0.2" d="M234.913 372.706C310.81 372.706 372.337 311.179 372.337 235.282C372.337 159.385 310.81 97.8584 234.913 97.8584C159.016 97.8584 97.4888 159.385 97.4888 235.282C97.4888 311.179 159.016 372.706 234.913 372.706Z" fill="white"/>
<path opacity="0.2" d="M234.913 340.993C291.998 340.993 338.274 294.716 338.274 237.631C338.274 180.546 291.998 134.27 234.913 134.27C177.828 134.27 131.551 180.546 131.551 237.631C131.551 294.716 177.828 340.993 234.913 340.993Z" fill="white"/>
<path d="M219.201 223.327L211.788 232.086C211.195 232.793 212.039 233.796 212.837 233.317L215.689 231.63C216.053 231.401 216.51 231.516 216.761 231.858L219.156 235.233C219.498 235.69 220.182 235.69 220.501 235.233L222.896 231.858C223.147 231.516 223.603 231.401 223.991 231.63L226.819 233.317C227.618 233.796 228.462 232.793 227.869 232.086L220.456 223.327C220.136 222.939 219.52 222.939 219.201 223.327Z" fill="white"/>
<path d="M265.824 225.79C264.41 224.125 261.832 224.125 260.395 225.79L252.001 235.735L250.268 237.765C249.401 238.791 247.804 238.791 246.938 237.765L223.33 209.892C221.505 207.725 218.152 207.725 216.328 209.892L172.009 262.216C170.8 263.631 171.827 265.82 173.674 265.82H205.653C207.523 265.82 208.527 263.631 207.318 262.216L201.068 254.849C200.498 254.142 199.54 253.891 198.696 254.187L191.237 256.765C189.139 257.472 187.428 254.986 188.865 253.298L194.294 246.866L197.441 243.148L218.175 218.673C219.042 217.647 220.616 217.647 221.482 218.673L242.216 243.148L243.972 245.223L245.364 246.866L247.325 249.147L247.485 249.352L250.815 253.275C252.252 254.986 250.541 257.472 248.443 256.742L247.987 256.605L242.832 254.826L242.581 254.735L241.714 254.438L240.962 254.187C240.118 253.891 239.182 254.142 238.589 254.826L232.34 262.216C231.131 263.631 232.157 265.82 234.005 265.82H266.006C267.854 265.82 268.857 263.631 267.671 262.216L266.805 261.213L255.468 247.801L252.115 243.855L251.956 243.672L255.331 239.658L261.444 232.45C262.311 231.401 263.908 231.401 264.774 232.45L279.213 249.512L281.494 252.18L286.056 257.586C287.264 259 286.261 261.167 284.391 261.167L278.278 261.19C276.43 261.19 275.426 263.357 276.613 264.771L276.841 265.045C277.251 265.524 277.867 265.82 278.506 265.82H295.02C296.867 265.82 297.871 263.631 296.685 262.216L265.824 225.79Z" fill="white"/>
</svg>
