<svg width="376" height="378" viewBox="0 0 376 378" fill="none" xmlns="http://www.w3.org/2000/svg">
<mask id="mask0_87690_3042" style="mask-type:luminance" maskUnits="userSpaceOnUse" x="0" y="0" width="376" height="378">
<path d="M376 3.2871e-05L0 0L-3.30458e-05 378L376 378L376 3.2871e-05Z" fill="white"/>
</mask>
<g mask="url(#mask0_87690_3042)">
<path d="M98.0469 187.661L98.0469 187.727L-35.7334 171.911L-35.7203 171.858L98.0469 187.661Z" fill="#A68272"/>
<path d="M96.676 185.377L96.676 185.43L-35.7334 171.911L-35.7203 171.858L96.676 185.377Z" fill="#A68272"/>
<path d="M98.0469 187.661L98.0469 187.727L-35.7334 171.911L-35.7203 171.858L98.0469 187.661Z" fill="#A68272"/>
<path d="M96.676 185.377L96.676 185.43L-35.7334 171.911L-35.7203 171.858L96.676 185.377Z" fill="#A68272"/>
<path d="M104.431 196.835L104.418 196.888L-17.9644 171.911L-17.9513 171.858L104.431 196.835Z" fill="#A68272"/>
<path d="M98.0474 187.674L98.0474 187.727L-17.9512 171.911L-17.9512 171.858L98.0474 187.674Z" fill="#A68272"/>
<path d="M96.6766 185.377L96.6766 185.43L-17.9512 171.911L-17.9512 171.858L96.6766 185.377Z" fill="#A68272"/>
<path d="M-17.9455 171.862L-17.9512 171.901L18.9743 177.383L18.98 177.344L-17.9455 171.862Z" fill="#A68272"/>
<path d="M18.9694 177.358L18.9694 177.397L-35.7334 171.911L-35.7334 171.858L18.9694 177.358Z" fill="#A68272"/>
<path d="M18.9694 177.358L18.9694 177.397L-35.7334 171.911L-35.7334 171.858L18.9694 177.358Z" fill="#A68272"/>
<path d="M121.299 218.832L121.285 218.872L18.9561 177.41L18.9691 177.357L121.299 218.832Z" fill="#A68272"/>
<path d="M104.431 196.835L104.418 196.874L18.9561 177.41L18.9691 177.357L104.431 196.835Z" fill="#A68272"/>
<path d="M98.0467 187.674L98.0467 187.713L18.9692 177.41L18.9692 177.357L98.0467 187.674Z" fill="#A68272"/>
<path d="M96.6759 185.377L96.6759 185.429L18.9692 177.41L18.9692 177.357L96.6759 185.377Z" fill="#A68272"/>
<path d="M75.0298 180.796L75.0298 180.836L18.9692 177.41L18.9692 177.357L75.0298 180.796Z" fill="#A68272"/>
<path d="M75.0305 180.797L75.0305 180.849L-17.9512 171.911L-17.9512 171.858L75.0305 180.797Z" fill="#A68272"/>
<path d="M75.0299 180.797L75.0299 180.849L-35.7334 171.911L-35.7334 171.858L75.0299 180.797Z" fill="#A68272"/>
<path d="M75.0299 180.797L75.0299 180.849L-35.7334 171.911L-35.7334 171.858L75.0299 180.797Z" fill="#A68272"/>
<path d="M149.12 257.329L149.081 257.368L75.0171 180.836L75.0432 180.797L149.12 257.329Z" fill="#A68272"/>
<path d="M121.299 218.833L121.286 218.872L75.0171 180.836L75.0432 180.81L121.299 218.833Z" fill="#A68272"/>
<path d="M104.431 196.848L104.418 196.875L75.0171 180.836L75.0432 180.81L104.431 196.848Z" fill="#A68272"/>
<path d="M98.0471 187.674L98.0471 187.713L75.0171 180.836L75.0301 180.81L98.0471 187.674Z" fill="#A68272"/>
<path d="M96.6764 185.39L96.6764 185.416L75.0303 180.836L75.0303 180.81L96.6764 185.39Z" fill="#A68272"/>
<path d="M207.44 177.647L75.0303 180.849L75.0303 180.797L207.44 177.581L207.44 177.647Z" fill="#A68272"/>
<path d="M207.44 177.647L75.0303 180.849L75.0303 180.797L207.44 177.581L207.44 177.647Z" fill="#A68272"/>
<path d="M207.44 177.647L75.0303 180.849L75.0303 180.797L207.44 177.581L207.44 177.647Z" fill="#A68272"/>
<path d="M145.452 183.553L145.452 183.593L75.0303 180.836L75.0303 180.797L145.452 183.553Z" fill="#A68272"/>
<path d="M145.451 183.539L145.451 183.592L18.9692 177.41L18.9692 177.357L145.451 183.539Z" fill="#A68272"/>
<path d="M145.964 183.383L145.915 183.4L190.03 307.948L190.079 307.93L145.964 183.383Z" fill="#A68272"/>
<path d="M149.12 257.341L149.068 257.341L145.426 183.565L145.465 183.565L149.12 257.341Z" fill="#A68272"/>
<path d="M145.465 183.579L121.312 218.859L121.273 218.845L145.439 183.565L145.465 183.579Z" fill="#A68272"/>
<path d="M145.452 183.592L104.432 196.875L104.418 196.835L145.439 183.553L145.452 183.592Z" fill="#A68272"/>
<path d="M145.452 183.592L98.0469 187.713L98.0469 187.674L145.452 183.553L145.452 183.592Z" fill="#A68272"/>
<path d="M145.452 183.592L96.6763 185.416L96.6763 185.39L145.452 183.553L145.452 183.592Z" fill="#A68272"/>
<path d="M274.454 148.312L145.452 183.592L145.439 183.54L274.428 148.26L274.454 148.312Z" fill="#A68272"/>
<path d="M243.904 159.311L145.452 183.593L145.439 183.54L243.891 159.259L243.904 159.311Z" fill="#A68272"/>
<path d="M218.837 171.215L145.452 183.592L145.452 183.553L218.824 171.176L218.837 171.215Z" fill="#A68272"/>
<path d="M207.44 177.633L145.452 183.592L145.452 183.553L207.44 177.594L207.44 177.633Z" fill="#A68272"/>
<path d="M207.44 177.633L145.452 183.592L145.452 183.553L207.44 177.594L207.44 177.633Z" fill="#A68272"/>
<path d="M207.44 177.633L145.452 183.592L145.452 183.553L207.44 177.594L207.44 177.633Z" fill="#A68272"/>
<path d="M278.997 179.93L145.452 183.592L145.452 183.54L278.997 179.878L278.997 179.93Z" fill="#A68272"/>
<path d="M264.414 183.54L145.452 183.54L145.452 183.593L264.414 183.593L264.414 183.54Z" fill="#A68272"/>
<path d="M201.082 302.701L201.029 302.728L145.426 183.579L145.478 183.553L201.082 302.701Z" fill="#A68272"/>
<path d="M146.049 183.241L146.002 183.265L200.46 292.449L200.506 292.426L146.049 183.241Z" fill="#A68272"/>
<path d="M201.996 282.988L201.943 283.014L145.426 183.579L145.478 183.553L201.996 282.988Z" fill="#A68272"/>
<path d="M202.452 275.205L202.4 275.231L145.426 183.579L145.465 183.553L202.452 275.205Z" fill="#A68272"/>
<path d="M204.267 268.327L204.228 268.353L145.426 183.579L145.465 183.553L204.267 268.327Z" fill="#A68272"/>
<path d="M205.181 262.368L205.142 262.395L145.426 183.592L145.465 183.553L205.181 262.368Z" fill="#A68272"/>
<path d="M207.91 258.247L207.871 258.273L145.426 183.592L145.465 183.553L207.91 258.247Z" fill="#A68272"/>
<path d="M209.281 255.95L209.241 255.99L145.426 183.592L145.465 183.553L209.281 255.95Z" fill="#A68272"/>
<path d="M211.552 254.126L211.526 254.152L145.426 183.592L145.465 183.553L211.552 254.126Z" fill="#A68272"/>
<path d="M215.665 250.91L215.626 250.95L145.426 183.592L145.465 183.553L215.665 250.91Z" fill="#A68272"/>
<path d="M221.135 249.073L221.096 249.112L145.439 183.592L145.465 183.553L221.135 249.073Z" fill="#A68272"/>
<path d="M231.606 244.951L231.58 244.991L145.439 183.592L145.465 183.553L231.606 244.951Z" fill="#A68272"/>
<path d="M245.732 240.371L245.706 240.41L145.439 183.592L145.465 183.553L245.732 240.371Z" fill="#A68272"/>
<path d="M259.871 238.074L259.845 238.127L145.439 183.593L145.465 183.54L259.871 238.074Z" fill="#A68272"/>
<path d="M270.811 238.074L270.785 238.127L145.439 183.593L145.465 183.54L270.811 238.074Z" fill="#A68272"/>
<path d="M224.765 166.635L145.452 183.593L145.439 183.553L224.751 166.596L224.765 166.635Z" fill="#A68272"/>
<path d="M224.765 166.635L145.452 183.593L145.439 183.553L224.751 166.596L224.765 166.635Z" fill="#A68272"/>
<path d="M227.036 170.756L145.452 183.592L145.452 183.553L227.036 170.717L227.036 170.756Z" fill="#A68272"/>
<path d="M235.248 185.378L235.248 185.43L145.452 183.593L145.452 183.54L235.248 185.378Z" fill="#A68272"/>
<path d="M145.204 184.642L145.193 184.693L249.602 206.755L249.612 206.704L145.204 184.642Z" fill="#A68272"/>
<path d="M263.056 226.616L263.03 226.669L145.439 183.593L145.465 183.54L263.056 226.616Z" fill="#A68272"/>
<path d="M222.702 187.674L222.702 187.713L145.452 183.592L145.452 183.553L222.702 187.674Z" fill="#A68272"/>
<path d="M306.818 253.194L306.792 253.233L222.688 187.713L222.728 187.674L306.818 253.194Z" fill="#A68272"/>
<path d="M289.037 214.711L289.024 214.751L222.702 187.713L222.715 187.674L289.037 214.711Z" fill="#A68272"/>
<path d="M298.137 191.336L298.137 191.388L222.702 187.713L222.702 187.674L298.137 191.336Z" fill="#A68272"/>
<path d="M316.375 189.498L316.375 189.551L222.702 187.713L222.702 187.674L316.375 189.498Z" fill="#A68272"/>
<path d="M334.157 196.376L334.144 196.428L222.702 187.726L222.715 187.674L334.157 196.376Z" fill="#A68272"/>
<path d="M340.541 210.577L340.528 210.629L222.702 187.726L222.715 187.674L340.541 210.577Z" fill="#A68272"/>
<path d="M222.727 187.701L190.598 307.755L190.545 307.742L222.688 187.688L222.727 187.701Z" fill="#A68272"/>
<path d="M222.727 187.713L149.107 257.368L149.081 257.328L222.688 187.674L222.727 187.713Z" fill="#A68272"/>
<path d="M222.715 187.713L121.299 218.872L121.286 218.833L222.702 187.674L222.715 187.713Z" fill="#A68272"/>
<path d="M222.714 187.727L104.431 196.888L104.431 196.836L222.701 187.661L222.714 187.727Z" fill="#A68272"/>
<path d="M222.701 187.661L98.0469 187.661L98.0469 187.714L222.701 187.714L222.701 187.661Z" fill="#A68272"/>
<path d="M222.702 187.661L222.702 187.726L96.6763 185.429L96.6763 185.377L222.702 187.661Z" fill="#A68272"/>
<path d="M351.012 193.161L351.012 193.226L222.702 187.727L222.702 187.661L351.012 193.161Z" fill="#A68272"/>
<path d="M338.256 167.567L222.715 187.727L222.702 187.674L338.243 167.501L338.256 167.567Z" fill="#A68272"/>
<path d="M319.574 152.893L222.715 187.714L222.702 187.675L319.561 152.841L319.574 152.893Z" fill="#A68272"/>
<path d="M298.15 146.475L222.715 187.714L222.702 187.674L298.137 146.436L298.15 146.475Z" fill="#A68272"/>
<path d="M274.454 148.299L222.715 187.713L222.688 187.674L274.428 148.272L274.454 148.299Z" fill="#A68272"/>
<path d="M243.917 159.298L222.728 187.7L222.688 187.687L243.891 159.271L243.917 159.298Z" fill="#A68272"/>
<path d="M222.727 187.687L222.688 187.7L218.811 171.202L218.85 171.202L222.727 187.687Z" fill="#A68272"/>
<path d="M222.714 187.687L222.701 187.713L207.426 177.633L207.452 177.594L222.714 187.687Z" fill="#A68272"/>
<path d="M222.714 187.687L222.701 187.713L207.426 177.633L207.452 177.594L222.714 187.687Z" fill="#A68272"/>
<path d="M222.714 187.687L222.701 187.713L207.426 177.633L207.452 177.594L222.714 187.687Z" fill="#A68272"/>
<path d="M348.74 184.052L222.702 187.727L222.702 187.661L348.74 183.999L348.74 184.052Z" fill="#A68272"/>
<path d="M330.501 174.431L222.715 187.727L222.702 187.675L330.501 174.379L330.501 174.431Z" fill="#A68272"/>
<path d="M306.349 174.431L222.715 187.714L222.702 187.675L306.336 174.379L306.349 174.431Z" fill="#A68272"/>
<path d="M278.997 179.93L222.715 187.713L222.702 187.674L278.997 179.891L278.997 179.93Z" fill="#A68272"/>
<path d="M264.421 183.539L222.714 187.665L222.718 187.704L264.425 183.578L264.421 183.539Z" fill="#A68272"/>
<path d="M322.759 183.133L222.702 187.714L222.702 187.674L322.746 183.094L322.759 183.133Z" fill="#A68272"/>
<path d="M222.741 187.701L206.552 315.538L206.5 315.538L222.675 187.688L222.741 187.701Z" fill="#A68272"/>
<path d="M222.703 187.71L201.046 302.716L201.098 302.726L222.755 187.72L222.703 187.71Z" fill="#A68272"/>
<path d="M222.728 187.701L201.082 292.176L201.029 292.163L222.688 187.688L222.728 187.701Z" fill="#A68272"/>
<path d="M222.727 187.701L201.995 283.014L201.943 283.001L222.688 187.688L222.727 187.701Z" fill="#A68272"/>
<path d="M222.727 187.701L202.452 275.218L202.4 275.205L222.688 187.688L222.727 187.701Z" fill="#A68272"/>
<path d="M222.727 187.701L204.267 268.341L204.228 268.341L222.688 187.688L222.727 187.701Z" fill="#A68272"/>
<path d="M222.727 187.701L205.181 262.382L205.142 262.382L222.688 187.688L222.727 187.701Z" fill="#A68272"/>
<path d="M222.728 187.701L207.91 258.261L207.871 258.261L222.689 187.688L222.728 187.701Z" fill="#A68272"/>
<path d="M222.728 187.701L209.28 255.977L209.241 255.964L222.688 187.688L222.728 187.701Z" fill="#A68272"/>
<path d="M222.728 187.701L211.565 254.139L211.526 254.139L222.688 187.688L222.728 187.701Z" fill="#A68272"/>
<path d="M222.728 187.701L215.665 250.937L215.625 250.924L222.689 187.688L222.728 187.701Z" fill="#A68272"/>
<path d="M222.727 187.701L221.134 249.099L221.095 249.099L222.688 187.688L222.727 187.701Z" fill="#A68272"/>
<path d="M231.618 244.965L231.579 244.978L222.688 187.701L222.728 187.688L231.618 244.965Z" fill="#A68272"/>
<path d="M245.745 240.384L245.705 240.398L222.688 187.701L222.728 187.688L245.745 240.384Z" fill="#A68272"/>
<path d="M259.871 238.087L259.845 238.114L222.688 187.701L222.728 187.688L259.871 238.087Z" fill="#A68272"/>
<path d="M222.72 187.686L222.692 187.713L270.774 238.119L270.802 238.092L222.72 187.686Z" fill="#A68272"/>
<path d="M283.11 238.087L283.083 238.113L222.688 187.713L222.728 187.674L283.11 238.087Z" fill="#A68272"/>
<path d="M298.607 237.155L298.58 237.208L222.688 187.713L222.715 187.674L298.607 237.155Z" fill="#A68272"/>
<path d="M306.362 236.249L306.335 236.289L222.688 187.713L222.715 187.674L306.362 236.249Z" fill="#A68272"/>
<path d="M312.276 233.953L312.263 233.992L222.702 187.713L222.715 187.674L312.276 233.953Z" fill="#A68272"/>
<path d="M318.203 230.291L318.19 230.33L222.702 187.713L222.715 187.674L318.203 230.291Z" fill="#A68272"/>
<path d="M322.316 226.616L322.289 226.668L222.702 187.713L222.715 187.674L322.316 226.616Z" fill="#A68272"/>
<path d="M326.859 219.751L326.846 219.791L222.702 187.713L222.715 187.674L326.859 219.751Z" fill="#A68272"/>
<path d="M334.157 202.334L334.144 202.387L222.702 187.726L222.715 187.674L334.157 202.334Z" fill="#A68272"/>
<path d="M334.144 179.93L222.715 187.727L222.702 187.674L334.144 179.878L334.144 179.93Z" fill="#A68272"/>
<path d="M331.415 159.311L222.715 187.714L222.702 187.674L331.402 159.259L331.415 159.311Z" fill="#A68272"/>
<path d="M325.494 146.879L222.709 187.666L222.729 187.715L325.514 146.928L325.494 146.879Z" fill="#A68272"/>
<path d="M320.488 140.975L222.715 187.713L222.702 187.674L320.462 140.936L320.488 140.975Z" fill="#A68272"/>
<path d="M311.832 135.476L222.715 187.713L222.688 187.674L311.806 135.437L311.832 135.476Z" fill="#A68272"/>
<path d="M301.805 131.814L222.728 187.713L222.688 187.674L301.779 131.774L301.805 131.814Z" fill="#A68272"/>
<path d="M293.149 128.14L222.728 187.714L222.688 187.675L293.11 128.113L293.149 128.14Z" fill="#A68272"/>
<path d="M285.851 127.234L222.728 187.714L222.688 187.674L285.812 127.194L285.851 127.234Z" fill="#A68272"/>
<path d="M277.652 123.558L222.728 187.713L222.688 187.674L277.613 123.532L277.652 123.558Z" fill="#A68272"/>
<path d="M224.777 166.622L222.728 187.7L222.688 187.687L224.738 166.608L224.777 166.622Z" fill="#A68272"/>
<path d="M224.777 166.622L222.728 187.7L222.688 187.687L224.738 166.608L224.777 166.622Z" fill="#A68272"/>
<path d="M227.049 170.743L222.728 187.701L222.688 187.688L227.023 170.743L227.049 170.743Z" fill="#A68272"/>
<path d="M235.248 185.417L222.715 187.714L222.702 187.674L235.235 185.391L235.248 185.417Z" fill="#A68272"/>
<path d="M249.387 207.834L249.361 207.873L222.702 187.713L222.715 187.674L249.387 207.834Z" fill="#A68272"/>
<path d="M223.083 187.34L223.055 187.368L262.673 227.058L262.7 227.03L223.083 187.34Z" fill="#A68272"/>
<path d="M273.083 238.993L273.057 239.032L222.688 187.713L222.728 187.674L273.083 238.993Z" fill="#A68272"/>
<path d="M281.295 245.411L281.269 245.45L222.688 187.713L222.728 187.674L281.295 245.411Z" fill="#A68272"/>
<path d="M287.222 249.073L287.183 249.112L222.688 187.713L222.728 187.674L287.222 249.073Z" fill="#A68272"/>
<path d="M293.606 250.91L293.567 250.949L222.688 187.713L222.728 187.674L293.606 250.91Z" fill="#A68272"/>
<path d="M317.302 252.734L317.276 252.787L222.688 187.713L222.728 187.674L317.302 252.734Z" fill="#A68272"/>
<path d="M323.229 248.154L323.203 248.206L222.688 187.713L222.715 187.674L323.229 248.154Z" fill="#A68272"/>
<path d="M331.885 238.533L331.859 238.586L222.702 187.713L222.715 187.674L331.885 238.533Z" fill="#A68272"/>
<path d="M340.541 223.413L340.528 223.466L222.702 187.726L222.715 187.674L340.541 223.413Z" fill="#A68272"/>
<path d="M350.555 197.295L350.555 197.347L222.702 187.727L222.715 187.661L350.555 197.295Z" fill="#A68272"/>
<path d="M351.926 170.309L222.715 187.726L222.702 187.661L351.926 170.257L351.926 170.309Z" fill="#A68272"/>
<path d="M350.568 150.149L222.715 187.726L222.702 187.66L350.555 150.097L350.568 150.149Z" fill="#A68272"/>
<path d="M345.554 135.476L222.715 187.727L222.702 187.674L345.528 135.437L345.554 135.476Z" fill="#A68272"/>
<path d="M338.233 126.754L222.688 187.688L222.712 187.734L338.257 126.801L338.233 126.754Z" fill="#A68272"/>
<path d="M329.157 120.356L222.728 187.713L222.688 187.674L329.117 120.316L329.157 120.356Z" fill="#A68272"/>
<path d="M319.574 117.613L222.728 187.714L222.688 187.674L319.548 117.561L319.574 117.613Z" fill="#A68272"/>
<path d="M309.103 118.978L222.728 187.713L222.688 187.674L309.064 118.938L309.103 118.978Z" fill="#A68272"/>
<path d="M299.063 122.64L222.728 187.713L222.688 187.674L299.037 122.613L299.063 122.64Z" fill="#A68272"/>
<path d="M289.951 128.598L222.728 187.713L222.688 187.674L289.925 128.559L289.951 128.598Z" fill="#A68272"/>
<path d="M304.077 137.773L222.715 187.713L222.688 187.674L304.051 137.733L304.077 137.773Z" fill="#A68272"/>
<path d="M304.534 138.692L222.715 187.714L222.688 187.675L304.508 138.64L304.534 138.692Z" fill="#A68272"/>
<path d="M305.905 139.597L222.715 187.713L222.688 187.674L305.878 139.558L305.905 139.597Z" fill="#A68272"/>
<path d="M307.246 141.384L222.697 187.669L222.722 187.715L307.271 141.43L307.246 141.384Z" fill="#A68272"/>
<path d="M310.918 146.015L222.715 187.713L222.702 187.674L310.892 145.976L310.918 146.015Z" fill="#A68272"/>
<path d="M317.289 154.73L222.715 187.713L222.702 187.674L317.276 154.678L317.289 154.73Z" fill="#A68272"/>
<path d="M325.044 163.432L222.715 187.714L222.702 187.674L325.031 163.38L325.044 163.432Z" fill="#A68272"/>
<path d="M330.958 168.931L222.715 187.726L222.702 187.674L330.958 168.879L330.958 168.931Z" fill="#A68272"/>
<path d="M335.058 172.593L222.715 187.726L222.702 187.674L335.058 172.554L335.058 172.593Z" fill="#A68272"/>
<path d="M339.621 176.199L222.715 187.66L222.72 187.712L339.626 176.251L339.621 176.199Z" fill="#A68272"/>
<path d="M345.998 182.687L222.702 187.727L222.702 187.661L345.998 182.621L345.998 182.687Z" fill="#A68272"/>
<path d="M351.926 189.039L351.926 189.092L222.702 187.727L222.702 187.661L351.926 189.039Z" fill="#A68272"/>
<path d="M356.482 192.242L356.482 192.307L222.702 187.727L222.702 187.661L356.482 192.242Z" fill="#A68272"/>
<path d="M276.06 79.1044L222.728 187.701L222.688 187.688L276.007 79.0781L276.06 79.1044Z" fill="#A68272"/>
<path d="M272.639 92.163L222.728 187.7L222.688 187.687L272.587 92.1367L272.639 92.163Z" fill="#A68272"/>
<path d="M272.639 102.479L222.728 187.7L222.688 187.687L272.6 102.453L272.639 102.479Z" fill="#A68272"/>
<path d="M274.01 107.283L222.728 187.713L222.688 187.687L273.958 107.257L274.01 107.283Z" fill="#A68272"/>
<path d="M276.738 112.796L222.728 187.714L222.688 187.687L276.699 112.757L276.738 112.796Z" fill="#A68272"/>
<path d="M279.467 120.343L222.728 187.713L222.688 187.674L279.441 120.316L279.467 120.343Z" fill="#A68272"/>
<path d="M286.987 133.415L222.728 187.713L222.688 187.674L286.961 133.376L286.987 133.415Z" fill="#A68272"/>
<path d="M294.507 147.158L222.715 187.714L222.702 187.674L294.481 147.118L294.507 147.158Z" fill="#A68272"/>
<path d="M306.127 161.595L222.715 187.714L222.702 187.674L306.114 161.556L306.127 161.595Z" fill="#A68272"/>
<path d="M315.696 171.911L222.715 187.713L222.702 187.674L315.683 171.858L315.696 171.911Z" fill="#A68272"/>
<path d="M325.266 178.789L222.715 187.714L222.702 187.674L325.253 178.736L325.266 178.789Z" fill="#A68272"/>
<path d="M336.886 186.348L222.702 187.727L222.702 187.674L336.886 186.296L336.886 186.348Z" fill="#A68272"/>
<path d="M349.876 193.161L349.876 193.226L222.702 187.727L222.702 187.661L349.876 193.161Z" fill="#A68272"/>
<path d="M358.767 193.161L358.767 193.226L222.702 187.727L222.702 187.661L358.767 193.161Z" fill="#A68272"/>
<path d="M356.495 162.067L222.715 187.727L222.702 187.661L356.482 162.015L356.495 162.067Z" fill="#A68272"/>
<path d="M356.48 162.957L222.698 187.689L222.707 187.741L356.49 163.008L356.48 162.957Z" fill="#A68272"/>
<path d="M356.48 162.957L222.698 187.689L222.707 187.741L356.49 163.008L356.48 162.957Z" fill="#A68272"/>
<path d="M356.495 165.729L222.715 187.727L222.702 187.661L356.482 165.677L356.495 165.729Z" fill="#A68272"/>
<path d="M356.493 169.34L222.708 187.668L222.716 187.72L356.5 169.392L356.493 169.34Z" fill="#A68272"/>
<path d="M357.396 172.147L222.715 187.726L222.702 187.66L357.396 172.081L357.396 172.147Z" fill="#A68272"/>
<path d="M358.298 175.765L222.696 187.668L222.701 187.72L358.302 175.818L358.298 175.765Z" fill="#A68272"/>
<path d="M358.31 179.47L222.715 187.726L222.702 187.66L358.31 179.418L358.31 179.47Z" fill="#A68272"/>
<path d="M358.31 182.227L222.702 187.726L222.702 187.661L358.31 182.161L358.31 182.227Z" fill="#A68272"/>
<path d="M359.224 184.97L222.702 187.727L222.702 187.661L359.224 184.918L359.224 184.97Z" fill="#A68272"/>
<path d="M357.409 164.81L222.715 187.727L222.702 187.661L357.396 164.758L357.409 164.81Z" fill="#A68272"/>
<path d="M357.396 166.648L222.715 187.726L222.702 187.661L357.396 166.582L357.396 166.648Z" fill="#A68272"/>
<path d="M315.004 197.294L315.004 197.334L222.702 187.713L222.715 187.674L315.004 197.294Z" fill="#A68272"/>
<path d="M364.694 168.013L315.017 197.334L314.991 197.295L364.681 167.974L364.694 168.013Z" fill="#A68272"/>
<path d="M372.906 159.757L315.017 197.334L314.991 197.295L372.88 159.718L372.906 159.757Z" fill="#A68272"/>
<path d="M372.906 159.757L315.017 197.334L314.991 197.295L372.88 159.718L372.906 159.757Z" fill="#A68272"/>
<path d="M369.25 189.551L315.004 197.334L315.004 197.295L369.237 189.512L369.25 189.551Z" fill="#A68272"/>
<path d="M352.395 252.288L352.369 252.315L314.991 197.334L315.03 197.308L352.395 252.288Z" fill="#A68272"/>
<path d="M334.627 268.799L334.587 268.799L314.978 197.321L315.03 197.308L334.627 268.799Z" fill="#A68272"/>
<path d="M315.03 197.321L306.818 253.22L306.779 253.22L314.991 197.308L315.03 197.321Z" fill="#A68272"/>
<path d="M315.017 197.334L289.037 214.738L289.011 214.712L314.991 197.295L315.017 197.334Z" fill="#A68272"/>
<path d="M315.004 197.294L315.004 197.334L298.136 191.375L298.149 191.349L315.004 197.294Z" fill="#A68272"/>
<path d="M316.388 189.524L315.017 197.321L314.991 197.321L316.362 189.524L316.388 189.524Z" fill="#A68272"/>
<path d="M334.143 196.415L315.004 197.334L315.004 197.294L334.143 196.389L334.143 196.415Z" fill="#A68272"/>
<path d="M340.541 210.591L340.514 210.617L315.004 197.334L315.017 197.295L340.541 210.591Z" fill="#A68272"/>
<path d="M320.501 313.241L320.449 313.241L314.979 197.321L315.031 197.321L320.501 313.241Z" fill="#A68272"/>
<path d="M316.859 315.538L316.806 315.538L314.979 197.321L315.031 197.321L316.859 315.538Z" fill="#A68272"/>
<path d="M315.03 197.321L310.474 321.956L310.421 321.956L314.978 197.321L315.03 197.321Z" fill="#A68272"/>
<path d="M393.873 252.748L393.847 252.787L314.991 197.334L315.017 197.295L393.873 252.748Z" fill="#A68272"/>
<path d="M392.959 254.113L392.933 254.152L314.991 197.334L315.017 197.295L392.959 254.113Z" fill="#A68272"/>
<path d="M382.488 274.746L382.449 274.772L314.991 197.334L315.03 197.295L382.488 274.746Z" fill="#A68272"/>
<path d="M364.72 304.526L364.667 304.552L314.978 197.334L315.03 197.308L364.72 304.526Z" fill="#A68272"/>
<path d="M345.11 325.158L345.058 325.171L314.978 197.321L315.03 197.308L345.11 325.158Z" fill="#A68272"/>
<path d="M331.898 332.036L331.846 332.036L314.978 197.321L315.03 197.308L331.898 332.036Z" fill="#A68272"/>
<path d="M323.243 331.577L323.177 331.577L314.979 197.321L315.031 197.321L323.243 331.577Z" fill="#A68272"/>
<path d="M318.229 328.821L318.164 328.834L314.979 197.321L315.031 197.321L318.229 328.821Z" fill="#A68272"/>
<path d="M316.402 318.741L316.349 318.741L314.979 197.321L315.031 197.321L316.402 318.741Z" fill="#A68272"/>
<path d="M320.958 295.378L320.906 295.378L314.979 197.321L315.031 197.321L320.958 295.378Z" fill="#A68272"/>
<path d="M328.699 275.664L328.66 275.677L314.978 197.321L315.03 197.308L328.699 275.664Z" fill="#A68272"/>
<path d="M332.799 270.164L332.76 270.178L314.978 197.321L315.03 197.308L332.799 270.164Z" fill="#A68272"/>
<path d="M335.541 267.421L335.501 267.434L314.978 197.321L315.03 197.308L335.541 267.421Z" fill="#A68272"/>
<path d="M337.812 266.043L337.773 266.056L314.991 197.321L315.03 197.308L337.812 266.043Z" fill="#A68272"/>
<path d="M346.925 259.166L346.886 259.192L314.991 197.321L315.03 197.308L346.925 259.166Z" fill="#A68272"/>
<path d="M352.395 250.451L352.369 250.477L314.991 197.334L315.03 197.308L352.395 250.451Z" fill="#A68272"/>
<path d="M356.495 223.414L356.469 223.453L314.991 197.334L315.017 197.295L356.495 223.414Z" fill="#A68272"/>
<path d="M351.011 193.213L315.004 197.334L315.004 197.295L351.011 193.174L351.011 193.213Z" fill="#A68272"/>
<path d="M338.269 167.54L315.017 197.334L314.991 197.308L338.23 167.527L338.269 167.54Z" fill="#A68272"/>
<path d="M319.562 152.882L315.001 197.323L315.04 197.327L319.601 152.886L319.562 152.882Z" fill="#A68272"/>
<path d="M315.03 197.308L314.991 197.321L298.123 146.461L298.162 146.448L315.03 197.308Z" fill="#A68272"/>
<path d="M315.017 197.307L314.991 197.334L274.428 148.299L274.454 148.272L315.017 197.307Z" fill="#A68272"/>
<path d="M315.017 197.295L314.991 197.334L243.891 159.311L243.917 159.259L315.017 197.295Z" fill="#A68272"/>
<path d="M315.017 197.295L315.004 197.334L218.824 171.228L218.837 171.176L315.017 197.295Z" fill="#A68272"/>
<path d="M315.004 197.294L315.004 197.347L207.439 177.633L207.439 177.594L315.004 197.294Z" fill="#A68272"/>
<path d="M315.004 197.294L315.004 197.347L207.439 177.633L207.439 177.594L315.004 197.294Z" fill="#A68272"/>
<path d="M315.004 197.294L315.004 197.347L207.439 177.633L207.439 177.594L315.004 197.294Z" fill="#A68272"/>
<path d="M365.621 316.443L365.568 316.469L314.978 197.321L315.03 197.308L365.621 316.443Z" fill="#A68272"/>
<path d="M375.19 290.784L375.151 290.811L314.978 197.334L315.03 197.295L375.19 290.784Z" fill="#A68272"/>
<path d="M376.091 254.572L376.065 254.612L314.991 197.334L315.017 197.295L376.091 254.572Z" fill="#A68272"/>
<path d="M374.263 225.711L374.25 225.75L314.991 197.334L315.017 197.295L374.263 225.711Z" fill="#A68272"/>
<path d="M365.15 203.713L365.137 203.752L315.004 197.334L315.004 197.295L365.15 203.713Z" fill="#A68272"/>
<path d="M348.739 184.039L315.017 197.335L315.004 197.295L348.726 184.013L348.739 184.039Z" fill="#A68272"/>
<path d="M330.514 174.418L315.017 197.321L314.991 197.308L330.488 174.392L330.514 174.418Z" fill="#A68272"/>
<path d="M315.017 197.307L314.991 197.321L306.322 174.404L306.361 174.404L315.017 197.307Z" fill="#A68272"/>
<path d="M315.017 197.294L315.004 197.334L278.984 179.917L278.997 179.891L315.017 197.294Z" fill="#A68272"/>
<path d="M315.004 197.295L315.004 197.334L264.414 183.592L264.414 183.553L315.004 197.295Z" fill="#A68272"/>
<path d="M322.772 183.12L315.017 197.321L314.991 197.308L322.733 183.106L322.772 183.12Z" fill="#A68272"/>
<path d="M315.017 197.334L202.439 275.244L202.413 275.192L314.991 197.295L315.017 197.334Z" fill="#A68272"/>
<path d="M315.017 197.334L204.267 268.367L204.228 268.314L314.991 197.295L315.017 197.334Z" fill="#A68272"/>
<path d="M315.017 197.334L205.168 262.408L205.142 262.356L314.991 197.295L315.017 197.334Z" fill="#A68272"/>
<path d="M315.017 197.334L207.909 258.287L207.883 258.234L314.991 197.295L315.017 197.334Z" fill="#A68272"/>
<path d="M315.017 197.334L209.267 255.99L209.254 255.951L314.991 197.295L315.017 197.334Z" fill="#A68272"/>
<path d="M315.017 197.334L211.552 254.166L211.526 254.113L314.991 197.295L315.017 197.334Z" fill="#A68272"/>
<path d="M315.017 197.334L215.652 250.95L215.625 250.911L314.991 197.295L315.017 197.334Z" fill="#A68272"/>
<path d="M315.017 197.334L221.121 249.126L221.095 249.073L314.991 197.295L315.017 197.334Z" fill="#A68272"/>
<path d="M315.017 197.334L231.605 244.991L231.579 244.952L314.991 197.295L315.017 197.334Z" fill="#A68272"/>
<path d="M315.017 197.334L245.731 240.411L245.718 240.371L314.991 197.295L315.017 197.334Z" fill="#A68272"/>
<path d="M315.017 197.334L259.87 238.114L259.844 238.087L314.991 197.295L315.017 197.334Z" fill="#A68272"/>
<path d="M314.995 197.276L270.784 238.061L270.811 238.09L315.021 197.305L314.995 197.276Z" fill="#A68272"/>
<path d="M315.017 197.334L283.123 238.113L283.083 238.087L314.991 197.308L315.017 197.334Z" fill="#A68272"/>
<path d="M315.03 197.321L298.619 237.194L298.58 237.181L314.991 197.308L315.03 197.321Z" fill="#A68272"/>
<path d="M315.03 197.321L306.361 236.263L306.322 236.263L314.991 197.308L315.03 197.321Z" fill="#A68272"/>
<path d="M315.03 197.321L312.289 233.979L312.25 233.979L314.991 197.321L315.03 197.321Z" fill="#A68272"/>
<path d="M318.216 230.304L318.177 230.304L314.991 197.321L315.03 197.321L318.216 230.304Z" fill="#A68272"/>
<path d="M322.315 226.642L322.289 226.642L314.991 197.321L315.017 197.308L322.315 226.642Z" fill="#A68272"/>
<path d="M326.872 219.764L326.846 219.778L314.991 197.321L315.017 197.308L326.872 219.764Z" fill="#A68272"/>
<path d="M334.156 202.335L334.143 202.374L315.004 197.334L315.004 197.295L334.156 202.335Z" fill="#A68272"/>
<path d="M334.133 179.924L314.991 197.33L315.017 197.359L334.159 179.953L334.133 179.924Z" fill="#A68272"/>
<path d="M331.428 159.284L315.03 197.32L314.991 197.307L331.402 159.284L331.428 159.284Z" fill="#A68272"/>
<path d="M325.465 146.899L314.983 197.299L315.021 197.307L325.504 146.907L325.465 146.899Z" fill="#A68272"/>
<path d="M320.501 140.962L315.03 197.321L314.991 197.321L320.448 140.949L320.501 140.962Z" fill="#A68272"/>
<path d="M315.03 197.32L314.991 197.32L311.792 135.449L311.832 135.449L315.03 197.32Z" fill="#A68272"/>
<path d="M315.031 197.308L314.991 197.321L301.766 131.801L301.805 131.788L315.031 197.308Z" fill="#A68272"/>
<path d="M315.03 197.308L314.991 197.321L293.11 128.126L293.149 128.113L315.03 197.308Z" fill="#A68272"/>
<path d="M315.03 197.308L314.991 197.321L285.812 127.22L285.851 127.207L315.03 197.308Z" fill="#A68272"/>
<path d="M315.031 197.308L314.991 197.321L277.613 123.558L277.652 123.532L315.031 197.308Z" fill="#A68272"/>
<path d="M315.018 197.295L315.005 197.334L224.751 166.635L224.765 166.596L315.018 197.295Z" fill="#A68272"/>
<path d="M315.018 197.295L315.005 197.334L224.751 166.635L224.765 166.596L315.018 197.295Z" fill="#A68272"/>
<path d="M315.018 197.295L315.004 197.334L227.036 170.769L227.049 170.717L315.018 197.295Z" fill="#A68272"/>
<path d="M235.051 186.871L235.046 186.91L315.197 195.863L315.202 195.824L235.051 186.871Z" fill="#A68272"/>
<path d="M315.004 197.334L249.374 207.874L249.374 207.834L315.004 197.295L315.004 197.334Z" fill="#A68272"/>
<path d="M315.018 197.334L263.056 226.656L263.03 226.629L314.991 197.295L315.018 197.334Z" fill="#A68272"/>
<path d="M315.017 197.334L273.083 239.032L273.057 239.006L314.991 197.295L315.017 197.334Z" fill="#A68272"/>
<path d="M315.017 197.334L281.295 245.437L281.255 245.424L314.991 197.308L315.017 197.334Z" fill="#A68272"/>
<path d="M315.031 197.321L287.222 249.099L287.183 249.086L314.991 197.308L315.031 197.321Z" fill="#A68272"/>
<path d="M315.03 197.321L293.606 250.936L293.567 250.923L314.991 197.308L315.03 197.321Z" fill="#A68272"/>
<path d="M317.302 252.761L317.263 252.761L314.991 197.321L315.03 197.321L317.302 252.761Z" fill="#A68272"/>
<path d="M314.966 197.342L314.927 197.349L323.21 248.2L323.249 248.194L314.966 197.342Z" fill="#A68272"/>
<path d="M331.885 238.546L331.859 238.559L314.991 197.321L315.03 197.308L331.885 238.546Z" fill="#A68272"/>
<path d="M340.541 223.426L340.515 223.453L314.991 197.334L315.017 197.308L340.541 223.426Z" fill="#A68272"/>
<path d="M350.554 197.295L315.004 197.295L315.004 197.334L350.554 197.334L350.554 197.295Z" fill="#A68272"/>
<path d="M351.938 170.297L315.017 197.334L314.991 197.295L351.912 170.271L351.938 170.297Z" fill="#A68272"/>
<path d="M350.581 150.137L315.017 197.334L314.991 197.308L350.541 150.11L350.581 150.137Z" fill="#A68272"/>
<path d="M345.567 135.462L315.03 197.32L314.991 197.307L345.528 135.449L345.567 135.462Z" fill="#A68272"/>
<path d="M338.269 126.761L315.03 197.321L314.991 197.308L338.23 126.748L338.269 126.761Z" fill="#A68272"/>
<path d="M329.156 120.342L315.03 197.32L314.978 197.307L329.117 120.329L329.156 120.342Z" fill="#A68272"/>
<path d="M319.587 117.587L315.03 197.321L314.978 197.321L319.547 117.587L319.587 117.587Z" fill="#A68272"/>
<path d="M315.03 197.321L314.978 197.321L309.064 118.965L309.103 118.965L315.03 197.321Z" fill="#A68272"/>
<path d="M315.03 197.307L314.978 197.32L299.037 122.626L299.076 122.626L315.03 197.307Z" fill="#A68272"/>
<path d="M315.031 197.308L314.991 197.321L289.925 128.585L289.964 128.572L315.031 197.308Z" fill="#A68272"/>
<path d="M315.031 197.307L314.991 197.32L304.051 137.746L304.09 137.746L315.031 197.307Z" fill="#A68272"/>
<path d="M315.031 197.308L314.991 197.321L304.508 138.665L304.547 138.665L315.031 197.308Z" fill="#A68272"/>
<path d="M305.96 139.546L305.921 139.552L314.948 197.302L314.986 197.296L305.96 139.546Z" fill="#A68272"/>
<path d="M315.03 197.308L314.991 197.321L307.236 141.421L307.275 141.408L315.03 197.308Z" fill="#A68272"/>
<path d="M315.03 197.321L314.991 197.321L310.878 146.002L310.918 145.989L315.03 197.321Z" fill="#A68272"/>
<path d="M317.302 154.704L315.03 197.321L314.991 197.321L317.263 154.704L317.302 154.704Z" fill="#A68272"/>
<path d="M325.057 163.419L315.03 197.321L314.991 197.308L325.018 163.406L325.057 163.419Z" fill="#A68272"/>
<path d="M330.971 168.918L315.017 197.321L314.991 197.308L330.945 168.905L330.971 168.918Z" fill="#A68272"/>
<path d="M335.071 172.581L315.017 197.334L314.991 197.308L335.045 172.567L335.071 172.581Z" fill="#A68272"/>
<path d="M339.603 176.219L314.987 197.303L315.012 197.333L339.628 176.249L339.603 176.219Z" fill="#A68272"/>
<path d="M346.011 182.673L315.017 197.334L315.004 197.294L345.998 182.634L346.011 182.673Z" fill="#A68272"/>
<path d="M351.925 189.091L315.004 197.334L315.004 197.294L351.925 189.052L351.925 189.091Z" fill="#A68272"/>
<path d="M356.481 192.294L315.004 197.334L315.004 197.295L356.481 192.255L356.481 192.294Z" fill="#A68272"/>
<path d="M361.495 192.294L315.004 197.334L315.004 197.295L361.495 192.255L361.495 192.294Z" fill="#A68272"/>
<path d="M367.879 192.294L315.004 197.334L315.004 197.295L367.879 192.255L367.879 192.294Z" fill="#A68272"/>
<path d="M376.992 192.294L315.004 197.334L315.004 197.295L376.992 192.255L376.992 192.294Z" fill="#A68272"/>
<path d="M387.475 191.388L315.004 197.334L315.004 197.295L387.475 191.336L387.475 191.388Z" fill="#A68272"/>
<path d="M401.158 189.092L315.004 197.334L315.004 197.295L401.144 189.039L401.158 189.092Z" fill="#A68272"/>
<path d="M413.456 186.794L315.004 197.334L315.004 197.294L413.456 186.755L413.456 186.794Z" fill="#A68272"/>
<path d="M426.681 178.553L315.004 197.347L315.004 197.295L426.668 178.5L426.681 178.553Z" fill="#A68272"/>
<path d="M431.238 170.769L315.017 197.347L315.004 197.295L431.224 170.717L431.238 170.769Z" fill="#A68272"/>
<path d="M432.151 161.608L315.017 197.348L315.004 197.295L432.138 161.556L432.151 161.608Z" fill="#A68272"/>
<path d="M432.152 146.934L315.017 197.347L314.991 197.295L432.139 146.895L432.152 146.934Z" fill="#A68272"/>
<path d="M428.052 129.058L315.017 197.334L314.991 197.295L428.026 129.019L428.052 129.058Z" fill="#A68272"/>
<path d="M421.681 112.114L315.03 197.335L314.991 197.295L421.642 112.062L421.681 112.114Z" fill="#A68272"/>
<path d="M401.628 94.2376L315.03 197.335L314.978 197.295L401.589 94.1982L401.628 94.2376Z" fill="#A68272"/>
<path d="M390.189 95.5618L314.983 197.291L315.025 197.322L390.231 95.5931L390.189 95.5618Z" fill="#A68272"/>
<path d="M375.19 97.8993L315.03 197.334L314.978 197.308L375.151 97.8731L375.19 97.8993Z" fill="#A68272"/>
<path d="M358.792 102.939L315.03 197.321L314.978 197.308L358.74 102.913L358.792 102.939Z" fill="#A68272"/>
<path d="M353.779 102.479L315.03 197.321L314.978 197.308L353.727 102.453L353.779 102.479Z" fill="#A68272"/>
<path d="M315.03 197.308L314.978 197.321L285.577 65.3491L285.629 65.3359L315.03 197.308Z" fill="#A68272"/>
<path d="M315.03 197.308L314.978 197.321L276.007 79.1039L276.06 79.0908L315.03 197.308Z" fill="#A68272"/>
<path d="M315.031 197.308L314.978 197.321L272.587 92.1635L272.639 92.1504L315.031 197.308Z" fill="#A68272"/>
<path d="M315.031 197.308L314.978 197.321L272.587 102.479L272.639 102.453L315.031 197.308Z" fill="#A68272"/>
<path d="M315.031 197.308L314.979 197.321L273.958 107.284L274.01 107.271L315.031 197.308Z" fill="#A68272"/>
<path d="M315.03 197.308L314.978 197.321L276.699 112.783L276.738 112.77L315.03 197.308Z" fill="#A68272"/>
<path d="M315.03 197.307L314.978 197.32L279.428 120.342L279.48 120.329L315.03 197.307Z" fill="#A68272"/>
<path d="M315.03 197.308L314.991 197.322L286.961 133.403L287 133.39L315.03 197.308Z" fill="#A68272"/>
<path d="M315.03 197.308L314.991 197.321L294.481 147.144L294.507 147.131L315.03 197.308Z" fill="#A68272"/>
<path d="M315.03 197.308L314.991 197.321L306.1 161.581L306.139 161.568L315.03 197.308Z" fill="#A68272"/>
<path d="M315.709 171.885L315.017 197.321L314.991 197.321L315.67 171.885L315.709 171.885Z" fill="#A68272"/>
<path d="M325.279 178.762L315.017 197.321L314.991 197.308L325.253 178.749L325.279 178.762Z" fill="#A68272"/>
<path d="M336.885 186.336L315.017 197.335L315.004 197.295L336.872 186.31L336.885 186.336Z" fill="#A68272"/>
<path d="M349.875 193.213L315.004 197.334L315.004 197.295L349.875 193.174L349.875 193.213Z" fill="#A68272"/>
<path d="M358.766 193.213L315.004 197.334L315.004 197.295L358.766 193.174L358.766 193.213Z" fill="#A68272"/>
<path d="M364.915 191.834L315.004 197.334L315.004 197.294L364.915 191.795L364.915 191.834Z" fill="#A68272"/>
<path d="M371.078 191.834L315.004 197.334L315.004 197.294L371.064 191.795L371.078 191.834Z" fill="#A68272"/>
<path d="M377.227 188.396L315.004 197.334L315.004 197.295L377.227 188.356L377.227 188.396Z" fill="#A68272"/>
<path d="M385.426 184.275L315.004 197.334L315.004 197.295L385.426 184.235L385.426 184.275Z" fill="#A68272"/>
<path d="M393.638 179.47L315.004 197.334L315.004 197.294L393.624 179.418L393.638 179.47Z" fill="#A68272"/>
<path d="M401.158 174.654L315.017 197.334L315.004 197.294L401.144 174.614L401.158 174.654Z" fill="#A68272"/>
<path d="M407.999 170.533L315.017 197.334L315.004 197.294L407.986 170.493L407.999 170.533Z" fill="#A68272"/>
<path d="M410.727 166.412L315.017 197.334L315.004 197.295L410.714 166.359L410.727 166.412Z" fill="#A68272"/>
<path d="M414.148 161.595L315.017 197.334L315.004 197.295L414.135 161.556L414.148 161.595Z" fill="#A68272"/>
<path d="M414.148 159.535L315.017 197.335L314.991 197.295L414.135 159.495L414.148 159.535Z" fill="#A68272"/>
<path d="M413.469 157.473L315.017 197.334L314.991 197.295L413.456 157.421L413.469 157.473Z" fill="#A68272"/>
<path d="M411.42 153.352L315.017 197.334L314.991 197.295L411.393 153.3L411.42 153.352Z" fill="#A68272"/>
<path d="M410.049 147.171L315.017 197.334L314.991 197.295L410.023 147.118L410.049 147.171Z" fill="#A68272"/>
<path d="M406.628 139.597L315.017 197.334L314.991 197.294L406.602 139.558L406.628 139.597Z" fill="#A68272"/>
<path d="M398.429 124.477L315.017 197.334L314.991 197.294L398.403 124.438L398.429 124.477Z" fill="#A68272"/>
<path d="M392.972 118.978L315.03 197.334L314.991 197.295L392.933 118.938L392.972 118.978Z" fill="#A68272"/>
<path d="M385.452 115.539L315.03 197.334L314.991 197.295L385.4 115.5L385.452 115.539Z" fill="#A68272"/>
<path d="M380.661 115.539L315.03 197.334L314.991 197.295L380.621 115.513L380.661 115.539Z" fill="#A68272"/>
<path d="M377.932 115.539L315.03 197.334L314.991 197.295L377.893 115.513L377.932 115.539Z" fill="#A68272"/>
<path d="M374.511 116.222L315.03 197.334L314.991 197.295L374.472 116.195L374.511 116.222Z" fill="#A68272"/>
<path d="M373.141 116.917L315.03 197.334L314.991 197.294L373.101 116.891L373.141 116.917Z" fill="#A68272"/>
<path d="M373.141 116.917L315.03 197.334L314.991 197.294L373.101 116.891L373.141 116.917Z" fill="#A68272"/>
<path d="M372.906 162.973L315.017 197.334L314.991 197.295L372.88 162.934L372.906 162.973Z" fill="#A68272"/>
<path d="M369.263 159.298L315.017 197.334L314.991 197.295L369.237 159.271L369.263 159.298Z" fill="#A68272"/>
<path d="M365.621 159.298L315.017 197.334L314.991 197.295L365.595 159.271L365.621 159.298Z" fill="#A68272"/>
<path d="M363.793 159.298L315.017 197.334L314.991 197.295L363.767 159.271L363.793 159.298Z" fill="#A68272"/>
<path d="M360.15 159.298L315.017 197.334L314.991 197.295L360.124 159.271L360.15 159.298Z" fill="#A68272"/>
<path d="M356.495 162.054L315.017 197.334L314.991 197.295L356.469 162.015L356.495 162.054Z" fill="#A68272"/>
<path d="M356.495 162.973L315.017 197.334L314.991 197.295L356.469 162.934L356.495 162.973Z" fill="#A68272"/>
<path d="M356.495 162.973L315.017 197.334L314.991 197.295L356.469 162.934L356.495 162.973Z" fill="#A68272"/>
<path d="M356.495 165.716L315.017 197.334L314.991 197.294L356.469 165.689L356.495 165.716Z" fill="#A68272"/>
<path d="M356.495 169.378L315.017 197.334L314.991 197.295L356.482 169.352L356.495 169.378Z" fill="#A68272"/>
<path d="M357.409 172.134L315.017 197.334L314.991 197.295L357.383 172.095L357.409 172.134Z" fill="#A68272"/>
<path d="M358.309 175.796L315.017 197.334L315.004 197.295L358.296 175.757L358.309 175.796Z" fill="#A68272"/>
<path d="M358.309 179.471L315.017 197.334L315.004 197.295L358.296 179.432L358.309 179.471Z" fill="#A68272"/>
<path d="M358.309 182.214L315.017 197.334L315.004 197.295L358.296 182.175L358.309 182.214Z" fill="#A68272"/>
<path d="M359.223 184.97L315.004 197.334L315.004 197.294L359.21 184.931L359.223 184.97Z" fill="#A68272"/>
<path d="M361.965 188.632L315.004 197.334L315.004 197.295L361.952 188.593L361.965 188.632Z" fill="#A68272"/>
<path d="M364.693 194.131L315.004 197.334L315.004 197.294L364.693 194.092L364.693 194.131Z" fill="#A68272"/>
<path d="M368.336 197.754L368.336 197.794L315.004 197.334L315.004 197.295L368.336 197.754Z" fill="#A68272"/>
<path d="M372.892 197.754L372.892 197.794L315.004 197.334L315.004 197.295L372.892 197.754Z" fill="#A68272"/>
<path d="M376.548 197.754L376.548 197.794L315.004 197.334L315.004 197.295L376.548 197.754Z" fill="#A68272"/>
<path d="M378.363 196.874L315.004 197.334L315.004 197.294L378.363 196.835L378.363 196.874Z" fill="#A68272"/>
<path d="M378.363 196.874L315.004 197.334L315.004 197.294L378.363 196.835L378.363 196.874Z" fill="#A68272"/>
<path d="M381.104 193.213L315.004 197.334L315.004 197.295L381.091 193.174L381.104 193.213Z" fill="#A68272"/>
<path d="M381.104 192.294L315.004 197.334L315.004 197.295L381.091 192.255L381.104 192.294Z" fill="#A68272"/>
<path d="M381.101 189.474L315.01 197.268L315.014 197.307L381.105 189.513L381.101 189.474Z" fill="#A68272"/>
<path d="M381.104 186.794L315.004 197.334L315.004 197.294L381.091 186.755L381.104 186.794Z" fill="#A68272"/>
<path d="M381.104 183.133L315.004 197.334L315.004 197.295L381.091 183.094L381.104 183.133Z" fill="#A68272"/>
<path d="M381.104 180.389L315.004 197.334L315.004 197.294L381.091 180.337L381.104 180.389Z" fill="#A68272"/>
<path d="M381.104 175.796L315.017 197.334L315.004 197.295L381.091 175.757L381.104 175.796Z" fill="#A68272"/>
<path d="M380.19 171.215L315.017 197.334L315.004 197.295L380.177 171.176L380.19 171.215Z" fill="#A68272"/>
<path d="M377.462 166.635L315.017 197.334L314.991 197.295L377.449 166.596L377.462 166.635Z" fill="#A68272"/>
<path d="M376.548 163.892L315.017 197.334L314.991 197.295L376.535 163.853L376.548 163.892Z" fill="#A68272"/>
<path d="M375.624 160.182L314.998 197.298L315.018 197.331L375.644 160.216L375.624 160.182Z" fill="#A68272"/>
<path d="M375.647 159.298L315.017 197.334L314.991 197.295L375.621 159.271L375.647 159.298Z" fill="#A68272"/>
<path d="M371.992 155.636L315.017 197.334L314.991 197.295L371.966 155.597L371.992 155.636Z" fill="#A68272"/>
<path d="M370.177 154.718L315.017 197.335L314.991 197.295L370.151 154.691L370.177 154.718Z" fill="#A68272"/>
<path d="M368.349 154.718L315.017 197.335L314.991 197.295L368.323 154.691L368.349 154.718Z" fill="#A68272"/>
<path d="M364.707 154.718L315.017 197.335L314.991 197.295L364.681 154.691L364.707 154.718Z" fill="#A68272"/>
<path d="M362.879 154.718L315.017 197.335L314.991 197.295L362.853 154.691L362.879 154.718Z" fill="#A68272"/>
<path d="M362.879 154.718L315.017 197.335L314.991 197.295L362.853 154.691L362.879 154.718Z" fill="#A68272"/>
<path d="M361.965 156.555L315.017 197.334L314.991 197.295L361.939 156.516L361.965 156.555Z" fill="#A68272"/>
<path d="M361.965 156.555L315.017 197.334L314.991 197.295L361.939 156.516L361.965 156.555Z" fill="#A68272"/>
<path d="M361.965 158.379L315.017 197.334L314.991 197.294L361.939 158.353L361.965 158.379Z" fill="#A68272"/>
<path d="M360.15 161.136L315.017 197.334L314.991 197.295L360.124 161.109L360.15 161.136Z" fill="#A68272"/>
<path d="M357.409 164.797L315.017 197.334L314.991 197.294L357.383 164.771L357.409 164.797Z" fill="#A68272"/>
<path d="M357.409 166.635L315.017 197.334L314.991 197.295L357.383 166.608L357.409 166.635Z" fill="#A68272"/>
<path d="M375.856 200.038L375.856 200.091L315.004 197.334L315.004 197.295L375.856 200.038Z" fill="#A68272"/>
<path d="M375.869 200.064L375.843 200.077L364.667 167.999L364.707 167.986L375.869 200.064Z" fill="#A68272"/>
<path d="M375.869 200.064L375.843 200.064L372.879 159.744L372.905 159.744L375.869 200.064Z" fill="#A68272"/>
<path d="M375.869 200.064L375.843 200.064L372.879 159.744L372.905 159.744L375.869 200.064Z" fill="#A68272"/>
<path d="M375.87 200.064L375.843 200.077L369.237 189.538L369.263 189.524L375.87 200.064Z" fill="#A68272"/>
<path d="M375.869 200.078L352.395 252.315L352.369 252.289L375.843 200.064L375.869 200.078Z" fill="#A68272"/>
<path d="M375.869 200.077L334.627 268.813L334.587 268.786L375.83 200.051L375.869 200.077Z" fill="#A68272"/>
<path d="M375.869 200.077L306.818 253.233L306.792 253.207L375.843 200.051L375.869 200.077Z" fill="#A68272"/>
<path d="M375.856 200.091L289.024 214.751L289.024 214.712L375.856 200.038L375.856 200.091Z" fill="#A68272"/>
<path d="M375.856 200.038L375.856 200.09L298.136 191.388L298.149 191.336L375.856 200.038Z" fill="#A68272"/>
<path d="M375.857 200.038L375.857 200.09L316.375 189.551L316.375 189.512L375.857 200.038Z" fill="#A68272"/>
<path d="M375.856 200.051L375.856 200.077L334.144 196.415L334.144 196.376L375.856 200.051Z" fill="#A68272"/>
<path d="M375.856 200.077L340.541 210.616L340.528 210.59L375.856 200.051L375.856 200.077Z" fill="#A68272"/>
<path d="M375.882 200.077L320.5 313.254L320.448 313.241L375.83 200.051L375.882 200.077Z" fill="#A68272"/>
<path d="M375.883 200.077L316.858 315.551L316.806 315.525L375.83 200.051L375.883 200.077Z" fill="#A68272"/>
<path d="M393.873 252.748L393.847 252.774L375.83 200.078L375.869 200.064L393.873 252.748Z" fill="#A68272"/>
<path d="M392.972 254.126L392.933 254.139L375.83 200.078L375.869 200.064L392.972 254.126Z" fill="#A68272"/>
<path d="M382.488 274.759L382.449 274.759L375.83 200.064L375.869 200.064L382.488 274.759Z" fill="#A68272"/>
<path d="M375.882 200.064L364.72 304.539L364.667 304.539L375.83 200.064L375.882 200.064Z" fill="#A68272"/>
<path d="M375.882 200.078L345.11 325.172L345.058 325.159L375.83 200.064L375.882 200.078Z" fill="#A68272"/>
<path d="M375.882 200.077L316.401 318.753L316.349 318.727L375.83 200.051L375.882 200.077Z" fill="#A68272"/>
<path d="M375.869 200.077L320.957 295.391L320.905 295.365L375.83 200.051L375.869 200.077Z" fill="#A68272"/>
<path d="M375.87 200.077L328.7 275.69L328.661 275.664L375.83 200.051L375.87 200.077Z" fill="#A68272"/>
<path d="M375.869 200.077L332.799 270.191L332.76 270.165L375.83 200.051L375.869 200.077Z" fill="#A68272"/>
<path d="M375.869 200.077L335.541 267.435L335.501 267.408L375.83 200.051L375.869 200.077Z" fill="#A68272"/>
<path d="M375.869 200.077L337.812 266.056L337.773 266.043L375.83 200.051L375.869 200.077Z" fill="#A68272"/>
<path d="M375.869 200.078L346.925 259.179L346.886 259.166L375.83 200.064L375.869 200.078Z" fill="#A68272"/>
<path d="M375.869 200.078L352.395 250.478L352.369 250.464L375.843 200.064L375.869 200.078Z" fill="#A68272"/>
<path d="M375.869 200.077L356.495 223.453L356.469 223.426L375.843 200.051L375.869 200.077Z" fill="#A68272"/>
<path d="M375.856 200.051L375.856 200.078L351.011 193.213L351.024 193.174L375.856 200.051Z" fill="#A68272"/>
<path d="M375.869 200.051L375.843 200.077L338.243 167.553L338.269 167.514L375.869 200.051Z" fill="#A68272"/>
<path d="M375.869 200.051L375.843 200.077L319.547 152.893L319.573 152.854L375.869 200.051Z" fill="#A68272"/>
<path d="M375.869 200.051L375.843 200.091L298.123 146.475L298.149 146.436L375.869 200.051Z" fill="#A68272"/>
<path d="M375.869 200.038L375.843 200.09L274.428 148.312L274.454 148.26L375.869 200.038Z" fill="#A68272"/>
<path d="M375.882 200.078L354.693 332.036L354.628 332.023L375.83 200.064L375.882 200.078Z" fill="#A68272"/>
<path d="M375.882 200.064L365.634 316.457L365.568 316.457L375.83 200.064L375.882 200.064Z" fill="#A68272"/>
<path d="M375.882 200.064L375.19 290.798L375.151 290.798L375.83 200.064L375.882 200.064Z" fill="#A68272"/>
<path d="M376.104 254.599L376.065 254.599L375.83 200.064L375.869 200.064L376.104 254.599Z" fill="#A68272"/>
<path d="M375.869 200.064L374.276 225.724L374.237 225.724L375.843 200.064L375.869 200.064Z" fill="#A68272"/>
<path d="M375.856 200.077L365.15 203.752L365.137 203.713L375.856 200.051L375.856 200.077Z" fill="#A68272"/>
<path d="M375.869 200.051L375.843 200.078L348.727 184.039L348.74 184.013L375.869 200.051Z" fill="#A68272"/>
<path d="M375.869 200.051L375.843 200.077L330.488 174.431L330.514 174.392L375.869 200.051Z" fill="#A68272"/>
<path d="M375.856 200.038L375.843 200.09L306.335 174.431L306.348 174.392L375.856 200.038Z" fill="#A68272"/>
<path d="M375.856 200.038L375.856 200.09L278.997 179.93L278.997 179.878L375.856 200.038Z" fill="#A68272"/>
<path d="M265.932 183.951L265.924 184.003L377.441 200.989L377.449 200.937L265.932 183.951Z" fill="#A68272"/>
<path d="M375.856 200.051L375.843 200.091L322.746 183.133L322.759 183.094L375.856 200.051Z" fill="#A68272"/>
<path d="M375.869 200.091L245.731 240.424L245.718 240.358L375.843 200.038L375.869 200.091Z" fill="#A68272"/>
<path d="M375.869 200.091L259.857 238.127L259.844 238.074L375.843 200.038L375.869 200.091Z" fill="#A68272"/>
<path d="M375.869 200.091L270.798 238.127L270.785 238.074L375.843 200.038L375.869 200.091Z" fill="#A68272"/>
<path d="M375.869 200.091L283.109 238.127L283.096 238.074L375.843 200.038L375.869 200.091Z" fill="#A68272"/>
<path d="M375.869 200.091L298.606 237.208L298.58 237.156L375.843 200.038L375.869 200.091Z" fill="#A68272"/>
<path d="M375.869 200.09L306.362 236.289L306.335 236.25L375.843 200.051L375.869 200.09Z" fill="#A68272"/>
<path d="M375.869 200.09L312.275 233.992L312.262 233.953L375.843 200.051L375.869 200.09Z" fill="#A68272"/>
<path d="M375.869 200.077L318.203 230.33L318.19 230.291L375.843 200.051L375.869 200.077Z" fill="#A68272"/>
<path d="M375.869 200.077L322.315 226.655L322.289 226.629L375.843 200.051L375.869 200.077Z" fill="#A68272"/>
<path d="M375.856 200.077L326.858 219.791L326.845 219.751L375.843 200.051L375.856 200.077Z" fill="#A68272"/>
<path d="M375.856 200.077L334.144 202.374L334.144 202.335L375.856 200.051L375.856 200.077Z" fill="#A68272"/>
<path d="M375.869 200.051L375.843 200.077L334.144 179.917L334.157 179.891L375.869 200.051Z" fill="#A68272"/>
<path d="M331.414 159.308L331.387 159.337L375.865 200.081L375.891 200.052L331.414 159.308Z" fill="#A68272"/>
<path d="M375.869 200.051L375.843 200.077L325.475 146.921L325.501 146.895L375.869 200.051Z" fill="#A68272"/>
<path d="M375.869 200.051L375.843 200.077L320.461 140.975L320.488 140.936L375.869 200.051Z" fill="#A68272"/>
<path d="M375.869 200.051L375.843 200.077L311.792 135.476L311.832 135.437L375.869 200.051Z" fill="#A68272"/>
<path d="M375.869 200.051L375.843 200.077L301.766 131.814L301.805 131.774L375.869 200.051Z" fill="#A68272"/>
<path d="M375.869 200.051L375.843 200.091L293.11 128.153L293.149 128.113L375.869 200.051Z" fill="#A68272"/>
<path d="M375.869 200.038L375.843 200.091L285.812 127.234L285.851 127.194L375.869 200.038Z" fill="#A68272"/>
<path d="M375.869 200.038L375.843 200.091L277.613 123.559L277.652 123.52L375.869 200.038Z" fill="#A68272"/>
<path d="M375.856 200.091L249.374 207.887L249.374 207.834L375.856 200.038L375.856 200.091Z" fill="#A68272"/>
<path d="M375.857 200.091L263.057 226.669L263.043 226.616L375.843 200.038L375.857 200.091Z" fill="#A68272"/>
<path d="M375.869 200.091L273.083 239.046L273.07 238.993L375.843 200.038L375.869 200.091Z" fill="#A68272"/>
<path d="M375.869 200.091L281.282 245.451L281.269 245.411L375.843 200.038L375.869 200.091Z" fill="#A68272"/>
<path d="M375.869 200.091L287.209 249.126L287.196 249.073L375.843 200.038L375.869 200.091Z" fill="#A68272"/>
<path d="M375.869 200.091L293.593 250.95L293.567 250.911L375.843 200.038L375.869 200.091Z" fill="#A68272"/>
<path d="M375.869 200.077L317.302 252.774L317.276 252.748L375.843 200.051L375.869 200.077Z" fill="#A68272"/>
<path d="M375.869 200.077L323.229 248.193L323.19 248.167L375.843 200.051L375.869 200.077Z" fill="#A68272"/>
<path d="M375.869 200.077L331.885 238.573L331.859 238.546L375.843 200.051L375.869 200.077Z" fill="#A68272"/>
<path d="M375.87 200.077L340.541 223.453L340.515 223.413L375.843 200.051L375.87 200.077Z" fill="#A68272"/>
<path d="M375.856 200.051L375.856 200.077L350.554 197.334L350.554 197.295L375.856 200.051Z" fill="#A68272"/>
<path d="M375.869 200.051L375.843 200.077L351.912 170.297L351.938 170.271L375.869 200.051Z" fill="#A68272"/>
<path d="M375.869 200.064L375.843 200.077L350.542 150.123L350.581 150.11L375.869 200.064Z" fill="#A68272"/>
<path d="M375.869 200.064L375.83 200.077L345.528 135.462L345.567 135.449L375.869 200.064Z" fill="#A68272"/>
<path d="M375.869 200.051L375.83 200.077L338.23 126.761L338.269 126.734L375.869 200.051Z" fill="#A68272"/>
<path d="M375.869 200.051L375.83 200.077L329.117 120.343L329.156 120.316L375.869 200.051Z" fill="#A68272"/>
<path d="M375.869 200.051L375.83 200.077L319.547 117.599L319.587 117.573L375.869 200.051Z" fill="#A68272"/>
<path d="M375.869 200.052L375.83 200.078L309.064 118.978L309.103 118.952L375.869 200.052Z" fill="#A68272"/>
<path d="M375.869 200.051L375.843 200.077L299.037 122.64L299.076 122.613L375.869 200.051Z" fill="#A68272"/>
<path d="M375.87 200.05L375.843 200.09L289.925 128.598L289.951 128.559L375.87 200.05Z" fill="#A68272"/>
<path d="M375.869 200.051L375.843 200.077L304.051 137.773L304.077 137.733L375.869 200.051Z" fill="#A68272"/>
<path d="M304.099 139.216L304.065 139.257L376.308 199.574L376.342 199.534L304.099 139.216Z" fill="#A68272"/>
<path d="M305.917 139.529L305.883 139.568L375.82 200.086L375.854 200.047L305.917 139.529Z" fill="#A68272"/>
<path d="M375.869 200.051L375.843 200.077L307.236 141.435L307.275 141.396L375.869 200.051Z" fill="#A68272"/>
<path d="M375.869 200.051L375.843 200.077L310.892 146.015L310.918 145.976L375.869 200.051Z" fill="#A68272"/>
<path d="M375.869 200.05L375.843 200.077L317.276 154.717L317.302 154.69L375.869 200.05Z" fill="#A68272"/>
<path d="M375.869 200.051L375.843 200.077L325.018 163.432L325.044 163.393L375.869 200.051Z" fill="#A68272"/>
<path d="M375.869 200.051L375.843 200.078L330.945 168.919L330.971 168.893L375.869 200.051Z" fill="#A68272"/>
<path d="M375.869 200.051L375.843 200.077L335.044 172.593L335.071 172.554L375.869 200.051Z" fill="#A68272"/>
<path d="M375.869 200.051L375.843 200.077L339.614 176.255L339.627 176.216L375.869 200.051Z" fill="#A68272"/>
<path d="M375.869 200.051L375.843 200.077L345.998 182.673L346.011 182.634L375.869 200.051Z" fill="#A68272"/>
<path d="M375.856 200.051L375.843 200.077L351.925 189.078L351.938 189.052L375.856 200.051Z" fill="#A68272"/>
<path d="M375.856 200.051L375.843 200.077L356.482 192.294L356.495 192.255L375.856 200.051Z" fill="#A68272"/>
<path d="M375.856 200.051L375.843 200.077L361.482 192.294L361.508 192.268L375.856 200.051Z" fill="#A68272"/>
<path d="M375.869 200.051L375.843 200.077L367.866 192.281L367.892 192.268L375.869 200.051Z" fill="#A68272"/>
<path d="M377.005 192.281L375.869 200.064L375.843 200.064L376.979 192.268L377.005 192.281Z" fill="#A68272"/>
<path d="M387.489 191.375L375.869 200.077L375.843 200.051L387.463 191.349L387.489 191.375Z" fill="#A68272"/>
<path d="M401.158 189.078L375.856 200.077L375.843 200.051L401.145 189.052L401.158 189.078Z" fill="#A68272"/>
<path d="M413.469 186.794L375.856 200.077L375.843 200.051L413.456 186.755L413.469 186.794Z" fill="#A68272"/>
<path d="M426.682 178.552L375.856 200.077L375.843 200.051L426.669 178.513L426.682 178.552Z" fill="#A68272"/>
<path d="M431.251 170.756L375.869 200.077L375.843 200.051L431.225 170.717L431.251 170.756Z" fill="#A68272"/>
<path d="M432.152 161.595L375.869 200.078L375.843 200.051L432.139 161.556L432.152 161.595Z" fill="#A68272"/>
<path d="M432.165 146.934L375.869 200.077L375.843 200.051L432.126 146.895L432.165 146.934Z" fill="#A68272"/>
<path d="M428.065 129.058L375.869 200.077L375.83 200.051L428.026 129.031L428.065 129.058Z" fill="#A68272"/>
<path d="M421.681 112.1L375.869 200.077L375.83 200.051L421.642 112.074L421.681 112.1Z" fill="#A68272"/>
<path d="M413.025 100.183L375.882 200.077L375.83 200.064L412.973 100.17L413.025 100.183Z" fill="#A68272"/>
<path d="M401.628 94.2241L375.882 200.077L375.83 200.064L401.589 94.2109L401.628 94.2241Z" fill="#A68272"/>
<path d="M390.23 95.5889L375.882 200.077L375.83 200.064L390.191 95.5889L390.23 95.5889Z" fill="#A68272"/>
<path d="M375.882 200.064L375.83 200.064L375.151 97.8857L375.19 97.8857L375.882 200.064Z" fill="#A68272"/>
<path d="M375.882 200.064L375.83 200.077L358.74 102.926L358.792 102.913L375.882 200.064Z" fill="#A68272"/>
<path d="M375.882 200.064L375.83 200.077L353.727 102.466L353.779 102.453L375.882 200.064Z" fill="#A68272"/>
<path d="M276.148 113.403L276.114 113.443L376.412 199.379L376.446 199.339L276.148 113.403Z" fill="#A68272"/>
<path d="M375.869 200.038L375.843 200.09L279.441 120.356L279.467 120.316L375.869 200.038Z" fill="#A68272"/>
<path d="M375.869 200.038L375.843 200.09L286.961 133.415L286.987 133.376L375.869 200.038Z" fill="#A68272"/>
<path d="M375.869 200.038L375.843 200.091L294.481 147.158L294.507 147.118L375.869 200.038Z" fill="#A68272"/>
<path d="M305.619 162.487L305.602 162.522L376.339 199.133L376.357 199.098L305.619 162.487Z" fill="#A68272"/>
<path d="M375.869 200.051L375.843 200.09L315.683 171.911L315.696 171.858L375.869 200.051Z" fill="#A68272"/>
<path d="M375.856 200.051L375.843 200.078L325.253 178.776L325.266 178.736L375.856 200.051Z" fill="#A68272"/>
<path d="M375.856 200.051L375.843 200.077L336.872 186.335L336.885 186.296L375.856 200.051Z" fill="#A68272"/>
<path d="M375.857 200.051L375.857 200.078L349.876 193.213L349.876 193.174L375.857 200.051Z" fill="#A68272"/>
<path d="M375.856 200.051L375.843 200.078L358.753 193.213L358.766 193.174L375.856 200.051Z" fill="#A68272"/>
<path d="M364.867 191.827L364.852 191.849L375.858 199.998L375.874 199.976L364.867 191.827Z" fill="#A68272"/>
<path d="M375.869 200.064L375.843 200.077L371.052 191.822L371.078 191.809L375.869 200.064Z" fill="#A68272"/>
<path d="M377.24 188.383L375.869 200.064L375.843 200.064L377.214 188.383L377.24 188.383Z" fill="#A68272"/>
<path d="M385.406 184.239L375.834 200.047L375.868 200.067L385.44 184.26L385.406 184.239Z" fill="#A68272"/>
<path d="M393.638 179.458L375.869 200.077L375.843 200.051L393.625 179.432L393.638 179.458Z" fill="#A68272"/>
<path d="M401.127 174.62L375.833 200.05L375.86 200.078L401.155 174.648L401.127 174.62Z" fill="#A68272"/>
<path d="M407.999 170.533L375.869 200.077L375.843 200.051L407.973 170.493L407.999 170.533Z" fill="#A68272"/>
<path d="M410.741 166.398L375.869 200.077L375.843 200.051L410.715 166.372L410.741 166.398Z" fill="#A68272"/>
<path d="M414.119 161.569L375.835 200.057L375.863 200.084L414.146 161.597L414.119 161.569Z" fill="#A68272"/>
<path d="M414.161 159.521L375.869 200.078L375.843 200.051L414.122 159.495L414.161 159.521Z" fill="#A68272"/>
<path d="M413.469 157.46L375.869 200.077L375.843 200.05L413.443 157.434L413.469 157.46Z" fill="#A68272"/>
<path d="M411.42 153.339L375.869 200.077L375.843 200.051L411.394 153.313L411.42 153.339Z" fill="#A68272"/>
<path d="M410.062 147.157L375.869 200.077L375.843 200.051L410.023 147.131L410.062 147.157Z" fill="#A68272"/>
<path d="M406.641 139.598L375.869 200.078L375.83 200.051L406.602 139.571L406.641 139.598Z" fill="#A68272"/>
<path d="M398.442 124.464L375.869 200.077L375.83 200.064L398.39 124.451L398.442 124.464Z" fill="#A68272"/>
<path d="M392.972 118.965L375.869 200.078L375.83 200.065L392.92 118.952L392.972 118.965Z" fill="#A68272"/>
<path d="M385.452 115.526L375.882 200.064L375.83 200.064L385.4 115.526L385.452 115.526Z" fill="#A68272"/>
<path d="M380.661 115.526L375.882 200.064L375.83 200.064L380.621 115.526L380.661 115.526Z" fill="#A68272"/>
<path d="M377.932 115.526L375.882 200.064L375.83 200.064L377.88 115.526L377.932 115.526Z" fill="#A68272"/>
<path d="M375.883 200.064L375.83 200.064L374.459 116.208L374.512 116.208L375.883 200.064Z" fill="#A68272"/>
<path d="M375.882 200.064L375.83 200.064L373.102 116.904L373.141 116.904L375.882 200.064Z" fill="#A68272"/>
<path d="M375.882 200.064L375.83 200.064L373.102 116.904L373.141 116.904L375.882 200.064Z" fill="#A68272"/>
<path d="M375.869 200.064L375.843 200.064L372.879 162.959L372.905 162.946L375.869 200.064Z" fill="#A68272"/>
<path d="M375.87 200.064L375.843 200.064L369.237 159.284L369.263 159.284L375.87 200.064Z" fill="#A68272"/>
<path d="M375.869 200.064L375.843 200.077L365.582 159.284L365.621 159.284L375.869 200.064Z" fill="#A68272"/>
<path d="M375.869 200.065L375.843 200.078L363.767 159.285L363.793 159.285L375.869 200.065Z" fill="#A68272"/>
<path d="M375.869 200.065L375.843 200.078L360.111 159.298L360.15 159.285L375.869 200.065Z" fill="#A68272"/>
<path d="M375.869 200.064L375.843 200.077L356.469 162.04L356.508 162.027L375.869 200.064Z" fill="#A68272"/>
<path d="M375.869 200.064L375.843 200.077L356.469 162.959L356.508 162.946L375.869 200.064Z" fill="#A68272"/>
<path d="M375.869 200.064L375.843 200.077L356.469 162.959L356.508 162.946L375.869 200.064Z" fill="#A68272"/>
<path d="M375.869 200.064L375.843 200.077L356.469 165.703L356.508 165.689L375.869 200.064Z" fill="#A68272"/>
<path d="M375.869 200.051L375.843 200.077L356.469 169.378L356.508 169.352L375.869 200.051Z" fill="#A68272"/>
<path d="M375.869 200.051L375.843 200.077L357.383 172.121L357.409 172.107L375.869 200.051Z" fill="#A68272"/>
<path d="M375.869 200.051L375.843 200.077L358.296 175.796L358.322 175.77L375.869 200.051Z" fill="#A68272"/>
<path d="M375.869 200.051L375.843 200.077L358.296 179.458L358.322 179.432L375.869 200.051Z" fill="#A68272"/>
<path d="M375.869 200.051L375.843 200.077L358.296 182.201L358.322 182.188L375.869 200.051Z" fill="#A68272"/>
<path d="M375.869 200.051L375.843 200.077L359.21 184.957L359.237 184.931L375.869 200.051Z" fill="#A68272"/>
<path d="M375.869 200.051L375.843 200.077L361.952 188.619L361.965 188.593L375.869 200.051Z" fill="#A68272"/>
<path d="M375.856 200.051L375.843 200.077L364.681 194.118L364.694 194.092L375.856 200.051Z" fill="#A68272"/>
<path d="M375.856 200.051L375.856 200.078L368.336 197.794L368.336 197.768L375.856 200.051Z" fill="#A68272"/>
<path d="M375.869 200.051L375.843 200.078L372.879 197.781L372.905 197.768L375.869 200.051Z" fill="#A68272"/>
<path d="M376.561 197.781L375.869 200.078L375.843 200.064L376.522 197.768L376.561 197.781Z" fill="#A68272"/>
<path d="M378.376 196.875L375.869 200.077L375.843 200.064L378.35 196.849L378.376 196.875Z" fill="#A68272"/>
<path d="M378.376 196.875L375.869 200.077L375.843 200.064L378.35 196.849L378.376 196.875Z" fill="#A68272"/>
<path d="M381.118 193.2L375.869 200.077L375.843 200.064L381.092 193.187L381.118 193.2Z" fill="#A68272"/>
<path d="M381.118 192.281L375.869 200.077L375.843 200.064L381.092 192.268L381.118 192.281Z" fill="#A68272"/>
<path d="M381.118 189.538L375.869 200.077L375.843 200.064L381.092 189.524L381.118 189.538Z" fill="#A68272"/>
<path d="M381.118 186.782L375.869 200.077L375.843 200.064L381.079 186.769L381.118 186.782Z" fill="#A68272"/>
<path d="M381.118 183.12L375.869 200.077L375.843 200.064L381.079 183.106L381.118 183.12Z" fill="#A68272"/>
<path d="M381.118 180.363L375.869 200.077L375.843 200.064L381.079 180.363L381.118 180.363Z" fill="#A68272"/>
<path d="M381.089 175.775L375.845 200.055L375.883 200.063L381.127 175.783L381.089 175.775Z" fill="#A68272"/>
<path d="M380.204 171.202L375.869 200.064L375.843 200.064L380.165 171.202L380.204 171.202Z" fill="#A68272"/>
<path d="M377.475 166.622L375.869 200.064L375.843 200.064L377.436 166.608L377.475 166.622Z" fill="#A68272"/>
<path d="M376.561 163.865L375.869 200.064L375.843 200.064L376.522 163.865L376.561 163.865Z" fill="#A68272"/>
<path d="M375.869 200.064L375.843 200.064L375.608 160.203L375.647 160.203L375.869 200.064Z" fill="#A68272"/>
<path d="M375.869 200.065L375.843 200.065L375.608 159.285L375.647 159.285L375.869 200.065Z" fill="#A68272"/>
<path d="M375.869 200.064L375.83 200.064L371.966 155.623L372.005 155.623L375.869 200.064Z" fill="#A68272"/>
<path d="M375.869 200.064L375.83 200.064L370.138 154.704L370.177 154.704L375.869 200.064Z" fill="#A68272"/>
<path d="M368.341 154.727L368.302 154.733L375.845 200.094L375.883 200.088L368.341 154.727Z" fill="#A68272"/>
<path d="M375.869 200.064L375.843 200.077L364.667 154.704L364.707 154.704L375.869 200.064Z" fill="#A68272"/>
<path d="M375.869 200.065L375.843 200.078L362.853 154.705L362.879 154.691L375.869 200.065Z" fill="#A68272"/>
<path d="M375.869 200.065L375.843 200.078L362.853 154.705L362.879 154.691L375.869 200.065Z" fill="#A68272"/>
<path d="M375.869 200.064L375.843 200.077L361.939 156.541L361.978 156.528L375.869 200.064Z" fill="#A68272"/>
<path d="M375.869 200.064L375.843 200.077L361.939 156.541L361.978 156.528L375.869 200.064Z" fill="#A68272"/>
<path d="M375.869 200.064L375.843 200.077L361.939 158.379L361.978 158.366L375.869 200.064Z" fill="#A68272"/>
<path d="M360.159 161.124L360.123 161.139L375.828 200.1L375.864 200.086L360.159 161.124Z" fill="#A68272"/>
<path d="M375.869 200.064L375.843 200.077L357.383 164.797L357.409 164.771L375.869 200.064Z" fill="#A68272"/>
<path d="M375.869 200.064L375.843 200.077L357.383 166.622L357.409 166.608L375.869 200.064Z" fill="#A68272"/>
<path d="M386.797 200.051L375.856 200.051L375.856 200.077L386.797 200.077L386.797 200.051Z" fill="#A68272"/>
<path d="M386.796 200.038L386.796 200.091L315.004 197.334L315.004 197.295L386.796 200.038Z" fill="#A68272"/>
<path d="M364.705 168.026L364.672 168.049L386.785 200.118L386.817 200.095L364.705 168.026Z" fill="#A68272"/>
<path d="M372.923 159.733L372.886 159.746L386.775 200.066L386.812 200.054L372.923 159.733Z" fill="#A68272"/>
<path d="M372.923 159.733L372.886 159.746L386.775 200.066L386.812 200.054L372.923 159.733Z" fill="#A68272"/>
<path d="M386.797 200.051L386.784 200.077L369.237 189.538L369.25 189.512L386.797 200.051Z" fill="#A68272"/>
<path d="M386.81 200.077L352.395 252.315L352.369 252.288L386.784 200.051L386.81 200.077Z" fill="#A68272"/>
<path d="M386.81 200.077L334.627 268.813L334.587 268.786L386.77 200.051L386.81 200.077Z" fill="#A68272"/>
<path d="M386.81 200.091L306.819 253.234L306.792 253.194L386.784 200.038L386.81 200.091Z" fill="#A68272"/>
<path d="M386.797 200.091L289.024 214.751L289.024 214.712L386.784 200.038L386.797 200.091Z" fill="#A68272"/>
<path d="M386.797 200.038L386.797 200.09L298.136 191.388L298.149 191.336L386.797 200.038Z" fill="#A68272"/>
<path d="M386.797 200.037L386.784 200.09L316.375 189.551L316.375 189.498L386.797 200.037Z" fill="#A68272"/>
<path d="M334.147 196.551L334.145 196.59L386.812 199.912L386.814 199.872L334.147 196.551Z" fill="#A68272"/>
<path d="M386.797 200.077L340.528 210.63L340.528 210.59L386.784 200.051L386.797 200.077Z" fill="#A68272"/>
<path d="M386.823 200.077L320.5 313.267L320.448 313.228L386.77 200.051L386.823 200.077Z" fill="#A68272"/>
<path d="M386.823 200.077L316.858 315.551L316.806 315.525L386.771 200.051L386.823 200.077Z" fill="#A68272"/>
<path d="M386.823 200.078L364.72 304.539L364.667 304.539L386.771 200.064L386.823 200.078Z" fill="#A68272"/>
<path d="M386.768 200.059L345.061 325.151L345.111 325.168L386.817 200.075L386.768 200.059Z" fill="#A68272"/>
<path d="M386.81 200.077L320.957 295.391L320.905 295.365L386.771 200.051L386.81 200.077Z" fill="#A68272"/>
<path d="M386.81 200.077L328.7 275.69L328.661 275.664L386.771 200.051L386.81 200.077Z" fill="#A68272"/>
<path d="M386.81 200.077L332.799 270.191L332.76 270.165L386.771 200.051L386.81 200.077Z" fill="#A68272"/>
<path d="M386.81 200.077L335.541 267.435L335.501 267.408L386.771 200.051L386.81 200.077Z" fill="#A68272"/>
<path d="M386.81 200.077L337.812 266.07L337.773 266.03L386.77 200.051L386.81 200.077Z" fill="#A68272"/>
<path d="M386.782 200.066L346.898 259.177L346.93 259.199L386.814 200.089L386.782 200.066Z" fill="#A68272"/>
<path d="M386.81 200.077L352.395 250.477L352.369 250.464L386.784 200.051L386.81 200.077Z" fill="#A68272"/>
<path d="M386.81 200.077L356.495 223.453L356.469 223.426L386.784 200.051L386.81 200.077Z" fill="#A68272"/>
<path d="M386.797 200.051L386.783 200.078L351.011 193.213L351.024 193.174L386.797 200.051Z" fill="#A68272"/>
<path d="M338.254 167.514L338.232 167.547L386.779 200.083L386.8 200.05L338.254 167.514Z" fill="#A68272"/>
<path d="M386.81 200.051L386.783 200.077L319.547 152.893L319.573 152.854L386.81 200.051Z" fill="#A68272"/>
<path d="M386.809 200.038L386.783 200.091L298.123 146.475L298.149 146.436L386.809 200.038Z" fill="#A68272"/>
<path d="M386.81 200.038L386.784 200.09L274.428 148.312L274.454 148.26L386.81 200.038Z" fill="#A68272"/>
<path d="M386.823 200.078L354.693 332.036L354.628 332.023L386.771 200.064L386.823 200.078Z" fill="#A68272"/>
<path d="M386.823 200.078L365.634 316.457L365.568 316.444L386.771 200.064L386.823 200.078Z" fill="#A68272"/>
<path d="M386.823 200.064L375.19 290.798L375.151 290.798L386.77 200.064L386.823 200.064Z" fill="#A68272"/>
<path d="M385.009 199.635L374.504 254.107L374.542 254.115L385.047 199.642L385.009 199.635Z" fill="#A68272"/>
<path d="M386.81 200.078L374.277 225.737L374.25 225.724L386.784 200.064L386.81 200.078Z" fill="#A68272"/>
<path d="M386.796 200.077L365.15 203.752L365.137 203.713L386.796 200.051L386.796 200.077Z" fill="#A68272"/>
<path d="M386.797 200.051L386.783 200.078L348.727 184.052L348.74 184.013L386.797 200.051Z" fill="#A68272"/>
<path d="M386.797 200.051L386.784 200.09L330.501 174.431L330.515 174.392L386.797 200.051Z" fill="#A68272"/>
<path d="M386.797 200.037L386.784 200.09L306.335 174.43L306.348 174.378L386.797 200.037Z" fill="#A68272"/>
<path d="M386.797 200.038L386.784 200.09L278.997 179.93L278.997 179.878L386.797 200.038Z" fill="#A68272"/>
<path d="M386.797 200.038L386.784 200.091L264.414 183.593L264.414 183.54L386.797 200.038Z" fill="#A68272"/>
<path d="M386.797 200.038L386.784 200.091L322.746 183.133L322.759 183.094L386.797 200.038Z" fill="#A68272"/>
<path d="M386.796 200.091L259.857 238.127L259.844 238.074L386.783 200.038L386.796 200.091Z" fill="#A68272"/>
<path d="M386.797 200.091L270.798 238.127L270.785 238.074L386.784 200.038L386.797 200.091Z" fill="#A68272"/>
<path d="M386.796 200.091L283.109 238.127L283.096 238.074L386.783 200.038L386.796 200.091Z" fill="#A68272"/>
<path d="M386.796 200.091L298.606 237.208L298.58 237.156L386.783 200.038L386.796 200.091Z" fill="#A68272"/>
<path d="M386.797 200.091L306.362 236.289L306.335 236.25L386.784 200.038L386.797 200.091Z" fill="#A68272"/>
<path d="M386.796 200.091L312.275 233.992L312.262 233.953L386.783 200.038L386.796 200.091Z" fill="#A68272"/>
<path d="M386.797 200.091L318.203 230.331L318.19 230.291L386.784 200.038L386.797 200.091Z" fill="#A68272"/>
<path d="M386.797 200.09L322.302 226.668L322.289 226.616L386.783 200.051L386.797 200.09Z" fill="#A68272"/>
<path d="M386.796 200.09L326.858 219.791L326.845 219.751L386.783 200.051L386.796 200.09Z" fill="#A68272"/>
<path d="M386.797 200.09L334.144 202.374L334.144 202.335L386.797 200.051L386.797 200.09Z" fill="#A68272"/>
<path d="M386.797 200.051L386.784 200.09L334.144 179.93L334.157 179.891L386.797 200.051Z" fill="#A68272"/>
<path d="M386.81 200.051L386.784 200.077L331.402 159.298L331.428 159.271L386.81 200.051Z" fill="#A68272"/>
<path d="M386.81 200.051L386.783 200.077L325.475 146.934L325.501 146.895L386.81 200.051Z" fill="#A68272"/>
<path d="M386.81 200.051L386.784 200.077L320.461 140.975L320.488 140.936L386.81 200.051Z" fill="#A68272"/>
<path d="M386.81 200.051L386.784 200.077L311.792 135.476L311.832 135.437L386.81 200.051Z" fill="#A68272"/>
<path d="M386.81 200.051L386.784 200.09L301.766 131.814L301.805 131.774L386.81 200.051Z" fill="#A68272"/>
<path d="M293.175 128.088L293.144 128.13L386.763 200.14L386.795 200.098L293.175 128.088Z" fill="#A68272"/>
<path d="M386.809 200.038L386.783 200.09L285.812 127.233L285.851 127.181L386.809 200.038Z" fill="#A68272"/>
<path d="M386.81 200.038L386.784 200.091L277.613 123.572L277.652 123.52L386.81 200.038Z" fill="#A68272"/>
<path d="M386.797 200.091L263.043 226.669L263.043 226.616L386.784 200.038L386.797 200.091Z" fill="#A68272"/>
<path d="M386.787 200.066L273.066 239.008L273.083 239.058L386.804 200.116L386.787 200.066Z" fill="#A68272"/>
<path d="M386.81 200.091L281.282 245.451L281.269 245.411L386.784 200.038L386.81 200.091Z" fill="#A68272"/>
<path d="M386.81 200.091L287.209 249.126L287.196 249.073L386.784 200.038L386.81 200.091Z" fill="#A68272"/>
<path d="M386.81 200.091L293.593 250.95L293.567 250.911L386.784 200.038L386.81 200.091Z" fill="#A68272"/>
<path d="M386.81 200.077L317.302 252.774L317.276 252.748L386.784 200.051L386.81 200.077Z" fill="#A68272"/>
<path d="M386.81 200.077L323.229 248.193L323.203 248.154L386.784 200.051L386.81 200.077Z" fill="#A68272"/>
<path d="M386.81 200.077L331.885 238.573L331.859 238.533L386.784 200.051L386.81 200.077Z" fill="#A68272"/>
<path d="M386.797 200.077L340.541 223.453L340.515 223.413L386.784 200.051L386.797 200.077Z" fill="#A68272"/>
<path d="M386.796 200.051L386.796 200.077L350.554 197.334L350.554 197.295L386.796 200.051Z" fill="#A68272"/>
<path d="M386.81 200.051L386.783 200.077L351.912 170.297L351.938 170.271L386.81 200.051Z" fill="#A68272"/>
<path d="M351.174 149.657L351.142 149.68L386.165 200.491L386.197 200.469L351.174 149.657Z" fill="#A68272"/>
<path d="M386.81 200.05L386.771 200.077L345.528 135.475L345.567 135.449L386.81 200.05Z" fill="#A68272"/>
<path d="M386.81 200.051L386.771 200.077L338.23 126.761L338.269 126.734L386.81 200.051Z" fill="#A68272"/>
<path d="M386.81 200.051L386.771 200.077L329.117 120.343L329.156 120.316L386.81 200.051Z" fill="#A68272"/>
<path d="M386.81 200.051L386.77 200.077L319.547 117.599L319.587 117.573L386.81 200.051Z" fill="#A68272"/>
<path d="M386.81 200.051L386.771 200.077L309.064 118.978L309.103 118.938L386.81 200.051Z" fill="#A68272"/>
<path d="M386.81 200.051L386.783 200.091L299.037 122.64L299.076 122.601L386.81 200.051Z" fill="#A68272"/>
<path d="M386.81 200.037L386.784 200.09L289.925 128.598L289.951 128.559L386.81 200.037Z" fill="#A68272"/>
<path d="M386.81 200.051L386.784 200.09L304.051 137.773L304.077 137.733L386.81 200.051Z" fill="#A68272"/>
<path d="M304.562 138.653L304.531 138.695L386.787 200.109L386.819 200.067L304.562 138.653Z" fill="#A68272"/>
<path d="M305.902 139.607L305.871 139.649L386.818 200.085L386.849 200.043L305.902 139.607Z" fill="#A68272"/>
<path d="M386.81 200.051L386.783 200.091L307.249 141.435L307.275 141.396L386.81 200.051Z" fill="#A68272"/>
<path d="M310.938 145.965L310.908 146.008L386.77 200.126L386.8 200.084L310.938 145.965Z" fill="#A68272"/>
<path d="M386.81 200.05L386.784 200.09L317.276 154.717L317.302 154.69L386.81 200.05Z" fill="#A68272"/>
<path d="M386.81 200.051L386.783 200.077L325.018 163.432L325.044 163.393L386.81 200.051Z" fill="#A68272"/>
<path d="M330.954 168.898L330.935 168.933L386.773 200.074L386.792 200.04L330.954 168.898Z" fill="#A68272"/>
<path d="M386.797 200.051L386.784 200.077L335.058 172.593L335.071 172.554L386.797 200.051Z" fill="#A68272"/>
<path d="M339.795 175.927L339.777 175.962L386.638 200.413L386.656 200.378L339.795 175.927Z" fill="#A68272"/>
<path d="M386.797 200.051L386.784 200.077L345.998 182.673L346.011 182.634L386.797 200.051Z" fill="#A68272"/>
<path d="M386.797 200.051L386.784 200.077L351.925 189.091L351.938 189.052L386.797 200.051Z" fill="#A68272"/>
<path d="M386.797 200.051L386.784 200.077L356.482 192.294L356.495 192.255L386.797 200.051Z" fill="#A68272"/>
<path d="M361.557 192.114L361.545 192.151L386.74 200.249L386.752 200.212L361.557 192.114Z" fill="#A68272"/>
<path d="M386.796 200.051L386.783 200.077L367.879 192.294L367.879 192.255L386.796 200.051Z" fill="#A68272"/>
<path d="M386.823 200.064L386.77 200.064L375.151 97.8857L375.19 97.8857L386.823 200.064Z" fill="#A68272"/>
<path d="M386.823 200.064L386.771 200.077L358.74 102.926L358.792 102.913L386.823 200.064Z" fill="#A68272"/>
<path d="M386.823 200.064L386.771 200.077L353.727 102.479L353.779 102.453L386.823 200.064Z" fill="#A68272"/>
<path d="M386.81 200.038L386.784 200.09L279.441 120.356L279.467 120.316L386.81 200.038Z" fill="#A68272"/>
<path d="M386.81 200.038L386.784 200.09L286.961 133.415L286.987 133.376L386.81 200.038Z" fill="#A68272"/>
<path d="M294.499 147.108L294.473 147.153L386.782 200.064L386.808 200.019L294.499 147.108Z" fill="#A68272"/>
<path d="M386.797 200.038L386.783 200.091L306.1 161.595L306.126 161.556L386.797 200.038Z" fill="#A68272"/>
<path d="M386.797 200.038L386.784 200.09L315.683 171.911L315.696 171.858L386.797 200.038Z" fill="#A68272"/>
<path d="M386.797 200.051L386.784 200.091L325.253 178.776L325.266 178.736L386.797 200.051Z" fill="#A68272"/>
<path d="M336.807 186.716L336.797 186.754L386.915 199.728L386.924 199.69L336.807 186.716Z" fill="#A68272"/>
<path d="M386.797 200.051L386.784 200.078L349.876 193.213L349.876 193.174L386.797 200.051Z" fill="#A68272"/>
<path d="M386.797 200.051L386.784 200.078L358.753 193.213L358.766 193.174L386.797 200.051Z" fill="#A68272"/>
<path d="M386.797 200.051L386.784 200.077L364.916 191.834L364.916 191.795L386.797 200.051Z" fill="#A68272"/>
<path d="M386.797 200.051L386.784 200.077L371.065 191.835L371.078 191.809L386.797 200.051Z" fill="#A68272"/>
<path d="M386.823 200.064L386.771 200.077L374.459 116.221L374.512 116.208L386.823 200.064Z" fill="#A68272"/>
<path d="M386.823 200.064L386.771 200.077L373.102 116.904L373.141 116.891L386.823 200.064Z" fill="#A68272"/>
<path d="M386.823 200.064L386.771 200.077L373.102 116.904L373.141 116.891L386.823 200.064Z" fill="#A68272"/>
<path d="M386.81 200.064L386.784 200.077L372.879 162.959L372.905 162.946L386.81 200.064Z" fill="#A68272"/>
<path d="M386.81 200.064L386.784 200.077L369.237 159.297L369.263 159.284L386.81 200.064Z" fill="#A68272"/>
<path d="M386.81 200.064L386.784 200.077L365.582 159.297L365.621 159.284L386.81 200.064Z" fill="#A68272"/>
<path d="M386.81 200.051L386.784 200.077L363.767 159.298L363.793 159.271L386.81 200.051Z" fill="#A68272"/>
<path d="M386.81 200.051L386.784 200.077L360.111 159.298L360.15 159.271L386.81 200.051Z" fill="#A68272"/>
<path d="M386.81 200.05L386.784 200.077L356.469 162.04L356.508 162.027L386.81 200.05Z" fill="#A68272"/>
<path d="M386.81 200.051L386.784 200.077L356.469 162.96L356.508 162.934L386.81 200.051Z" fill="#A68272"/>
<path d="M386.81 200.051L386.784 200.077L356.469 162.96L356.508 162.934L386.81 200.051Z" fill="#A68272"/>
<path d="M386.81 200.051L386.784 200.077L356.469 165.716L356.508 165.689L386.81 200.051Z" fill="#A68272"/>
<path d="M386.81 200.051L386.784 200.077L356.469 169.378L356.495 169.352L386.81 200.051Z" fill="#A68272"/>
<path d="M386.81 200.051L386.784 200.077L357.383 172.134L357.409 172.107L386.81 200.051Z" fill="#A68272"/>
<path d="M386.81 200.051L386.784 200.077L358.296 175.796L358.322 175.77L386.81 200.051Z" fill="#A68272"/>
<path d="M386.81 200.051L386.784 200.077L358.296 179.458L358.322 179.432L386.81 200.051Z" fill="#A68272"/>
<path d="M386.797 200.051L386.784 200.077L358.296 182.214L358.322 182.188L386.797 200.051Z" fill="#A68272"/>
<path d="M386.797 200.051L386.784 200.077L359.21 184.957L359.223 184.931L386.797 200.051Z" fill="#A68272"/>
<path d="M386.797 200.051L386.784 200.077L361.952 188.632L361.965 188.593L386.797 200.051Z" fill="#A68272"/>
<path d="M386.797 200.051L386.784 200.077L364.681 194.131L364.694 194.092L386.797 200.051Z" fill="#A68272"/>
<path d="M386.797 200.051L386.797 200.077L368.336 197.793L368.336 197.754L386.797 200.051Z" fill="#A68272"/>
<path d="M386.797 200.051L386.797 200.078L372.893 197.794L372.893 197.768L386.797 200.051Z" fill="#A68272"/>
<path d="M386.81 200.064L386.77 200.077L375.608 160.204L375.647 160.19L386.81 200.064Z" fill="#A68272"/>
<path d="M386.81 200.065L386.77 200.078L375.608 159.285L375.647 159.285L386.81 200.065Z" fill="#A68272"/>
<path d="M372.014 155.627L371.977 155.64L386.762 200.09L386.799 200.077L372.014 155.627Z" fill="#A68272"/>
<path d="M386.81 200.065L386.77 200.078L370.138 154.705L370.177 154.691L386.81 200.065Z" fill="#A68272"/>
<path d="M367.603 155.01L367.567 155.026L387.528 199.739L387.563 199.723L367.603 155.01Z" fill="#A68272"/>
<path d="M386.81 200.065L386.784 200.078L364.667 154.718L364.707 154.691L386.81 200.065Z" fill="#A68272"/>
<path d="M386.809 200.065L386.783 200.078L362.853 154.718L362.879 154.691L386.809 200.065Z" fill="#A68272"/>
<path d="M386.809 200.065L386.783 200.078L362.853 154.718L362.879 154.691L386.809 200.065Z" fill="#A68272"/>
<path d="M386.81 200.051L386.784 200.077L361.939 156.541L361.978 156.528L386.81 200.051Z" fill="#A68272"/>
<path d="M386.81 200.051L386.784 200.077L361.939 156.541L361.978 156.528L386.81 200.051Z" fill="#A68272"/>
<path d="M386.81 200.051L386.784 200.077L361.939 158.379L361.978 158.366L386.81 200.051Z" fill="#A68272"/>
<path d="M386.81 200.051L386.784 200.078L360.111 161.136L360.15 161.109L386.81 200.051Z" fill="#A68272"/>
<path d="M386.81 200.051L386.784 200.077L357.383 164.797L357.409 164.771L386.81 200.051Z" fill="#A68272"/>
<path d="M386.81 200.051L386.784 200.077L357.383 166.635L357.409 166.608L386.81 200.051Z" fill="#A68272"/>
</g>
</svg>
