<svg width="378" height="378" viewBox="0 0 378 378" fill="none" xmlns="http://www.w3.org/2000/svg">
<mask id="mask0_87690_2241" style="mask-type:luminance" maskUnits="userSpaceOnUse" x="0" y="0" width="378" height="378">
<path d="M0 3.30458e-05L378 0L378 378L3.30458e-05 378L0 3.30458e-05Z" fill="white"/>
</mask>
<g mask="url(#mask0_87690_2241)">
<path d="M279.431 187.661L279.431 187.727L413.923 171.911L413.91 171.858L279.431 187.661Z" fill="#A68272"/>
<path d="M280.81 185.377L280.81 185.43L413.923 171.911L413.91 171.858L280.81 185.377Z" fill="#A68272"/>
<path d="M279.431 187.661L279.431 187.727L413.923 171.911L413.91 171.858L279.431 187.661Z" fill="#A68272"/>
<path d="M280.81 185.377L280.81 185.43L413.923 171.911L413.91 171.858L280.81 185.377Z" fill="#A68272"/>
<path d="M273.013 196.835L273.026 196.888L396.06 171.911L396.047 171.858L273.013 196.835Z" fill="#A68272"/>
<path d="M279.431 187.674L279.431 187.727L396.047 171.911L396.047 171.858L279.431 187.674Z" fill="#A68272"/>
<path d="M280.809 185.377L280.809 185.43L396.047 171.911L396.047 171.858L280.809 185.377Z" fill="#A68272"/>
<path d="M396.041 171.862L396.047 171.901L358.925 177.383L358.919 177.344L396.041 171.862Z" fill="#A68272"/>
<path d="M358.93 177.358L358.93 177.397L413.923 171.911L413.923 171.858L358.93 177.358Z" fill="#A68272"/>
<path d="M358.93 177.358L358.93 177.397L413.923 171.911L413.923 171.858L358.93 177.358Z" fill="#A68272"/>
<path d="M256.056 218.832L256.069 218.872L358.943 177.41L358.93 177.357L256.056 218.832Z" fill="#A68272"/>
<path d="M273.013 196.835L273.027 196.874L358.943 177.41L358.93 177.357L273.013 196.835Z" fill="#A68272"/>
<path d="M279.432 187.674L279.432 187.713L358.93 177.41L358.93 177.357L279.432 187.674Z" fill="#A68272"/>
<path d="M280.81 185.377L280.81 185.429L358.93 177.41L358.93 177.357L280.81 185.377Z" fill="#A68272"/>
<path d="M302.571 180.796L302.571 180.836L358.93 177.41L358.93 177.357L302.571 180.796Z" fill="#A68272"/>
<path d="M302.571 180.797L302.571 180.849L396.047 171.911L396.047 171.858L302.571 180.797Z" fill="#A68272"/>
<path d="M302.571 180.797L302.571 180.849L413.923 171.911L413.923 171.858L302.571 180.797Z" fill="#A68272"/>
<path d="M302.571 180.797L302.571 180.849L413.923 171.911L413.923 171.858L302.571 180.797Z" fill="#A68272"/>
<path d="M228.087 257.329L228.126 257.368L302.584 180.836L302.558 180.797L228.087 257.329Z" fill="#A68272"/>
<path d="M256.056 218.833L256.069 218.872L302.584 180.836L302.558 180.81L256.056 218.833Z" fill="#A68272"/>
<path d="M273.013 196.848L273.026 196.875L302.584 180.836L302.558 180.81L273.013 196.848Z" fill="#A68272"/>
<path d="M279.431 187.674L279.431 187.713L302.584 180.836L302.571 180.81L279.431 187.674Z" fill="#A68272"/>
<path d="M280.81 185.39L280.81 185.416L302.571 180.836L302.571 180.81L280.81 185.39Z" fill="#A68272"/>
<path d="M169.457 177.647L302.571 180.849L302.571 180.797L169.457 177.581L169.457 177.647Z" fill="#A68272"/>
<path d="M169.457 177.647L302.571 180.849L302.571 180.797L169.457 177.581L169.457 177.647Z" fill="#A68272"/>
<path d="M169.457 177.647L302.571 180.849L302.571 180.797L169.457 177.581L169.457 177.647Z" fill="#A68272"/>
<path d="M231.775 183.553L231.775 183.593L302.571 180.836L302.571 180.797L231.775 183.553Z" fill="#A68272"/>
<path d="M231.775 183.539L231.775 183.592L358.93 177.41L358.93 177.357L231.775 183.539Z" fill="#A68272"/>
<path d="M231.259 183.383L231.309 183.4L186.959 307.948L186.91 307.93L231.259 183.383Z" fill="#A68272"/>
<path d="M228.086 257.341L228.139 257.341L231.801 183.565L231.761 183.565L228.086 257.341Z" fill="#A68272"/>
<path d="M231.761 183.579L256.043 218.859L256.082 218.845L231.788 183.565L231.761 183.579Z" fill="#A68272"/>
<path d="M231.774 183.592L273.013 196.875L273.026 196.835L231.788 183.553L231.774 183.592Z" fill="#A68272"/>
<path d="M231.775 183.592L279.432 187.713L279.432 187.674L231.775 183.553L231.775 183.592Z" fill="#A68272"/>
<path d="M231.775 183.592L280.81 185.416L280.81 185.39L231.775 183.553L231.775 183.592Z" fill="#A68272"/>
<path d="M102.086 148.312L231.774 183.592L231.788 183.54L102.113 148.26L102.086 148.312Z" fill="#A68272"/>
<path d="M132.799 159.311L231.774 183.593L231.788 183.54L132.812 159.259L132.799 159.311Z" fill="#A68272"/>
<path d="M157.999 171.215L231.774 183.592L231.774 183.553L158.012 171.176L157.999 171.215Z" fill="#A68272"/>
<path d="M169.457 177.633L231.774 183.592L231.774 183.553L169.457 177.594L169.457 177.633Z" fill="#A68272"/>
<path d="M169.457 177.633L231.774 183.592L231.774 183.553L169.457 177.594L169.457 177.633Z" fill="#A68272"/>
<path d="M169.457 177.633L231.774 183.592L231.774 183.553L169.457 177.594L169.457 177.633Z" fill="#A68272"/>
<path d="M97.5188 179.93L231.774 183.592L231.774 183.54L97.5188 179.878L97.5188 179.93Z" fill="#A68272"/>
<path d="M112.179 183.54L231.774 183.54L231.774 183.593L112.179 183.593L112.179 183.54Z" fill="#A68272"/>
<path d="M175.849 302.701L175.901 302.728L231.801 183.579L231.748 183.553L175.849 302.701Z" fill="#A68272"/>
<path d="M231.174 183.241L231.221 183.265L176.474 292.449L176.427 292.426L231.174 183.241Z" fill="#A68272"/>
<path d="M174.93 282.988L174.983 283.014L231.801 183.579L231.748 183.553L174.93 282.988Z" fill="#A68272"/>
<path d="M174.471 275.205L174.523 275.231L231.801 183.579L231.761 183.553L174.471 275.205Z" fill="#A68272"/>
<path d="M172.646 268.327L172.686 268.353L231.801 183.579L231.761 183.553L172.646 268.327Z" fill="#A68272"/>
<path d="M171.728 262.368L171.767 262.395L231.801 183.592L231.761 183.553L171.728 262.368Z" fill="#A68272"/>
<path d="M168.985 258.247L169.024 258.273L231.801 183.592L231.761 183.553L168.985 258.247Z" fill="#A68272"/>
<path d="M167.606 255.95L167.646 255.99L231.801 183.592L231.761 183.553L167.606 255.95Z" fill="#A68272"/>
<path d="M165.323 254.126L165.349 254.152L231.801 183.592L231.761 183.553L165.323 254.126Z" fill="#A68272"/>
<path d="M161.188 250.91L161.228 250.95L231.801 183.592L231.761 183.553L161.188 250.91Z" fill="#A68272"/>
<path d="M155.689 249.073L155.728 249.112L231.788 183.592L231.761 183.553L155.689 249.073Z" fill="#A68272"/>
<path d="M145.163 244.951L145.189 244.991L231.788 183.592L231.761 183.553L145.163 244.951Z" fill="#A68272"/>
<path d="M130.961 240.371L130.988 240.41L231.788 183.592L231.761 183.553L130.961 240.371Z" fill="#A68272"/>
<path d="M116.747 238.074L116.773 238.127L231.788 183.593L231.761 183.54L116.747 238.074Z" fill="#A68272"/>
<path d="M105.748 238.074L105.774 238.127L231.788 183.593L231.761 183.54L105.748 238.074Z" fill="#A68272"/>
<path d="M152.04 166.635L231.774 183.593L231.788 183.553L152.053 166.596L152.04 166.635Z" fill="#A68272"/>
<path d="M152.04 166.635L231.774 183.593L231.788 183.553L152.053 166.596L152.04 166.635Z" fill="#A68272"/>
<path d="M149.756 170.756L231.774 183.592L231.774 183.553L149.756 170.717L149.756 170.756Z" fill="#A68272"/>
<path d="M141.501 185.378L141.501 185.43L231.774 183.593L231.774 183.54L141.501 185.378Z" fill="#A68272"/>
<path d="M232.024 184.642L232.035 184.693L127.071 206.755L127.06 206.704L232.024 184.642Z" fill="#A68272"/>
<path d="M113.544 226.616L113.571 226.669L231.788 183.593L231.761 183.54L113.544 226.616Z" fill="#A68272"/>
<path d="M154.114 187.674L154.114 187.713L231.774 183.592L231.774 183.553L154.114 187.674Z" fill="#A68272"/>
<path d="M69.5495 253.194L69.5757 253.233L154.127 187.713L154.088 187.674L69.5495 253.194Z" fill="#A68272"/>
<path d="M87.4257 214.711L87.4388 214.751L154.114 187.713L154.101 187.674L87.4257 214.711Z" fill="#A68272"/>
<path d="M78.2775 191.336L78.2775 191.388L154.114 187.713L154.114 187.674L78.2775 191.336Z" fill="#A68272"/>
<path d="M59.9419 189.498L59.9419 189.551L154.114 187.713L154.114 187.674L59.9419 189.498Z" fill="#A68272"/>
<path d="M42.0656 196.376L42.0788 196.428L154.114 187.726L154.101 187.674L42.0656 196.376Z" fill="#A68272"/>
<path d="M35.6475 210.577L35.6606 210.629L154.114 187.726L154.101 187.674L35.6475 210.577Z" fill="#A68272"/>
<path d="M154.088 187.701L186.388 307.755L186.441 307.742L154.127 187.688L154.088 187.701Z" fill="#A68272"/>
<path d="M154.088 187.713L228.1 257.368L228.126 257.328L154.127 187.674L154.088 187.713Z" fill="#A68272"/>
<path d="M154.101 187.713L256.056 218.872L256.069 218.833L154.114 187.674L154.101 187.713Z" fill="#A68272"/>
<path d="M154.101 187.727L273.013 196.888L273.013 196.836L154.114 187.661L154.101 187.727Z" fill="#A68272"/>
<path d="M154.114 187.661L279.432 187.661L279.432 187.714L154.114 187.714L154.114 187.661Z" fill="#A68272"/>
<path d="M154.114 187.661L154.114 187.726L280.81 185.429L280.81 185.377L154.114 187.661Z" fill="#A68272"/>
<path d="M25.1213 193.161L25.1213 193.226L154.114 187.727L154.114 187.661L25.1213 193.161Z" fill="#A68272"/>
<path d="M37.9444 167.567L154.101 187.727L154.114 187.674L37.9575 167.501L37.9444 167.567Z" fill="#A68272"/>
<path d="M56.7263 152.893L154.101 187.714L154.114 187.675L56.7394 152.841L56.7263 152.893Z" fill="#A68272"/>
<path d="M78.2644 146.475L154.101 187.714L154.114 187.674L78.2775 146.436L78.2644 146.475Z" fill="#A68272"/>
<path d="M102.086 148.299L154.101 187.713L154.127 187.674L102.113 148.272L102.086 148.299Z" fill="#A68272"/>
<path d="M132.786 159.298L154.088 187.7L154.127 187.687L132.812 159.271L132.786 159.298Z" fill="#A68272"/>
<path d="M154.088 187.687L154.127 187.7L158.025 171.202L157.986 171.202L154.088 187.687Z" fill="#A68272"/>
<path d="M154.101 187.687L154.114 187.713L169.47 177.633L169.444 177.594L154.101 187.687Z" fill="#A68272"/>
<path d="M154.101 187.687L154.114 187.713L169.47 177.633L169.444 177.594L154.101 187.687Z" fill="#A68272"/>
<path d="M154.101 187.687L154.114 187.713L169.47 177.633L169.444 177.594L154.101 187.687Z" fill="#A68272"/>
<path d="M27.405 184.052L154.114 187.727L154.114 187.661L27.405 183.999L27.405 184.052Z" fill="#A68272"/>
<path d="M45.7407 174.431L154.101 187.727L154.114 187.675L45.7407 174.379L45.7407 174.431Z" fill="#A68272"/>
<path d="M70.0219 174.431L154.101 187.714L154.114 187.675L70.035 174.379L70.0219 174.431Z" fill="#A68272"/>
<path d="M97.5188 179.93L154.101 187.713L154.114 187.674L97.5188 179.891L97.5188 179.93Z" fill="#A68272"/>
<path d="M112.172 183.539L154.101 187.665L154.097 187.704L112.168 183.578L112.172 183.539Z" fill="#A68272"/>
<path d="M53.5238 183.133L154.114 187.714L154.114 187.674L53.5369 183.094L53.5238 183.133Z" fill="#A68272"/>
<path d="M154.075 187.701L170.35 315.538L170.402 315.538L154.14 187.688L154.075 187.701Z" fill="#A68272"/>
<path d="M154.112 187.71L175.884 302.716L175.833 302.726L154.061 187.72L154.112 187.71Z" fill="#A68272"/>
<path d="M154.088 187.701L175.849 292.176L175.901 292.163L154.127 187.688L154.088 187.701Z" fill="#A68272"/>
<path d="M154.088 187.701L174.93 283.014L174.983 283.001L154.127 187.688L154.088 187.701Z" fill="#A68272"/>
<path d="M154.088 187.701L174.471 275.218L174.523 275.205L154.127 187.688L154.088 187.701Z" fill="#A68272"/>
<path d="M154.088 187.701L172.647 268.341L172.686 268.341L154.127 187.688L154.088 187.701Z" fill="#A68272"/>
<path d="M154.088 187.701L171.728 262.382L171.767 262.382L154.127 187.688L154.088 187.701Z" fill="#A68272"/>
<path d="M154.088 187.701L168.985 258.261L169.024 258.261L154.127 187.688L154.088 187.701Z" fill="#A68272"/>
<path d="M154.088 187.701L167.607 255.977L167.646 255.964L154.127 187.688L154.088 187.701Z" fill="#A68272"/>
<path d="M154.088 187.701L165.31 254.139L165.349 254.139L154.127 187.688L154.088 187.701Z" fill="#A68272"/>
<path d="M154.088 187.701L161.188 250.937L161.228 250.924L154.127 187.688L154.088 187.701Z" fill="#A68272"/>
<path d="M154.088 187.701L155.689 249.099L155.729 249.099L154.127 187.688L154.088 187.701Z" fill="#A68272"/>
<path d="M145.149 244.965L145.189 244.978L154.127 187.701L154.088 187.688L145.149 244.965Z" fill="#A68272"/>
<path d="M130.948 240.384L130.988 240.398L154.127 187.701L154.088 187.688L130.948 240.384Z" fill="#A68272"/>
<path d="M116.747 238.088L116.773 238.114L154.127 187.701L154.088 187.688L116.747 238.088Z" fill="#A68272"/>
<path d="M154.095 187.686L154.124 187.713L105.786 238.119L105.757 238.092L154.095 187.686Z" fill="#A68272"/>
<path d="M93.3845 238.087L93.4107 238.113L154.127 187.713L154.088 187.674L93.3845 238.087Z" fill="#A68272"/>
<path d="M77.8051 237.155L77.8313 237.208L154.127 187.713L154.101 187.674L77.8051 237.155Z" fill="#A68272"/>
<path d="M70.0088 236.249L70.0351 236.289L154.127 187.713L154.101 187.674L70.0088 236.249Z" fill="#A68272"/>
<path d="M64.0632 233.953L64.0763 233.992L154.114 187.713L154.101 187.674L64.0632 233.953Z" fill="#A68272"/>
<path d="M58.1044 230.291L58.1175 230.33L154.114 187.713L154.101 187.674L58.1044 230.291Z" fill="#A68272"/>
<path d="M53.97 226.616L53.9963 226.668L154.114 187.713L154.101 187.674L53.97 226.616Z" fill="#A68272"/>
<path d="M49.4025 219.751L49.4156 219.791L154.114 187.713L154.101 187.674L49.4025 219.751Z" fill="#A68272"/>
<path d="M42.0656 202.334L42.0788 202.387L154.114 187.726L154.101 187.674L42.0656 202.334Z" fill="#A68272"/>
<path d="M42.0788 179.93L154.101 187.727L154.114 187.674L42.0788 179.878L42.0788 179.93Z" fill="#A68272"/>
<path d="M44.8219 159.311L154.101 187.714L154.114 187.674L44.835 159.259L44.8219 159.311Z" fill="#A68272"/>
<path d="M50.7743 146.879L154.106 187.666L154.087 187.715L50.755 146.928L50.7743 146.879Z" fill="#A68272"/>
<path d="M55.8075 140.975L154.101 187.713L154.114 187.674L55.8338 140.936L55.8075 140.975Z" fill="#A68272"/>
<path d="M64.5095 135.476L154.101 187.713L154.127 187.674L64.5357 135.437L64.5095 135.476Z" fill="#A68272"/>
<path d="M74.5894 131.814L154.088 187.713L154.127 187.674L74.6157 131.774L74.5894 131.814Z" fill="#A68272"/>
<path d="M83.2913 128.14L154.088 187.714L154.127 187.675L83.3307 128.113L83.2913 128.14Z" fill="#A68272"/>
<path d="M90.6282 127.234L154.088 187.714L154.127 187.674L90.6676 127.194L90.6282 127.234Z" fill="#A68272"/>
<path d="M98.8707 123.558L154.088 187.713L154.127 187.674L98.9101 123.532L98.8707 123.558Z" fill="#A68272"/>
<path d="M152.027 166.622L154.088 187.7L154.127 187.687L152.066 166.608L152.027 166.622Z" fill="#A68272"/>
<path d="M152.027 166.622L154.088 187.7L154.127 187.687L152.066 166.608L152.027 166.622Z" fill="#A68272"/>
<path d="M149.743 170.743L154.088 187.701L154.127 187.688L149.769 170.743L149.743 170.743Z" fill="#A68272"/>
<path d="M141.501 185.417L154.101 187.714L154.114 187.674L141.514 185.391L141.501 185.417Z" fill="#A68272"/>
<path d="M127.286 207.834L127.313 207.873L154.114 187.713L154.101 187.674L127.286 207.834Z" fill="#A68272"/>
<path d="M153.731 187.34L153.758 187.368L113.93 227.058L113.902 227.03L153.731 187.34Z" fill="#A68272"/>
<path d="M103.464 238.993L103.491 239.032L154.127 187.713L154.088 187.674L103.464 238.993Z" fill="#A68272"/>
<path d="M95.2088 245.411L95.2351 245.45L154.127 187.713L154.088 187.674L95.2088 245.411Z" fill="#A68272"/>
<path d="M89.2501 249.073L89.2895 249.112L154.127 187.713L154.088 187.674L89.2501 249.073Z" fill="#A68272"/>
<path d="M82.832 250.91L82.8714 250.949L154.127 187.713L154.088 187.674L82.832 250.91Z" fill="#A68272"/>
<path d="M59.0101 252.734L59.0363 252.787L154.127 187.713L154.088 187.674L59.0101 252.734Z" fill="#A68272"/>
<path d="M53.0513 248.154L53.0776 248.206L154.127 187.713L154.101 187.674L53.0513 248.154Z" fill="#A68272"/>
<path d="M44.3494 238.533L44.3756 238.586L154.114 187.713L154.101 187.674L44.3494 238.533Z" fill="#A68272"/>
<path d="M35.6475 223.413L35.6606 223.466L154.114 187.726L154.101 187.674L35.6475 223.413Z" fill="#A68272"/>
<path d="M25.5806 197.295L25.5806 197.347L154.114 187.727L154.101 187.661L25.5806 197.295Z" fill="#A68272"/>
<path d="M24.2025 170.309L154.101 187.726L154.114 187.661L24.2025 170.257L24.2025 170.309Z" fill="#A68272"/>
<path d="M25.5675 150.149L154.101 187.726L154.114 187.66L25.5806 150.097L25.5675 150.149Z" fill="#A68272"/>
<path d="M30.6075 135.476L154.101 187.727L154.114 187.674L30.6338 135.437L30.6075 135.476Z" fill="#A68272"/>
<path d="M37.968 126.754L154.127 187.688L154.103 187.734L37.9436 126.801L37.968 126.754Z" fill="#A68272"/>
<path d="M47.0926 120.356L154.088 187.713L154.127 187.674L47.132 120.316L47.0926 120.356Z" fill="#A68272"/>
<path d="M56.7263 117.613L154.088 187.714L154.127 187.674L56.7526 117.561L56.7263 117.613Z" fill="#A68272"/>
<path d="M67.2526 118.978L154.088 187.713L154.127 187.674L67.2919 118.938L67.2526 118.978Z" fill="#A68272"/>
<path d="M77.3457 122.64L154.088 187.713L154.127 187.674L77.3719 122.613L77.3457 122.64Z" fill="#A68272"/>
<path d="M86.507 128.598L154.088 187.713L154.127 187.674L86.5332 128.559L86.507 128.598Z" fill="#A68272"/>
<path d="M72.3057 137.773L154.101 187.713L154.127 187.674L72.3319 137.733L72.3057 137.773Z" fill="#A68272"/>
<path d="M71.8463 138.692L154.101 187.714L154.127 187.675L71.8726 138.64L71.8463 138.692Z" fill="#A68272"/>
<path d="M70.4682 139.597L154.101 187.713L154.127 187.674L70.4945 139.558L70.4682 139.597Z" fill="#A68272"/>
<path d="M69.1194 141.384L154.118 187.669L154.093 187.715L69.0943 141.43L69.1194 141.384Z" fill="#A68272"/>
<path d="M65.4282 146.015L154.101 187.713L154.114 187.674L65.4544 145.976L65.4282 146.015Z" fill="#A68272"/>
<path d="M59.0231 154.73L154.101 187.713L154.114 187.674L59.0362 154.678L59.0231 154.73Z" fill="#A68272"/>
<path d="M51.2269 163.432L154.101 187.714L154.114 187.674L51.24 163.38L51.2269 163.432Z" fill="#A68272"/>
<path d="M45.2813 168.931L154.101 187.726L154.114 187.674L45.2813 168.879L45.2813 168.931Z" fill="#A68272"/>
<path d="M41.16 172.593L154.101 187.726L154.114 187.674L41.16 172.554L41.16 172.593Z" fill="#A68272"/>
<path d="M36.5725 176.199L154.101 187.66L154.095 187.712L36.5674 176.251L36.5725 176.199Z" fill="#A68272"/>
<path d="M30.1612 182.687L154.114 187.727L154.114 187.661L30.1612 182.621L30.1612 182.687Z" fill="#A68272"/>
<path d="M24.2025 189.039L24.2025 189.092L154.114 187.727L154.114 187.661L24.2025 189.039Z" fill="#A68272"/>
<path d="M19.6219 192.242L19.6219 192.307L154.114 187.727L154.114 187.661L19.6219 192.242Z" fill="#A68272"/>
<path d="M100.472 79.1044L154.088 187.701L154.127 187.688L100.524 79.0781L100.472 79.1044Z" fill="#A68272"/>
<path d="M103.911 92.163L154.088 187.7L154.127 187.687L103.963 92.1367L103.911 92.163Z" fill="#A68272"/>
<path d="M103.911 102.479L154.088 187.7L154.127 187.687L103.95 102.453L103.911 102.479Z" fill="#A68272"/>
<path d="M102.533 107.283L154.088 187.713L154.127 187.687L102.585 107.257L102.533 107.283Z" fill="#A68272"/>
<path d="M99.7895 112.796L154.088 187.714L154.127 187.687L99.8288 112.757L99.7895 112.796Z" fill="#A68272"/>
<path d="M97.0463 120.343L154.088 187.713L154.127 187.674L97.0726 120.316L97.0463 120.343Z" fill="#A68272"/>
<path d="M89.4863 133.415L154.088 187.713L154.127 187.674L89.5126 133.376L89.4863 133.415Z" fill="#A68272"/>
<path d="M81.9263 147.158L154.101 187.714L154.114 187.674L81.9525 147.118L81.9263 147.158Z" fill="#A68272"/>
<path d="M70.245 161.595L154.101 187.714L154.114 187.674L70.2581 161.556L70.245 161.595Z" fill="#A68272"/>
<path d="M60.6244 171.911L154.101 187.713L154.114 187.674L60.6375 171.858L60.6244 171.911Z" fill="#A68272"/>
<path d="M51.0038 178.789L154.101 187.714L154.114 187.674L51.0169 178.736L51.0038 178.789Z" fill="#A68272"/>
<path d="M39.3225 186.348L154.114 187.727L154.114 187.674L39.3225 186.296L39.3225 186.348Z" fill="#A68272"/>
<path d="M26.2632 193.161L26.2632 193.226L154.114 187.727L154.114 187.661L26.2632 193.161Z" fill="#A68272"/>
<path d="M17.325 193.161L17.325 193.226L154.114 187.727L154.114 187.661L17.325 193.161Z" fill="#A68272"/>
<path d="M19.6088 162.067L154.101 187.727L154.114 187.661L19.6219 162.015L19.6088 162.067Z" fill="#A68272"/>
<path d="M19.6235 162.957L154.118 187.689L154.108 187.741L19.614 163.008L19.6235 162.957Z" fill="#A68272"/>
<path d="M19.6235 162.957L154.118 187.689L154.108 187.741L19.614 163.008L19.6235 162.957Z" fill="#A68272"/>
<path d="M19.6088 165.729L154.101 187.727L154.114 187.661L19.6219 165.677L19.6088 165.729Z" fill="#A68272"/>
<path d="M19.6112 169.34L154.107 187.668L154.1 187.72L19.6042 169.392L19.6112 169.34Z" fill="#A68272"/>
<path d="M18.7032 172.147L154.101 187.726L154.114 187.66L18.7032 172.081L18.7032 172.147Z" fill="#A68272"/>
<path d="M17.7965 175.765L154.119 187.668L154.115 187.72L17.792 175.818L17.7965 175.765Z" fill="#A68272"/>
<path d="M17.7844 179.47L154.101 187.726L154.114 187.66L17.7844 179.418L17.7844 179.47Z" fill="#A68272"/>
<path d="M17.7844 182.227L154.114 187.726L154.114 187.661L17.7844 182.161L17.7844 182.227Z" fill="#A68272"/>
<path d="M16.8657 184.97L154.114 187.727L154.114 187.661L16.8657 184.918L16.8657 184.97Z" fill="#A68272"/>
<path d="M18.69 164.81L154.101 187.727L154.114 187.661L18.7032 164.758L18.69 164.81Z" fill="#A68272"/>
<path d="M18.7032 166.648L154.101 187.726L154.114 187.661L18.7032 166.582L18.7032 166.648Z" fill="#A68272"/>
<path d="M61.32 197.294L61.32 197.334L154.114 187.713L154.101 187.674L61.32 197.294Z" fill="#A68272"/>
<path d="M11.3667 168.013L61.3073 197.334L61.3335 197.295L11.3797 167.974L11.3667 168.013Z" fill="#A68272"/>
<path d="M3.11101 159.757L61.3073 197.334L61.3335 197.295L3.13725 159.718L3.11101 159.757Z" fill="#A68272"/>
<path d="M3.11101 159.757L61.3073 197.334L61.3335 197.295L3.13725 159.718L3.11101 159.757Z" fill="#A68272"/>
<path d="M6.78592 189.551L61.3203 197.334L61.3203 197.295L6.79906 189.512L6.78592 189.551Z" fill="#A68272"/>
<path d="M23.7304 252.288L23.7567 252.315L61.3335 197.334L61.2941 197.308L23.7304 252.288Z" fill="#A68272"/>
<path d="M41.5936 268.799L41.633 268.799L61.3467 197.321L61.2942 197.308L41.5936 268.799Z" fill="#A68272"/>
<path d="M61.2939 197.321L69.5495 253.22L69.5889 253.22L61.3332 197.308L61.2939 197.321Z" fill="#A68272"/>
<path d="M61.3072 197.334L87.4259 214.738L87.4521 214.712L61.3334 197.295L61.3072 197.334Z" fill="#A68272"/>
<path d="M61.3203 197.294L61.3203 197.334L78.2778 191.375L78.2647 191.349L61.3203 197.294Z" fill="#A68272"/>
<path d="M59.9292 189.524L61.3073 197.321L61.3335 197.321L59.9554 189.524L59.9292 189.524Z" fill="#A68272"/>
<path d="M42.0791 196.415L61.3203 197.334L61.3203 197.294L42.0791 196.389L42.0791 196.415Z" fill="#A68272"/>
<path d="M35.6478 210.591L35.6741 210.617L61.3203 197.334L61.3072 197.295L35.6478 210.591Z" fill="#A68272"/>
<path d="M55.7944 313.241L55.8468 313.241L61.3462 197.321L61.2937 197.321L55.7944 313.241Z" fill="#A68272"/>
<path d="M59.4562 315.538L59.5087 315.538L61.3462 197.321L61.2937 197.321L59.4562 315.538Z" fill="#A68272"/>
<path d="M61.2941 197.321L65.8748 321.956L65.9273 321.956L61.3466 197.321L61.2941 197.321Z" fill="#A68272"/>
<path d="M-17.9677 252.748L-17.9415 252.787L61.3335 197.334L61.3073 197.295L-17.9677 252.748Z" fill="#A68272"/>
<path d="M-17.049 254.113L-17.0227 254.152L61.3335 197.334L61.3073 197.295L-17.049 254.113Z" fill="#A68272"/>
<path d="M-6.52272 274.746L-6.48335 274.772L61.3335 197.334L61.2941 197.295L-6.52272 274.746Z" fill="#A68272"/>
<path d="M11.3404 304.526L11.3929 304.552L61.3467 197.334L61.2942 197.308L11.3404 304.526Z" fill="#A68272"/>
<path d="M31.0542 325.158L31.1067 325.171L61.3467 197.321L61.2942 197.308L31.0542 325.158Z" fill="#A68272"/>
<path d="M44.3367 332.036L44.3892 332.036L61.3467 197.321L61.2942 197.308L44.3367 332.036Z" fill="#A68272"/>
<path d="M53.0381 331.577L53.1037 331.577L61.3462 197.321L61.2937 197.321L53.0381 331.577Z" fill="#A68272"/>
<path d="M58.0781 328.821L58.1437 328.834L61.3462 197.321L61.2937 197.321L58.0781 328.821Z" fill="#A68272"/>
<path d="M59.9156 318.741L59.9681 318.741L61.3462 197.321L61.2937 197.321L59.9156 318.741Z" fill="#A68272"/>
<path d="M55.335 295.378L55.3874 295.378L61.3462 197.321L61.2937 197.321L55.335 295.378Z" fill="#A68272"/>
<path d="M47.5523 275.664L47.5917 275.677L61.3467 197.321L61.2942 197.308L47.5523 275.664Z" fill="#A68272"/>
<path d="M43.4311 270.164L43.4704 270.178L61.3467 197.321L61.2942 197.308L43.4311 270.164Z" fill="#A68272"/>
<path d="M40.6748 267.421L40.7142 267.434L61.3467 197.321L61.2942 197.308L40.6748 267.421Z" fill="#A68272"/>
<path d="M38.391 266.043L38.4304 266.056L61.3335 197.321L61.2941 197.308L38.391 266.043Z" fill="#A68272"/>
<path d="M29.2298 259.166L29.2691 259.192L61.3335 197.321L61.2941 197.308L29.2298 259.166Z" fill="#A68272"/>
<path d="M23.7304 250.451L23.7567 250.477L61.3335 197.334L61.2941 197.308L23.7304 250.451Z" fill="#A68272"/>
<path d="M19.6092 223.414L19.6354 223.453L61.3335 197.334L61.3073 197.295L19.6092 223.414Z" fill="#A68272"/>
<path d="M25.1215 193.213L61.3203 197.334L61.3203 197.295L25.1215 193.174L25.1215 193.213Z" fill="#A68272"/>
<path d="M37.9316 167.54L61.3073 197.334L61.3335 197.308L37.971 167.527L37.9316 167.54Z" fill="#A68272"/>
<path d="M56.7385 152.882L61.3232 197.323L61.2841 197.327L56.6993 152.886L56.7385 152.882Z" fill="#A68272"/>
<path d="M61.2941 197.308L61.3335 197.321L78.291 146.461L78.2516 146.448L61.2941 197.308Z" fill="#A68272"/>
<path d="M61.3072 197.307L61.3334 197.334L102.113 148.299L102.087 148.272L61.3072 197.307Z" fill="#A68272"/>
<path d="M61.307 197.295L61.3332 197.334L132.812 159.311L132.786 159.259L61.307 197.295Z" fill="#A68272"/>
<path d="M61.3072 197.295L61.3203 197.334L158.012 171.228L157.999 171.176L61.3072 197.295Z" fill="#A68272"/>
<path d="M61.3202 197.294L61.3202 197.347L169.457 177.633L169.457 177.594L61.3202 197.294Z" fill="#A68272"/>
<path d="M61.3202 197.294L61.3202 197.347L169.457 177.633L169.457 177.594L61.3202 197.294Z" fill="#A68272"/>
<path d="M61.3202 197.294L61.3202 197.347L169.457 177.633L169.457 177.594L61.3202 197.294Z" fill="#A68272"/>
<path d="M10.4348 316.443L10.4873 316.469L61.3467 197.321L61.2942 197.308L10.4348 316.443Z" fill="#A68272"/>
<path d="M0.81419 290.784L0.853562 290.811L61.3467 197.334L61.2942 197.295L0.81419 290.784Z" fill="#A68272"/>
<path d="M-0.0914867 254.572L-0.065253 254.612L61.3335 197.334L61.3073 197.295L-0.0914867 254.572Z" fill="#A68272"/>
<path d="M1.746 225.711L1.75914 225.75L61.3335 197.334L61.3073 197.295L1.746 225.711Z" fill="#A68272"/>
<path d="M10.9072 203.713L10.9203 203.752L61.3203 197.334L61.3203 197.295L10.9072 203.713Z" fill="#A68272"/>
<path d="M27.4053 184.039L61.3072 197.335L61.3203 197.295L27.4184 184.013L27.4053 184.039Z" fill="#A68272"/>
<path d="M45.7279 174.418L61.3073 197.321L61.3335 197.308L45.7541 174.392L45.7279 174.418Z" fill="#A68272"/>
<path d="M61.3071 197.307L61.3333 197.321L70.0483 174.404L70.009 174.404L61.3071 197.307Z" fill="#A68272"/>
<path d="M61.3072 197.294L61.3204 197.334L97.5322 179.917L97.5191 179.891L61.3072 197.294Z" fill="#A68272"/>
<path d="M61.3203 197.295L61.3203 197.334L112.18 183.592L112.18 183.553L61.3203 197.295Z" fill="#A68272"/>
<path d="M53.511 183.12L61.3073 197.321L61.3335 197.308L53.5504 183.106L53.511 183.12Z" fill="#A68272"/>
<path d="M61.3071 197.334L174.484 275.244L174.51 275.192L61.3334 197.295L61.3071 197.334Z" fill="#A68272"/>
<path d="M61.3073 197.334L172.647 268.367L172.686 268.314L61.3335 197.295L61.3073 197.334Z" fill="#A68272"/>
<path d="M61.3071 197.334L171.741 262.408L171.767 262.356L61.3333 197.295L61.3071 197.334Z" fill="#A68272"/>
<path d="M61.307 197.334L168.985 258.287L169.011 258.234L61.3332 197.295L61.307 197.334Z" fill="#A68272"/>
<path d="M61.3072 197.334L167.62 255.99L167.633 255.951L61.3334 197.295L61.3072 197.334Z" fill="#A68272"/>
<path d="M61.3072 197.334L165.323 254.166L165.349 254.113L61.3335 197.295L61.3072 197.334Z" fill="#A68272"/>
<path d="M61.3069 197.334L161.201 250.95L161.228 250.911L61.3332 197.295L61.3069 197.334Z" fill="#A68272"/>
<path d="M61.3073 197.334L155.702 249.126L155.729 249.073L61.3335 197.295L61.3073 197.334Z" fill="#A68272"/>
<path d="M61.3071 197.334L145.163 244.991L145.189 244.952L61.3333 197.295L61.3071 197.334Z" fill="#A68272"/>
<path d="M61.3071 197.334L130.961 240.411L130.975 240.371L61.3334 197.295L61.3071 197.334Z" fill="#A68272"/>
<path d="M61.3072 197.334L116.747 238.114L116.773 238.087L61.3334 197.295L61.3072 197.334Z" fill="#A68272"/>
<path d="M61.3294 197.276L105.775 238.061L105.749 238.09L61.3028 197.305L61.3294 197.276Z" fill="#A68272"/>
<path d="M61.3069 197.334L93.3713 238.113L93.4106 238.087L61.3331 197.308L61.3069 197.334Z" fill="#A68272"/>
<path d="M61.294 197.321L77.7922 237.194L77.8315 237.181L61.3334 197.308L61.294 197.321Z" fill="#A68272"/>
<path d="M61.2939 197.321L70.009 236.263L70.0483 236.263L61.3333 197.308L61.2939 197.321Z" fill="#A68272"/>
<path d="M61.2937 197.321L64.05 233.979L64.0894 233.979L61.3331 197.321L61.2937 197.321Z" fill="#A68272"/>
<path d="M58.0917 230.304L58.131 230.304L61.3335 197.321L61.2941 197.321L58.0917 230.304Z" fill="#A68272"/>
<path d="M53.9704 226.642L53.9966 226.642L61.3335 197.321L61.3073 197.308L53.9704 226.642Z" fill="#A68272"/>
<path d="M49.3898 219.764L49.416 219.778L61.3335 197.321L61.3073 197.308L49.3898 219.764Z" fill="#A68272"/>
<path d="M42.0659 202.335L42.0791 202.374L61.3203 197.334L61.3203 197.295L42.0659 202.335Z" fill="#A68272"/>
<path d="M42.0897 179.924L61.3335 197.33L61.3071 197.359L42.0633 179.953L42.0897 179.924Z" fill="#A68272"/>
<path d="M44.8091 159.284L61.2941 197.32L61.3335 197.307L44.8354 159.284L44.8091 159.284Z" fill="#A68272"/>
<path d="M50.8036 146.899L61.3418 197.299L61.3033 197.307L50.7651 146.907L50.8036 146.899Z" fill="#A68272"/>
<path d="M55.7948 140.962L61.2941 197.321L61.3335 197.321L55.8473 140.949L55.7948 140.962Z" fill="#A68272"/>
<path d="M61.2938 197.32L61.3332 197.32L64.5488 135.449L64.5095 135.449L61.2938 197.32Z" fill="#A68272"/>
<path d="M61.2939 197.308L61.3333 197.321L74.6289 131.801L74.5895 131.788L61.2939 197.308Z" fill="#A68272"/>
<path d="M61.2942 197.308L61.3335 197.321L83.3311 128.126L83.2917 128.113L61.2942 197.308Z" fill="#A68272"/>
<path d="M61.2942 197.308L61.3336 197.321L90.668 127.22L90.6286 127.207L61.2942 197.308Z" fill="#A68272"/>
<path d="M61.2939 197.308L61.3333 197.321L98.9102 123.558L98.8708 123.532L61.2939 197.308Z" fill="#A68272"/>
<path d="M61.307 197.295L61.3201 197.334L152.053 166.635L152.04 166.596L61.307 197.295Z" fill="#A68272"/>
<path d="M61.307 197.295L61.3201 197.334L152.053 166.635L152.04 166.596L61.307 197.295Z" fill="#A68272"/>
<path d="M61.307 197.295L61.3201 197.334L149.756 170.769L149.743 170.717L61.307 197.295Z" fill="#A68272"/>
<path d="M141.699 186.871L141.704 186.91L61.1263 195.863L61.122 195.824L141.699 186.871Z" fill="#A68272"/>
<path d="M61.3204 197.334L127.3 207.874L127.3 207.834L61.3204 197.295L61.3204 197.334Z" fill="#A68272"/>
<path d="M61.307 197.334L113.545 226.656L113.571 226.629L61.3333 197.295L61.307 197.334Z" fill="#A68272"/>
<path d="M61.307 197.334L103.464 239.032L103.491 239.006L61.3332 197.295L61.307 197.334Z" fill="#A68272"/>
<path d="M61.3073 197.334L95.2092 245.437L95.2485 245.424L61.3335 197.308L61.3073 197.334Z" fill="#A68272"/>
<path d="M61.2939 197.321L89.2502 249.099L89.2896 249.086L61.3333 197.308L61.2939 197.321Z" fill="#A68272"/>
<path d="M61.2941 197.321L82.8322 250.936L82.8716 250.923L61.3334 197.308L61.2941 197.321Z" fill="#A68272"/>
<path d="M59.0104 252.761L59.0498 252.761L61.3335 197.321L61.2941 197.321L59.0104 252.761Z" fill="#A68272"/>
<path d="M61.3586 197.342L61.3975 197.349L53.0702 248.2L53.0314 248.194L61.3586 197.342Z" fill="#A68272"/>
<path d="M44.3498 238.546L44.376 238.559L61.3335 197.321L61.2941 197.308L44.3498 238.546Z" fill="#A68272"/>
<path d="M35.6479 223.426L35.6741 223.453L61.3335 197.334L61.3073 197.308L35.6479 223.426Z" fill="#A68272"/>
<path d="M25.5809 197.295L61.3203 197.295L61.3203 197.334L25.5809 197.334L25.5809 197.295Z" fill="#A68272"/>
<path d="M24.1898 170.297L61.3073 197.334L61.3335 197.295L24.216 170.271L24.1898 170.297Z" fill="#A68272"/>
<path d="M25.5548 150.137L61.3073 197.334L61.3335 197.308L25.5941 150.11L25.5548 150.137Z" fill="#A68272"/>
<path d="M30.5948 135.462L61.2941 197.32L61.3335 197.307L30.6341 135.449L30.5948 135.462Z" fill="#A68272"/>
<path d="M37.9316 126.761L61.2941 197.321L61.3335 197.308L37.971 126.748L37.9316 126.761Z" fill="#A68272"/>
<path d="M47.0929 120.342L61.2942 197.32L61.3467 197.307L47.1323 120.329L47.0929 120.342Z" fill="#A68272"/>
<path d="M56.7136 117.587L61.2942 197.321L61.3467 197.321L56.7529 117.587L56.7136 117.587Z" fill="#A68272"/>
<path d="M61.2939 197.321L61.3464 197.321L67.292 118.965L67.2526 118.965L61.2939 197.321Z" fill="#A68272"/>
<path d="M61.294 197.307L61.3465 197.32L77.3721 122.626L77.3327 122.626L61.294 197.307Z" fill="#A68272"/>
<path d="M61.2938 197.308L61.3332 197.321L86.5332 128.585L86.4938 128.572L61.2938 197.308Z" fill="#A68272"/>
<path d="M61.2939 197.307L61.3333 197.32L72.332 137.746L72.2927 137.746L61.2939 197.307Z" fill="#A68272"/>
<path d="M61.2938 197.308L61.3332 197.321L71.8726 138.665L71.8331 138.665L61.2938 197.308Z" fill="#A68272"/>
<path d="M70.4123 139.546L70.4512 139.552L61.3768 197.302L61.3379 197.296L70.4123 139.546Z" fill="#A68272"/>
<path d="M61.2938 197.308L61.3331 197.321L69.1294 141.421L69.09 141.408L61.2938 197.308Z" fill="#A68272"/>
<path d="M61.294 197.321L61.3334 197.321L65.4678 146.002L65.4284 145.989L61.294 197.321Z" fill="#A68272"/>
<path d="M59.0104 154.704L61.2941 197.321L61.3335 197.321L59.0498 154.704L59.0104 154.704Z" fill="#A68272"/>
<path d="M51.2141 163.419L61.2941 197.321L61.3335 197.308L51.2535 163.406L51.2141 163.419Z" fill="#A68272"/>
<path d="M45.2685 168.918L61.3073 197.321L61.3335 197.308L45.2948 168.905L45.2685 168.918Z" fill="#A68272"/>
<path d="M41.1473 172.581L61.3073 197.334L61.3335 197.308L41.1735 172.567L41.1473 172.581Z" fill="#A68272"/>
<path d="M36.5908 176.219L61.3379 197.303L61.3123 197.333L36.5653 176.249L36.5908 176.219Z" fill="#A68272"/>
<path d="M30.1484 182.673L61.3072 197.334L61.3203 197.294L30.1615 182.634L30.1484 182.673Z" fill="#A68272"/>
<path d="M24.2028 189.091L61.3203 197.334L61.3203 197.294L24.2028 189.052L24.2028 189.091Z" fill="#A68272"/>
<path d="M19.6222 192.294L61.3203 197.334L61.3203 197.295L19.6222 192.255L19.6222 192.294Z" fill="#A68272"/>
<path d="M14.5822 192.294L61.3203 197.334L61.3203 197.295L14.5822 192.255L14.5822 192.294Z" fill="#A68272"/>
<path d="M8.16407 192.294L61.3203 197.334L61.3203 197.295L8.16407 192.255L8.16407 192.294Z" fill="#A68272"/>
<path d="M-0.9972 192.294L61.3203 197.334L61.3203 197.295L-0.9972 192.255L-0.9972 192.294Z" fill="#A68272"/>
<path d="M-11.5366 191.388L61.3203 197.334L61.3203 197.295L-11.5366 191.336L-11.5366 191.388Z" fill="#A68272"/>
<path d="M-25.2916 189.092L61.3203 197.334L61.3203 197.295L-25.2785 189.039L-25.2916 189.092Z" fill="#A68272"/>
<path d="M-37.6553 186.794L61.3203 197.334L61.3203 197.294L-37.6553 186.755L-37.6553 186.794Z" fill="#A68272"/>
<path d="M-50.9509 178.553L61.3203 197.347L61.3203 197.295L-50.9378 178.5L-50.9509 178.553Z" fill="#A68272"/>
<path d="M-55.5315 170.769L61.3072 197.347L61.3203 197.295L-55.5185 170.717L-55.5315 170.769Z" fill="#A68272"/>
<path d="M-56.4503 161.608L61.3072 197.348L61.3203 197.295L-56.4372 161.556L-56.4503 161.608Z" fill="#A68272"/>
<path d="M-56.4502 146.934L61.3073 197.347L61.3335 197.295L-56.4371 146.895L-56.4502 146.934Z" fill="#A68272"/>
<path d="M-52.329 129.058L61.3073 197.334L61.3335 197.295L-52.3027 129.019L-52.329 129.058Z" fill="#A68272"/>
<path d="M-45.924 112.114L61.2941 197.335L61.3335 197.295L-45.8846 112.062L-45.924 112.114Z" fill="#A68272"/>
<path d="M-25.7639 94.2376L61.2942 197.335L61.3467 197.295L-25.7246 94.1982L-25.7639 94.2376Z" fill="#A68272"/>
<path d="M-14.2646 95.5618L61.3413 197.291L61.2992 197.322L-14.3067 95.5931L-14.2646 95.5618Z" fill="#A68272"/>
<path d="M0.814182 97.8993L61.2942 197.334L61.3467 197.308L0.853554 97.8731L0.814182 97.8993Z" fill="#A68272"/>
<path d="M17.2992 102.939L61.2942 197.321L61.3467 197.308L17.3517 102.913L17.2992 102.939Z" fill="#A68272"/>
<path d="M22.3392 102.479L61.2942 197.321L61.3467 197.308L22.3917 102.453L22.3392 102.479Z" fill="#A68272"/>
<path d="M61.2938 197.308L61.3463 197.321L90.9038 65.3491L90.8513 65.3359L61.2938 197.308Z" fill="#A68272"/>
<path d="M61.2938 197.308L61.3463 197.321L100.524 79.1039L100.472 79.0908L61.2938 197.308Z" fill="#A68272"/>
<path d="M61.294 197.308L61.3465 197.321L103.963 92.1635L103.911 92.1504L61.294 197.308Z" fill="#A68272"/>
<path d="M61.294 197.308L61.3465 197.321L103.963 102.479L103.911 102.453L61.294 197.308Z" fill="#A68272"/>
<path d="M61.2937 197.308L61.3462 197.321L102.585 107.284L102.532 107.271L61.2937 197.308Z" fill="#A68272"/>
<path d="M61.2941 197.308L61.3466 197.321L99.8291 112.783L99.7897 112.77L61.2941 197.308Z" fill="#A68272"/>
<path d="M61.294 197.307L61.3466 197.32L97.0859 120.342L97.0334 120.329L61.294 197.307Z" fill="#A68272"/>
<path d="M61.2939 197.308L61.3333 197.322L89.5127 133.403L89.4733 133.39L61.2939 197.308Z" fill="#A68272"/>
<path d="M61.2939 197.308L61.3332 197.321L81.9526 147.144L81.9264 147.131L61.2939 197.308Z" fill="#A68272"/>
<path d="M61.294 197.308L61.3333 197.321L70.2715 161.581L70.2321 161.568L61.294 197.308Z" fill="#A68272"/>
<path d="M60.6116 171.885L61.3073 197.321L61.3335 197.321L60.651 171.885L60.6116 171.885Z" fill="#A68272"/>
<path d="M50.991 178.762L61.3073 197.321L61.3335 197.308L51.0173 178.749L50.991 178.762Z" fill="#A68272"/>
<path d="M39.3228 186.336L61.3072 197.335L61.3203 197.295L39.3359 186.31L39.3228 186.336Z" fill="#A68272"/>
<path d="M26.2634 193.213L61.3203 197.334L61.3203 197.295L26.2634 193.174L26.2634 193.213Z" fill="#A68272"/>
<path d="M17.3253 193.213L61.3203 197.334L61.3203 197.295L17.3253 193.174L17.3253 193.213Z" fill="#A68272"/>
<path d="M11.1434 191.834L61.3203 197.334L61.3203 197.294L11.1434 191.795L11.1434 191.834Z" fill="#A68272"/>
<path d="M4.94842 191.834L61.3203 197.334L61.3203 197.294L4.96156 191.795L4.94842 191.834Z" fill="#A68272"/>
<path d="M-1.23344 188.396L61.3203 197.334L61.3203 197.295L-1.23344 188.356L-1.23344 188.396Z" fill="#A68272"/>
<path d="M-9.47594 184.275L61.3203 197.334L61.3203 197.295L-9.47594 184.235L-9.47594 184.275Z" fill="#A68272"/>
<path d="M-17.7316 179.47L61.3203 197.334L61.3203 197.294L-17.7184 179.418L-17.7316 179.47Z" fill="#A68272"/>
<path d="M-25.2916 174.654L61.3072 197.334L61.3203 197.294L-25.2785 174.614L-25.2916 174.654Z" fill="#A68272"/>
<path d="M-32.1691 170.533L61.3072 197.334L61.3203 197.294L-32.1559 170.493L-32.1691 170.533Z" fill="#A68272"/>
<path d="M-34.9122 166.412L61.3072 197.334L61.3203 197.295L-34.8991 166.359L-34.9122 166.412Z" fill="#A68272"/>
<path d="M-38.3509 161.595L61.3072 197.334L61.3203 197.295L-38.3378 161.556L-38.3509 161.595Z" fill="#A68272"/>
<path d="M-38.3509 159.535L61.3073 197.335L61.3335 197.295L-38.3377 159.495L-38.3509 159.535Z" fill="#A68272"/>
<path d="M-37.6684 157.473L61.3073 197.334L61.3335 197.295L-37.6552 157.421L-37.6684 157.473Z" fill="#A68272"/>
<path d="M-35.6077 153.352L61.3073 197.334L61.3335 197.295L-35.5815 153.3L-35.6077 153.352Z" fill="#A68272"/>
<path d="M-34.2296 147.171L61.3073 197.334L61.3335 197.295L-34.2034 147.118L-34.2296 147.171Z" fill="#A68272"/>
<path d="M-30.7908 139.597L61.3073 197.334L61.3335 197.294L-30.7646 139.558L-30.7908 139.597Z" fill="#A68272"/>
<path d="M-22.5483 124.477L61.3073 197.334L61.3335 197.294L-22.5221 124.438L-22.5483 124.477Z" fill="#A68272"/>
<path d="M-17.0621 118.978L61.2941 197.334L61.3335 197.295L-17.0227 118.938L-17.0621 118.978Z" fill="#A68272"/>
<path d="M-9.50208 115.539L61.2941 197.334L61.3335 197.295L-9.44962 115.5L-9.50208 115.539Z" fill="#A68272"/>
<path d="M-4.68524 115.539L61.2941 197.334L61.3335 197.295L-4.64587 115.513L-4.68524 115.539Z" fill="#A68272"/>
<path d="M-1.94211 115.539L61.2941 197.334L61.3335 197.295L-1.90274 115.513L-1.94211 115.539Z" fill="#A68272"/>
<path d="M1.49663 116.222L61.2941 197.334L61.3335 197.295L1.536 116.195L1.49663 116.222Z" fill="#A68272"/>
<path d="M2.87478 116.917L61.2941 197.334L61.3335 197.294L2.91415 116.891L2.87478 116.917Z" fill="#A68272"/>
<path d="M2.87478 116.917L61.2941 197.334L61.3335 197.294L2.91415 116.891L2.87478 116.917Z" fill="#A68272"/>
<path d="M3.11101 162.973L61.3073 197.334L61.3335 197.295L3.13725 162.934L3.11101 162.973Z" fill="#A68272"/>
<path d="M6.7729 159.298L61.3073 197.334L61.3335 197.295L6.79914 159.271L6.7729 159.298Z" fill="#A68272"/>
<path d="M10.4347 159.298L61.3073 197.334L61.3335 197.295L10.461 159.271L10.4347 159.298Z" fill="#A68272"/>
<path d="M12.2723 159.298L61.3073 197.334L61.3335 197.295L12.2985 159.271L12.2723 159.298Z" fill="#A68272"/>
<path d="M15.9341 159.298L61.3073 197.334L61.3335 197.295L15.9604 159.271L15.9341 159.298Z" fill="#A68272"/>
<path d="M19.6091 162.054L61.3073 197.334L61.3335 197.295L19.6354 162.015L19.6091 162.054Z" fill="#A68272"/>
<path d="M19.6091 162.973L61.3073 197.334L61.3335 197.295L19.6354 162.934L19.6091 162.973Z" fill="#A68272"/>
<path d="M19.6091 162.973L61.3073 197.334L61.3335 197.295L19.6354 162.934L19.6091 162.973Z" fill="#A68272"/>
<path d="M19.6091 165.716L61.3073 197.334L61.3335 197.294L19.6354 165.689L19.6091 165.716Z" fill="#A68272"/>
<path d="M19.6091 169.378L61.3073 197.334L61.3335 197.295L19.6222 169.352L19.6091 169.378Z" fill="#A68272"/>
<path d="M18.6904 172.134L61.3073 197.334L61.3335 197.295L18.7167 172.095L18.6904 172.134Z" fill="#A68272"/>
<path d="M17.7847 175.796L61.3072 197.334L61.3203 197.295L17.7978 175.757L17.7847 175.796Z" fill="#A68272"/>
<path d="M17.7847 179.471L61.3072 197.334L61.3203 197.295L17.7978 179.432L17.7847 179.471Z" fill="#A68272"/>
<path d="M17.7847 182.214L61.3072 197.334L61.3203 197.295L17.7978 182.175L17.7847 182.214Z" fill="#A68272"/>
<path d="M16.8659 184.97L61.3203 197.334L61.3203 197.294L16.879 184.931L16.8659 184.97Z" fill="#A68272"/>
<path d="M14.1097 188.632L61.3203 197.334L61.3203 197.295L14.1228 188.593L14.1097 188.632Z" fill="#A68272"/>
<path d="M11.3666 194.131L61.3203 197.334L61.3203 197.294L11.3666 194.092L11.3666 194.131Z" fill="#A68272"/>
<path d="M7.70469 197.754L7.70469 197.794L61.3203 197.334L61.3203 197.295L7.70469 197.754Z" fill="#A68272"/>
<path d="M3.12407 197.754L3.12407 197.794L61.3203 197.334L61.3203 197.295L3.12407 197.754Z" fill="#A68272"/>
<path d="M-0.550953 197.754L-0.550953 197.794L61.3203 197.334L61.3203 197.295L-0.550953 197.754Z" fill="#A68272"/>
<path d="M-2.37531 196.874L61.3203 197.334L61.3203 197.294L-2.37531 196.835L-2.37531 196.874Z" fill="#A68272"/>
<path d="M-2.37531 196.874L61.3203 197.334L61.3203 197.294L-2.37531 196.835L-2.37531 196.874Z" fill="#A68272"/>
<path d="M-5.13157 193.213L61.3203 197.334L61.3203 197.295L-5.11843 193.174L-5.13157 193.213Z" fill="#A68272"/>
<path d="M-5.13157 192.294L61.3203 197.334L61.3203 197.295L-5.11843 192.255L-5.13157 192.294Z" fill="#A68272"/>
<path d="M-5.12815 189.474L61.3145 197.268L61.3099 197.307L-5.13274 189.513L-5.12815 189.474Z" fill="#A68272"/>
<path d="M-5.13157 186.794L61.3203 197.334L61.3203 197.294L-5.11843 186.755L-5.13157 186.794Z" fill="#A68272"/>
<path d="M-5.13157 183.133L61.3203 197.334L61.3203 197.295L-5.11843 183.094L-5.13157 183.133Z" fill="#A68272"/>
<path d="M-5.13157 180.389L61.3203 197.334L61.3203 197.294L-5.11843 180.337L-5.13157 180.389Z" fill="#A68272"/>
<path d="M-5.13157 175.796L61.3072 197.334L61.3203 197.295L-5.11843 175.757L-5.13157 175.796Z" fill="#A68272"/>
<path d="M-4.21281 171.215L61.3072 197.334L61.3203 197.295L-4.19971 171.176L-4.21281 171.215Z" fill="#A68272"/>
<path d="M-1.4696 166.635L61.3073 197.334L61.3335 197.295L-1.4565 166.596L-1.4696 166.635Z" fill="#A68272"/>
<path d="M-0.550873 163.892L61.3073 197.334L61.3335 197.295L-0.537735 163.853L-0.550873 163.892Z" fill="#A68272"/>
<path d="M0.37833 160.182L61.3271 197.298L61.3067 197.331L0.357841 160.216L0.37833 160.182Z" fill="#A68272"/>
<path d="M0.354759 159.298L61.3073 197.334L61.3335 197.295L0.381035 159.271L0.354759 159.298Z" fill="#A68272"/>
<path d="M4.02978 155.636L61.3073 197.334L61.3335 197.295L4.05602 155.597L4.02978 155.636Z" fill="#A68272"/>
<path d="M5.85413 154.718L61.3073 197.335L61.3335 197.295L5.88037 154.691L5.85413 154.718Z" fill="#A68272"/>
<path d="M7.69163 154.718L61.3073 197.335L61.3335 197.295L7.71791 154.691L7.69163 154.718Z" fill="#A68272"/>
<path d="M11.3535 154.718L61.3073 197.335L61.3335 197.295L11.3797 154.691L11.3535 154.718Z" fill="#A68272"/>
<path d="M13.191 154.718L61.3073 197.335L61.3335 197.295L13.2173 154.691L13.191 154.718Z" fill="#A68272"/>
<path d="M13.191 154.718L61.3073 197.335L61.3335 197.295L13.2173 154.691L13.191 154.718Z" fill="#A68272"/>
<path d="M14.1098 156.555L61.3073 197.334L61.3335 197.295L14.136 156.516L14.1098 156.555Z" fill="#A68272"/>
<path d="M14.1098 156.555L61.3073 197.334L61.3335 197.295L14.136 156.516L14.1098 156.555Z" fill="#A68272"/>
<path d="M14.1098 158.379L61.3073 197.334L61.3335 197.294L14.136 158.353L14.1098 158.379Z" fill="#A68272"/>
<path d="M15.9341 161.136L61.3073 197.334L61.3335 197.295L15.9604 161.109L15.9341 161.136Z" fill="#A68272"/>
<path d="M18.6904 164.797L61.3073 197.334L61.3335 197.294L18.7167 164.771L18.6904 164.797Z" fill="#A68272"/>
<path d="M18.6904 166.635L61.3073 197.334L61.3335 197.295L18.7167 166.608L18.6904 166.635Z" fill="#A68272"/>
<path d="M0.144669 200.038L0.144669 200.091L61.3203 197.334L61.3203 197.295L0.144669 200.038Z" fill="#A68272"/>
<path d="M0.131349 200.064L0.157584 200.077L11.3926 167.999L11.3532 167.986L0.131349 200.064Z" fill="#A68272"/>
<path d="M0.131614 200.064L0.15785 200.064L3.13721 159.744L3.11097 159.744L0.131614 200.064Z" fill="#A68272"/>
<path d="M0.131614 200.064L0.15785 200.064L3.13721 159.744L3.11097 159.744L0.131614 200.064Z" fill="#A68272"/>
<path d="M0.131347 200.064L0.157582 200.077L6.79883 189.538L6.77259 189.524L0.131347 200.064Z" fill="#A68272"/>
<path d="M0.131348 200.078L23.7301 252.315L23.7564 252.289L0.157583 200.064L0.131348 200.078Z" fill="#A68272"/>
<path d="M0.131569 200.077L41.5934 268.813L41.6328 268.786L0.170944 200.051L0.131569 200.077Z" fill="#A68272"/>
<path d="M0.131798 200.077L69.5499 253.233L69.5762 253.207L0.158035 200.051L0.131798 200.077Z" fill="#A68272"/>
<path d="M0.144577 200.091L87.439 214.751L87.439 214.712L0.144577 200.038L0.144577 200.091Z" fill="#A68272"/>
<path d="M0.144692 200.038L0.144692 200.09L78.2778 191.388L78.2647 191.336L0.144692 200.038Z" fill="#A68272"/>
<path d="M0.144402 200.038L0.144402 200.09L59.9419 189.551L59.9419 189.512L0.144402 200.038Z" fill="#A68272"/>
<path d="M0.144715 200.051L0.144715 200.077L42.0791 196.415L42.0791 196.376L0.144715 200.051Z" fill="#A68272"/>
<path d="M0.144398 200.077L35.6475 210.616L35.6606 210.59L0.144398 200.051L0.144398 200.077Z" fill="#A68272"/>
<path d="M0.118431 200.077L55.7947 313.254L55.8472 313.241L0.17094 200.051L0.118431 200.077Z" fill="#A68272"/>
<path d="M0.118164 200.077L59.4563 315.551L59.5088 315.525L0.170677 200.051L0.118164 200.077Z" fill="#A68272"/>
<path d="M-17.9679 252.748L-17.9416 252.774L0.170898 200.078L0.131525 200.064L-17.9679 252.748Z" fill="#A68272"/>
<path d="M-17.0622 254.126L-17.0229 254.139L0.170898 200.078L0.131525 200.064L-17.0622 254.126Z" fill="#A68272"/>
<path d="M-6.52285 274.759L-6.48348 274.759L0.170898 200.064L0.131525 200.064L-6.52285 274.759Z" fill="#A68272"/>
<path d="M0.118208 200.064L11.3401 304.539L11.3926 304.539L0.170719 200.064L0.118208 200.064Z" fill="#A68272"/>
<path d="M0.11834 200.078L31.054 325.172L31.1065 325.159L0.170851 200.064L0.11834 200.078Z" fill="#A68272"/>
<path d="M0.118256 200.077L59.9158 318.753L59.9683 318.727L0.170765 200.051L0.118256 200.077Z" fill="#A68272"/>
<path d="M0.131481 200.077L55.3352 295.391L55.3877 295.365L0.170856 200.051L0.131481 200.077Z" fill="#A68272"/>
<path d="M0.131302 200.077L47.5519 275.69L47.5913 275.664L0.170677 200.051L0.131302 200.077Z" fill="#A68272"/>
<path d="M0.131477 200.077L43.4308 270.191L43.4702 270.165L0.170853 200.051L0.131477 200.077Z" fill="#A68272"/>
<path d="M0.13139 200.077L40.6745 267.435L40.7139 267.408L0.170761 200.051L0.13139 200.077Z" fill="#A68272"/>
<path d="M0.131435 200.077L38.3908 266.056L38.4302 266.043L0.170807 200.051L0.131435 200.077Z" fill="#A68272"/>
<path d="M0.131567 200.078L29.2297 259.179L29.269 259.166L0.17094 200.064L0.131567 200.078Z" fill="#A68272"/>
<path d="M0.131348 200.078L23.7301 250.478L23.7564 250.464L0.157583 200.064L0.131348 200.078Z" fill="#A68272"/>
<path d="M0.131523 200.077L19.609 223.453L19.6353 223.426L0.157759 200.051L0.131523 200.077Z" fill="#A68272"/>
<path d="M0.144709 200.051L0.144709 200.078L25.1216 193.213L25.1085 193.174L0.144709 200.051Z" fill="#A68272"/>
<path d="M0.131305 200.051L0.157542 200.077L37.9575 167.553L37.9313 167.514L0.131305 200.051Z" fill="#A68272"/>
<path d="M0.131703 200.051L0.15794 200.077L56.7529 152.893L56.7267 152.854L0.131703 200.051Z" fill="#A68272"/>
<path d="M0.131665 200.051L0.157903 200.091L78.291 146.475L78.2648 146.436L0.131665 200.051Z" fill="#A68272"/>
<path d="M0.131573 200.038L0.157811 200.09L102.113 148.312L102.087 148.26L0.131573 200.038Z" fill="#A68272"/>
<path d="M0.118343 200.078L21.4202 332.036L21.4859 332.023L0.170855 200.064L0.118343 200.078Z" fill="#A68272"/>
<path d="M0.118563 200.064L10.4217 316.457L10.4873 316.457L0.171074 200.064L0.118563 200.064Z" fill="#A68272"/>
<path d="M0.118519 200.064L0.81415 290.798L0.853524 290.798L0.17103 200.064L0.118519 200.064Z" fill="#A68272"/>
<path d="M-0.104751 254.599L-0.0653772 254.599L0.170898 200.064L0.131525 200.064L-0.104751 254.599Z" fill="#A68272"/>
<path d="M0.131348 200.064L1.7326 225.724L1.77197 225.724L0.157583 200.064L0.131348 200.064Z" fill="#A68272"/>
<path d="M0.144756 200.077L10.9073 203.752L10.9204 203.713L0.144756 200.051L0.144756 200.077Z" fill="#A68272"/>
<path d="M0.131612 200.051L0.157848 200.078L27.4185 184.039L27.4054 184.013L0.131612 200.051Z" fill="#A68272"/>
<path d="M0.131434 200.051L0.157671 200.077L45.7539 174.431L45.7277 174.392L0.131434 200.051Z" fill="#A68272"/>
<path d="M0.144533 200.038L0.157671 200.09L70.0352 174.431L70.0221 174.392L0.144533 200.038Z" fill="#A68272"/>
<path d="M0.14467 200.038L0.14467 200.09L97.519 179.93L97.519 179.878L0.14467 200.038Z" fill="#A68272"/>
<path d="M110.653 183.951L110.661 184.003L-1.44894 200.989L-1.45681 200.937L110.653 183.951Z" fill="#A68272"/>
<path d="M0.144579 200.051L0.157716 200.091L53.5371 183.133L53.524 183.094L0.144579 200.051Z" fill="#A68272"/>
<path d="M0.1315 200.091L130.961 240.424L130.975 240.358L0.15773 200.038L0.1315 200.091Z" fill="#A68272"/>
<path d="M0.131577 200.091L116.76 238.127L116.773 238.074L0.157814 200.038L0.131577 200.091Z" fill="#A68272"/>
<path d="M0.131302 200.091L105.761 238.127L105.774 238.074L0.157539 200.038L0.131302 200.091Z" fill="#A68272"/>
<path d="M0.131722 200.091L93.3848 238.127L93.398 238.074L0.157959 200.038L0.131722 200.091Z" fill="#A68272"/>
<path d="M0.131569 200.091L77.8053 237.208L77.8315 237.156L0.157806 200.038L0.131569 200.091Z" fill="#A68272"/>
<path d="M0.131432 200.09L70.0089 236.289L70.0352 236.25L0.157669 200.051L0.131432 200.09Z" fill="#A68272"/>
<path d="M0.13166 200.09L64.0635 233.992L64.0767 233.953L0.157894 200.051L0.13166 200.09Z" fill="#A68272"/>
<path d="M0.131439 200.077L58.1045 230.33L58.1177 230.291L0.157677 200.051L0.131439 200.077Z" fill="#A68272"/>
<path d="M0.131611 200.077L53.9703 226.655L53.9966 226.629L0.157845 200.051L0.131611 200.077Z" fill="#A68272"/>
<path d="M0.144753 200.077L49.4029 219.791L49.416 219.751L0.15789 200.051L0.144753 200.077Z" fill="#A68272"/>
<path d="M0.144714 200.077L42.0791 202.374L42.0791 202.335L0.144714 200.051L0.144714 200.077Z" fill="#A68272"/>
<path d="M0.131616 200.051L0.157854 200.077L42.0791 179.917L42.066 179.891L0.131616 200.051Z" fill="#A68272"/>
<path d="M44.8236 159.308L44.8501 159.337L0.135937 200.081L0.109418 200.052L44.8236 159.308Z" fill="#A68272"/>
<path d="M0.131486 200.051L0.157723 200.077L50.7939 146.921L50.7677 146.895L0.131486 200.051Z" fill="#A68272"/>
<path d="M0.131486 200.051L0.15772 200.077L55.834 140.975L55.8077 140.936L0.131486 200.051Z" fill="#A68272"/>
<path d="M0.131353 200.051L0.157583 200.077L64.5488 135.476L64.5095 135.437L0.131353 200.051Z" fill="#A68272"/>
<path d="M0.131438 200.051L0.157675 200.077L74.6289 131.814L74.5895 131.774L0.131438 200.051Z" fill="#A68272"/>
<path d="M0.131705 200.051L0.157942 200.091L83.3311 128.153L83.2917 128.113L0.131705 200.051Z" fill="#A68272"/>
<path d="M0.131728 200.038L0.157965 200.091L90.668 127.234L90.6286 127.194L0.131728 200.038Z" fill="#A68272"/>
<path d="M0.131423 200.038L0.157653 200.091L98.9102 123.559L98.8708 123.52L0.131423 200.038Z" fill="#A68272"/>
<path d="M0.144814 200.091L127.3 207.887L127.3 207.834L0.144814 200.038L0.144814 200.091Z" fill="#A68272"/>
<path d="M0.144501 200.091L113.545 226.669L113.558 226.616L0.157639 200.038L0.144501 200.091Z" fill="#A68272"/>
<path d="M0.131302 200.091L103.464 239.046L103.478 238.993L0.157539 200.038L0.131302 200.091Z" fill="#A68272"/>
<path d="M0.131622 200.091L95.2222 245.451L95.2354 245.411L0.15786 200.038L0.131622 200.091Z" fill="#A68272"/>
<path d="M0.131393 200.091L89.2633 249.126L89.2764 249.073L0.157623 200.038L0.131393 200.091Z" fill="#A68272"/>
<path d="M0.131592 200.091L82.8453 250.95L82.8716 250.911L0.157829 200.038L0.131592 200.091Z" fill="#A68272"/>
<path d="M0.131653 200.077L59.0104 252.774L59.0366 252.748L0.15789 200.051L0.131653 200.077Z" fill="#A68272"/>
<path d="M0.131477 200.077L53.0515 248.193L53.0908 248.167L0.157715 200.051L0.131477 200.077Z" fill="#A68272"/>
<path d="M0.131619 200.077L44.3497 238.573L44.376 238.546L0.157852 200.051L0.131619 200.077Z" fill="#A68272"/>
<path d="M0.131348 200.077L35.6476 223.453L35.6738 223.413L0.157585 200.051L0.131348 200.077Z" fill="#A68272"/>
<path d="M0.144799 200.051L0.144799 200.077L25.5811 197.334L25.5811 197.295L0.144799 200.051Z" fill="#A68272"/>
<path d="M0.131482 200.051L0.157717 200.077L24.2158 170.297L24.1896 170.271L0.131482 200.051Z" fill="#A68272"/>
<path d="M0.131264 200.064L0.1575 200.077L25.5938 150.123L25.5544 150.11L0.131264 200.064Z" fill="#A68272"/>
<path d="M0.131308 200.064L0.170681 200.077L30.6338 135.462L30.5944 135.449L0.131308 200.064Z" fill="#A68272"/>
<path d="M0.131354 200.051L0.170729 200.077L37.9707 126.761L37.9313 126.734L0.131354 200.051Z" fill="#A68272"/>
<path d="M0.131709 200.051L0.171081 200.077L47.1323 120.343L47.093 120.316L0.131709 200.051Z" fill="#A68272"/>
<path d="M0.131706 200.051L0.171081 200.077L56.7529 117.599L56.7136 117.573L0.131706 200.051Z" fill="#A68272"/>
<path d="M0.131401 200.052L0.170776 200.078L67.292 118.978L67.2526 118.952L0.131401 200.052Z" fill="#A68272"/>
<path d="M0.131484 200.051L0.157722 200.077L77.3721 122.64L77.3327 122.613L0.131484 200.051Z" fill="#A68272"/>
<path d="M0.131346 200.05L0.157576 200.09L86.5332 128.598L86.5069 128.559L0.131346 200.05Z" fill="#A68272"/>
<path d="M0.131437 200.051L0.157675 200.077L72.332 137.773L72.3058 137.733L0.131437 200.051Z" fill="#A68272"/>
<path d="M72.2838 139.216L72.3174 139.257L-0.309645 199.574L-0.343194 199.534L72.2838 139.216Z" fill="#A68272"/>
<path d="M70.4555 139.529L70.4897 139.568L0.180654 200.086L0.146424 200.047L70.4555 139.529Z" fill="#A68272"/>
<path d="M0.131307 200.051L0.157537 200.077L69.1294 141.435L69.09 141.396L0.131307 200.051Z" fill="#A68272"/>
<path d="M0.131482 200.051L0.15772 200.077L65.4546 146.015L65.4284 145.976L0.131482 200.051Z" fill="#A68272"/>
<path d="M0.131657 200.05L0.157894 200.077L59.0366 154.717L59.0104 154.69L0.131657 200.05Z" fill="#A68272"/>
<path d="M0.131572 200.051L0.157806 200.077L51.2534 163.432L51.2272 163.393L0.131572 200.051Z" fill="#A68272"/>
<path d="M0.131305 200.051L0.157542 200.078L45.2944 168.919L45.2682 168.893L0.131305 200.051Z" fill="#A68272"/>
<path d="M0.131484 200.051L0.157721 200.077L41.1733 172.593L41.1471 172.554L0.131484 200.051Z" fill="#A68272"/>
<path d="M0.131483 200.051L0.157721 200.077L36.5796 176.255L36.5665 176.216L0.131483 200.051Z" fill="#A68272"/>
<path d="M0.131656 200.051L0.157892 200.077L30.1616 182.673L30.1485 182.634L0.131656 200.051Z" fill="#A68272"/>
<path d="M0.14449 200.051L0.157628 200.077L24.2026 189.078L24.1895 189.052L0.14449 200.051Z" fill="#A68272"/>
<path d="M0.144574 200.051L0.157712 200.077L19.6221 192.294L19.609 192.255L0.144574 200.051Z" fill="#A68272"/>
<path d="M0.144578 200.051L0.157716 200.077L14.5952 192.294L14.569 192.268L0.144578 200.051Z" fill="#A68272"/>
<path d="M0.131655 200.051L0.157891 200.077L8.17725 192.281L8.15101 192.268L0.131655 200.051Z" fill="#A68272"/>
<path d="M-1.01043 192.281L0.13148 200.064L0.157716 200.064L-0.984154 192.268L-1.01043 192.281Z" fill="#A68272"/>
<path d="M-11.5498 191.375L0.13148 200.077L0.157716 200.051L-11.5235 191.349L-11.5498 191.375Z" fill="#A68272"/>
<path d="M-25.2917 189.078L0.144578 200.077L0.157716 200.051L-25.2785 189.052L-25.2917 189.078Z" fill="#A68272"/>
<path d="M-37.6685 186.794L0.144578 200.077L0.157716 200.051L-37.6554 186.755L-37.6685 186.794Z" fill="#A68272"/>
<path d="M-50.951 178.552L0.144579 200.077L0.157717 200.051L-50.9379 178.513L-50.951 178.552Z" fill="#A68272"/>
<path d="M-55.5448 170.756L0.131482 200.077L0.157717 200.051L-55.5186 170.717L-55.5448 170.756Z" fill="#A68272"/>
<path d="M-56.4504 161.595L0.131483 200.078L0.157718 200.051L-56.4373 161.556L-56.4504 161.595Z" fill="#A68272"/>
<path d="M-56.4636 146.934L0.131484 200.077L0.157719 200.051L-56.4241 146.895L-56.4636 146.934Z" fill="#A68272"/>
<path d="M-52.3422 129.058L0.131531 200.077L0.170905 200.051L-52.3029 129.031L-52.3422 129.058Z" fill="#A68272"/>
<path d="M-45.9241 112.1L0.131533 200.077L0.170906 200.051L-45.8847 112.074L-45.9241 112.1Z" fill="#A68272"/>
<path d="M-37.2223 100.183L0.118396 200.077L0.170907 200.064L-37.1697 100.17L-37.2223 100.183Z" fill="#A68272"/>
<path d="M-25.7641 94.2241L0.118396 200.077L0.170908 200.064L-25.7247 94.2109L-25.7641 94.2241Z" fill="#A68272"/>
<path d="M-14.306 95.5889L0.118396 200.077L0.170908 200.064L-14.2666 95.5889L-14.306 95.5889Z" fill="#A68272"/>
<path d="M0.118528 200.064L0.171039 200.064L0.853516 97.8857L0.814142 97.8857L0.118528 200.064Z" fill="#A68272"/>
<path d="M0.11844 200.064L0.170951 200.077L17.3516 102.926L17.2991 102.913L0.11844 200.064Z" fill="#A68272"/>
<path d="M0.118483 200.064L0.170995 200.077L22.3916 102.466L22.3391 102.453L0.118483 200.064Z" fill="#A68272"/>
<path d="M100.383 113.403L100.417 113.443L-0.414478 199.379L-0.448539 199.339L100.383 113.403Z" fill="#A68272"/>
<path d="M0.131538 200.038L0.157775 200.09L97.0728 120.356L97.0465 120.316L0.131538 200.038Z" fill="#A68272"/>
<path d="M0.131468 200.038L0.157705 200.09L89.5127 133.415L89.4864 133.376L0.131468 200.038Z" fill="#A68272"/>
<path d="M0.131398 200.038L0.157628 200.091L81.9526 147.158L81.9264 147.118L0.131398 200.038Z" fill="#A68272"/>
<path d="M70.7549 162.487L70.7729 162.522L-0.34036 199.133L-0.358382 199.098L70.7549 162.487Z" fill="#A68272"/>
<path d="M0.13148 200.051L0.157717 200.09L60.6377 171.911L60.6246 171.858L0.13148 200.051Z" fill="#A68272"/>
<path d="M0.144579 200.051L0.157717 200.078L51.0171 178.776L51.004 178.736L0.144579 200.051Z" fill="#A68272"/>
<path d="M0.144666 200.051L0.157804 200.077L39.3359 186.335L39.3228 186.296L0.144666 200.051Z" fill="#A68272"/>
<path d="M0.144404 200.051L0.144404 200.078L26.2632 193.213L26.2632 193.174L0.144404 200.051Z" fill="#A68272"/>
<path d="M0.144621 200.051L0.157759 200.078L17.3384 193.213L17.3252 193.174L0.144621 200.051Z" fill="#A68272"/>
<path d="M11.1919 191.827L11.2075 191.849L0.142501 199.998L0.12692 199.976L11.1919 191.827Z" fill="#A68272"/>
<path d="M0.131482 200.064L0.157717 200.077L4.97461 191.822L4.94833 191.809L0.131482 200.064Z" fill="#A68272"/>
<path d="M-1.24667 188.383L0.13148 200.064L0.157716 200.064L-1.22039 188.383L-1.24667 188.383Z" fill="#A68272"/>
<path d="M-9.45613 184.239L0.166504 200.047L0.132872 200.067L-9.48976 184.26L-9.45613 184.239Z" fill="#A68272"/>
<path d="M-17.7317 179.458L0.131481 200.077L0.157717 200.051L-17.7185 179.432L-17.7317 179.458Z" fill="#A68272"/>
<path d="M-25.2609 174.62L0.168457 200.05L0.140616 200.078L-25.2887 174.648L-25.2609 174.62Z" fill="#A68272"/>
<path d="M-32.1692 170.533L0.131482 200.077L0.157717 200.051L-32.1429 170.493L-32.1692 170.533Z" fill="#A68272"/>
<path d="M-34.9254 166.398L0.131482 200.077L0.157718 200.051L-34.8991 166.372L-34.9254 166.398Z" fill="#A68272"/>
<path d="M-38.3214 161.569L0.166016 200.057L0.138174 200.084L-38.3492 161.597L-38.3214 161.569Z" fill="#A68272"/>
<path d="M-38.3642 159.521L0.131483 200.078L0.157718 200.051L-38.3248 159.495L-38.3642 159.521Z" fill="#A68272"/>
<path d="M-37.6685 157.46L0.131483 200.077L0.157719 200.05L-37.6423 157.434L-37.6685 157.46Z" fill="#A68272"/>
<path d="M-35.6079 153.339L0.131483 200.077L0.157719 200.051L-35.5817 153.313L-35.6079 153.339Z" fill="#A68272"/>
<path d="M-34.2429 147.157L0.131484 200.077L0.157719 200.051L-34.2035 147.131L-34.2429 147.157Z" fill="#A68272"/>
<path d="M-30.8041 139.598L0.13153 200.078L0.170904 200.051L-30.7647 139.571L-30.8041 139.598Z" fill="#A68272"/>
<path d="M-22.5616 124.464L0.131532 200.077L0.170905 200.064L-22.5091 124.451L-22.5616 124.464Z" fill="#A68272"/>
<path d="M-17.0622 118.965L0.131532 200.078L0.170906 200.065L-17.0097 118.952L-17.0622 118.965Z" fill="#A68272"/>
<path d="M-9.50222 115.526L0.118395 200.064L0.170906 200.064L-9.44975 115.526L-9.50222 115.526Z" fill="#A68272"/>
<path d="M-4.68537 115.526L0.118395 200.064L0.170906 200.064L-4.64599 115.526L-4.68537 115.526Z" fill="#A68272"/>
<path d="M-1.94225 115.526L0.118395 200.064L0.170906 200.064L-1.88974 115.526L-1.94225 115.526Z" fill="#A68272"/>
<path d="M0.118215 200.064L0.170726 200.064L1.54883 116.208L1.49632 116.208L0.118215 200.064Z" fill="#A68272"/>
<path d="M0.118438 200.064L0.17095 200.064L2.91406 116.904L2.87469 116.904L0.118438 200.064Z" fill="#A68272"/>
<path d="M0.118438 200.064L0.17095 200.064L2.91406 116.904L2.87469 116.904L0.118438 200.064Z" fill="#A68272"/>
<path d="M0.131614 200.064L0.15785 200.064L3.13721 162.959L3.11097 162.946L0.131614 200.064Z" fill="#A68272"/>
<path d="M0.131349 200.064L0.157585 200.064L6.79883 159.284L6.77259 159.284L0.131349 200.064Z" fill="#A68272"/>
<path d="M0.131658 200.064L0.157894 200.077L10.4741 159.284L10.4347 159.284L0.131658 200.064Z" fill="#A68272"/>
<path d="M0.131483 200.065L0.157718 200.078L12.2983 159.285L12.2721 159.285L0.131483 200.065Z" fill="#A68272"/>
<path d="M0.131304 200.065L0.157539 200.078L15.9731 159.298L15.9338 159.285L0.131304 200.065Z" fill="#A68272"/>
<path d="M0.131526 200.064L0.157762 200.077L19.6353 162.04L19.5959 162.027L0.131526 200.064Z" fill="#A68272"/>
<path d="M0.131526 200.064L0.157762 200.077L19.6353 162.959L19.5959 162.946L0.131526 200.064Z" fill="#A68272"/>
<path d="M0.131526 200.064L0.157762 200.077L19.6353 162.959L19.5959 162.946L0.131526 200.064Z" fill="#A68272"/>
<path d="M0.131526 200.064L0.157762 200.077L19.6353 165.703L19.5959 165.689L0.131526 200.064Z" fill="#A68272"/>
<path d="M0.131526 200.051L0.157761 200.077L19.6353 169.378L19.5959 169.352L0.131526 200.051Z" fill="#A68272"/>
<path d="M0.131306 200.051L0.157542 200.077L18.7163 172.121L18.69 172.107L0.131306 200.051Z" fill="#A68272"/>
<path d="M0.131615 200.051L0.15785 200.077L17.7979 175.796L17.7716 175.77L0.131615 200.051Z" fill="#A68272"/>
<path d="M0.131615 200.051L0.15785 200.077L17.7979 179.458L17.7716 179.432L0.131615 200.051Z" fill="#A68272"/>
<path d="M0.131614 200.051L0.15785 200.077L17.7979 182.201L17.7716 182.188L0.131614 200.051Z" fill="#A68272"/>
<path d="M0.131435 200.051L0.15767 200.077L16.8789 184.957L16.8527 184.931L0.131435 200.051Z" fill="#A68272"/>
<path d="M0.131306 200.051L0.157541 200.077L14.1226 188.619L14.1094 188.593L0.131306 200.051Z" fill="#A68272"/>
<path d="M0.144399 200.051L0.157537 200.077L11.3794 194.118L11.3663 194.092L0.144399 200.051Z" fill="#A68272"/>
<path d="M0.144578 200.051L0.144578 200.078L7.70459 197.794L7.70459 197.768L0.144578 200.051Z" fill="#A68272"/>
<path d="M0.131611 200.051L0.157847 200.078L3.13721 197.781L3.11097 197.768L0.131611 200.051Z" fill="#A68272"/>
<path d="M-0.564144 197.781L0.131479 200.078L0.157715 200.064L-0.524771 197.768L-0.564144 197.781Z" fill="#A68272"/>
<path d="M-2.38854 196.875L0.13148 200.077L0.157715 200.064L-2.3623 196.849L-2.38854 196.875Z" fill="#A68272"/>
<path d="M-2.38854 196.875L0.13148 200.077L0.157715 200.064L-2.3623 196.849L-2.38854 196.875Z" fill="#A68272"/>
<path d="M-5.1448 193.2L0.13148 200.077L0.157715 200.064L-5.11852 193.187L-5.1448 193.2Z" fill="#A68272"/>
<path d="M-5.1448 192.281L0.13148 200.077L0.157716 200.064L-5.11852 192.268L-5.1448 192.281Z" fill="#A68272"/>
<path d="M-5.1448 189.538L0.13148 200.077L0.157716 200.064L-5.11852 189.524L-5.1448 189.538Z" fill="#A68272"/>
<path d="M-5.1448 186.782L0.13148 200.077L0.157716 200.064L-5.10542 186.769L-5.1448 186.782Z" fill="#A68272"/>
<path d="M-5.1448 183.12L0.131481 200.077L0.157716 200.064L-5.10542 183.106L-5.1448 183.12Z" fill="#A68272"/>
<path d="M-5.1448 180.363L0.131481 200.077L0.157717 200.064L-5.10542 180.363L-5.1448 180.363Z" fill="#A68272"/>
<path d="M-5.11544 175.775L0.15625 200.055L0.117773 200.063L-5.15391 175.783L-5.11544 175.775Z" fill="#A68272"/>
<path d="M-4.22603 171.202L0.131482 200.064L0.157717 200.064L-4.18666 171.202L-4.22603 171.202Z" fill="#A68272"/>
<path d="M-1.48291 166.622L0.131482 200.064L0.157718 200.064L-1.44354 166.608L-1.48291 166.622Z" fill="#A68272"/>
<path d="M-0.564144 163.865L0.131482 200.064L0.157718 200.064L-0.524771 163.865L-0.564144 163.865Z" fill="#A68272"/>
<path d="M0.13157 200.064L0.157806 200.064L0.394043 160.203L0.35467 160.203L0.13157 200.064Z" fill="#A68272"/>
<path d="M0.131571 200.065L0.157806 200.065L0.394043 159.285L0.35467 159.285L0.131571 200.065Z" fill="#A68272"/>
<path d="M0.131306 200.064L0.170679 200.064L4.05566 155.623L4.01629 155.623L0.131306 200.064Z" fill="#A68272"/>
<path d="M0.131705 200.064L0.171078 200.064L5.89355 154.704L5.85418 154.704L0.131705 200.064Z" fill="#A68272"/>
<path d="M7.69993 154.727L7.73877 154.733L0.156151 200.094L0.117316 200.088L7.69993 154.727Z" fill="#A68272"/>
<path d="M0.13135 200.064L0.157585 200.077L11.3926 154.704L11.3532 154.704L0.13135 200.064Z" fill="#A68272"/>
<path d="M0.131663 200.065L0.157899 200.078L13.2173 154.705L13.191 154.691L0.131663 200.065Z" fill="#A68272"/>
<path d="M0.131663 200.065L0.157899 200.078L13.2173 154.705L13.191 154.691L0.131663 200.065Z" fill="#A68272"/>
<path d="M0.131392 200.064L0.157628 200.077L14.1357 156.541L14.0964 156.528L0.131392 200.064Z" fill="#A68272"/>
<path d="M0.131392 200.064L0.157628 200.077L14.1357 156.541L14.0964 156.528L0.131392 200.064Z" fill="#A68272"/>
<path d="M0.131392 200.064L0.157628 200.077L14.1357 158.379L14.0964 158.366L0.131392 200.064Z" fill="#A68272"/>
<path d="M15.9254 161.124L15.9619 161.139L0.172883 200.1L0.136392 200.086L15.9254 161.124Z" fill="#A68272"/>
<path d="M0.131307 200.064L0.157542 200.077L18.7163 164.797L18.69 164.771L0.131307 200.064Z" fill="#A68272"/>
<path d="M0.131307 200.064L0.157542 200.077L18.7163 166.622L18.69 166.608L0.131307 200.064Z" fill="#A68272"/>
<path d="M-10.8542 200.051L0.144531 200.051L0.144531 200.077L-10.8542 200.077L-10.8542 200.051Z" fill="#A68272"/>
<path d="M-10.8541 200.038L-10.8541 200.091L61.3203 197.334L61.3203 197.295L-10.8541 200.038Z" fill="#A68272"/>
<path d="M11.3553 168.026L11.3877 168.049L-10.8427 200.118L-10.8751 200.095L11.3553 168.026Z" fill="#A68272"/>
<path d="M3.09317 159.733L3.13037 159.746L-10.8318 200.066L-10.869 200.054L3.09317 159.733Z" fill="#A68272"/>
<path d="M3.09317 159.733L3.13037 159.746L-10.8318 200.066L-10.869 200.054L3.09317 159.733Z" fill="#A68272"/>
<path d="M-10.8543 200.051L-10.8412 200.077L6.79883 189.538L6.78569 189.512L-10.8543 200.051Z" fill="#A68272"/>
<path d="M-10.8674 200.077L23.7301 252.315L23.7564 252.288L-10.8412 200.051L-10.8674 200.077Z" fill="#A68272"/>
<path d="M-10.8672 200.077L41.5934 268.813L41.6328 268.786L-10.8278 200.051L-10.8672 200.077Z" fill="#A68272"/>
<path d="M-10.8675 200.091L69.5494 253.234L69.5757 253.194L-10.8412 200.038L-10.8675 200.091Z" fill="#A68272"/>
<path d="M-10.8542 200.091L87.439 214.751L87.439 214.712L-10.841 200.038L-10.8542 200.091Z" fill="#A68272"/>
<path d="M-10.8541 200.038L-10.8541 200.09L78.2778 191.388L78.2647 191.336L-10.8541 200.038Z" fill="#A68272"/>
<path d="M-10.8544 200.037L-10.8412 200.09L59.9419 189.551L59.9419 189.498L-10.8544 200.037Z" fill="#A68272"/>
<path d="M42.0752 196.551L42.0776 196.59L-10.8695 199.912L-10.872 199.872L42.0752 196.551Z" fill="#A68272"/>
<path d="M-10.8544 200.077L35.6606 210.63L35.6606 210.59L-10.8412 200.051L-10.8544 200.077Z" fill="#A68272"/>
<path d="M-10.8803 200.077L55.7947 313.267L55.8472 313.228L-10.8278 200.051L-10.8803 200.077Z" fill="#A68272"/>
<path d="M-10.8806 200.077L59.4563 315.551L59.5088 315.525L-10.8281 200.051L-10.8806 200.077Z" fill="#A68272"/>
<path d="M-10.8805 200.078L11.3401 304.539L11.3926 304.539L-10.828 200.064L-10.8805 200.078Z" fill="#A68272"/>
<path d="M-10.8248 200.059L31.1035 325.151L31.0537 325.168L-10.8746 200.075L-10.8248 200.059Z" fill="#A68272"/>
<path d="M-10.8673 200.077L55.3352 295.391L55.3877 295.365L-10.8279 200.051L-10.8673 200.077Z" fill="#A68272"/>
<path d="M-10.8675 200.077L47.5519 275.69L47.5913 275.664L-10.8281 200.051L-10.8675 200.077Z" fill="#A68272"/>
<path d="M-10.8673 200.077L43.4308 270.191L43.4702 270.165L-10.8279 200.051L-10.8673 200.077Z" fill="#A68272"/>
<path d="M-10.8674 200.077L40.6745 267.435L40.7139 267.408L-10.828 200.051L-10.8674 200.077Z" fill="#A68272"/>
<path d="M-10.8673 200.077L38.3908 266.07L38.4302 266.03L-10.8279 200.051L-10.8673 200.077Z" fill="#A68272"/>
<path d="M-10.8391 200.066L29.2568 259.177L29.2242 259.199L-10.8717 200.089L-10.8391 200.066Z" fill="#A68272"/>
<path d="M-10.8674 200.077L23.7301 250.477L23.7564 250.464L-10.8412 200.051L-10.8674 200.077Z" fill="#A68272"/>
<path d="M-10.8672 200.077L19.609 223.453L19.6353 223.426L-10.841 200.051L-10.8672 200.077Z" fill="#A68272"/>
<path d="M-10.854 200.051L-10.8409 200.078L25.1216 193.213L25.1085 193.174L-10.854 200.051Z" fill="#A68272"/>
<path d="M37.9464 167.514L37.9683 167.547L-10.8362 200.083L-10.858 200.05L37.9464 167.514Z" fill="#A68272"/>
<path d="M-10.867 200.051L-10.8408 200.077L56.7529 152.893L56.7267 152.854L-10.867 200.051Z" fill="#A68272"/>
<path d="M-10.8671 200.038L-10.8409 200.091L78.291 146.475L78.2648 146.436L-10.8671 200.038Z" fill="#A68272"/>
<path d="M-10.8672 200.038L-10.841 200.09L102.113 148.312L102.087 148.26L-10.8672 200.038Z" fill="#A68272"/>
<path d="M-10.8804 200.078L21.4202 332.036L21.4859 332.023L-10.8279 200.064L-10.8804 200.078Z" fill="#A68272"/>
<path d="M-10.8802 200.078L10.4217 316.457L10.4873 316.444L-10.8277 200.064L-10.8802 200.078Z" fill="#A68272"/>
<path d="M-10.8802 200.064L0.81415 290.798L0.853524 290.798L-10.8277 200.064L-10.8802 200.064Z" fill="#A68272"/>
<path d="M-9.05713 199.635L1.50391 254.107L1.46532 254.115L-9.09572 199.642L-9.05713 199.635Z" fill="#A68272"/>
<path d="M-10.8675 200.078L1.73256 225.737L1.75879 225.724L-10.8412 200.064L-10.8675 200.078Z" fill="#A68272"/>
<path d="M-10.854 200.077L10.9073 203.752L10.9204 203.713L-10.854 200.051L-10.854 200.077Z" fill="#A68272"/>
<path d="M-10.854 200.051L-10.8409 200.078L27.4185 184.052L27.4054 184.013L-10.854 200.051Z" fill="#A68272"/>
<path d="M-10.8543 200.051L-10.8412 200.09L45.7407 174.431L45.7276 174.392L-10.8543 200.051Z" fill="#A68272"/>
<path d="M-10.8542 200.037L-10.8411 200.09L70.0352 174.43L70.0221 174.378L-10.8542 200.037Z" fill="#A68272"/>
<path d="M-10.8541 200.038L-10.841 200.09L97.519 179.93L97.519 179.878L-10.8541 200.038Z" fill="#A68272"/>
<path d="M-10.8541 200.038L-10.8409 200.091L112.18 183.593L112.18 183.54L-10.8541 200.038Z" fill="#A68272"/>
<path d="M-10.8542 200.038L-10.841 200.091L53.5371 183.133L53.524 183.094L-10.8542 200.038Z" fill="#A68272"/>
<path d="M-10.8541 200.091L116.76 238.127L116.773 238.074L-10.8409 200.038L-10.8541 200.091Z" fill="#A68272"/>
<path d="M-10.8543 200.091L105.761 238.127L105.774 238.074L-10.8412 200.038L-10.8543 200.091Z" fill="#A68272"/>
<path d="M-10.8539 200.091L93.3848 238.127L93.398 238.074L-10.8408 200.038L-10.8539 200.091Z" fill="#A68272"/>
<path d="M-10.8541 200.091L77.8053 237.208L77.8315 237.156L-10.841 200.038L-10.8541 200.091Z" fill="#A68272"/>
<path d="M-10.8542 200.091L70.0089 236.289L70.0352 236.25L-10.8411 200.038L-10.8542 200.091Z" fill="#A68272"/>
<path d="M-10.854 200.091L64.0635 233.992L64.0767 233.953L-10.8409 200.038L-10.854 200.091Z" fill="#A68272"/>
<path d="M-10.8542 200.091L58.1045 230.331L58.1177 230.291L-10.8411 200.038L-10.8542 200.091Z" fill="#A68272"/>
<path d="M-10.854 200.09L53.9835 226.668L53.9966 226.616L-10.8409 200.051L-10.854 200.09Z" fill="#A68272"/>
<path d="M-10.854 200.09L49.4029 219.791L49.416 219.751L-10.8409 200.051L-10.854 200.09Z" fill="#A68272"/>
<path d="M-10.854 200.09L42.0791 202.374L42.0791 202.335L-10.854 200.051L-10.854 200.09Z" fill="#A68272"/>
<path d="M-10.854 200.051L-10.8409 200.09L42.0791 179.93L42.066 179.891L-10.854 200.051Z" fill="#A68272"/>
<path d="M-10.8671 200.051L-10.8408 200.077L44.8354 159.298L44.8092 159.271L-10.8671 200.051Z" fill="#A68272"/>
<path d="M-10.8673 200.051L-10.841 200.077L50.7939 146.934L50.7677 146.895L-10.8673 200.051Z" fill="#A68272"/>
<path d="M-10.8673 200.051L-10.841 200.077L55.834 140.975L55.8077 140.936L-10.8673 200.051Z" fill="#A68272"/>
<path d="M-10.8674 200.051L-10.8412 200.077L64.5488 135.476L64.5095 135.437L-10.8674 200.051Z" fill="#A68272"/>
<path d="M-10.8673 200.051L-10.8411 200.09L74.6289 131.814L74.5895 131.774L-10.8673 200.051Z" fill="#A68272"/>
<path d="M83.2655 128.088L83.2974 128.13L-10.8201 200.14L-10.852 200.098L83.2655 128.088Z" fill="#A68272"/>
<path d="M-10.867 200.038L-10.8408 200.09L90.668 127.233L90.6286 127.181L-10.867 200.038Z" fill="#A68272"/>
<path d="M-10.8673 200.038L-10.8411 200.091L98.9102 123.572L98.8708 123.52L-10.8673 200.038Z" fill="#A68272"/>
<path d="M-10.8543 200.091L113.558 226.669L113.558 226.616L-10.8411 200.038L-10.8543 200.091Z" fill="#A68272"/>
<path d="M-10.8445 200.066L103.481 239.008L103.465 239.058L-10.8614 200.116L-10.8445 200.066Z" fill="#A68272"/>
<path d="M-10.8671 200.091L95.2222 245.451L95.2354 245.411L-10.8409 200.038L-10.8671 200.091Z" fill="#A68272"/>
<path d="M-10.8674 200.091L89.2633 249.126L89.2764 249.073L-10.8411 200.038L-10.8674 200.091Z" fill="#A68272"/>
<path d="M-10.8672 200.091L82.8453 250.95L82.8716 250.911L-10.8409 200.038L-10.8672 200.091Z" fill="#A68272"/>
<path d="M-10.8671 200.077L59.0104 252.774L59.0366 252.748L-10.8409 200.051L-10.8671 200.077Z" fill="#A68272"/>
<path d="M-10.8674 200.077L53.0514 248.193L53.0776 248.154L-10.8411 200.051L-10.8674 200.077Z" fill="#A68272"/>
<path d="M-10.8671 200.077L44.3497 238.573L44.376 238.533L-10.8409 200.051L-10.8671 200.077Z" fill="#A68272"/>
<path d="M-10.8543 200.077L35.6476 223.453L35.6738 223.413L-10.8412 200.051L-10.8543 200.077Z" fill="#A68272"/>
<path d="M-10.854 200.051L-10.854 200.077L25.5811 197.334L25.5811 197.295L-10.854 200.051Z" fill="#A68272"/>
<path d="M-10.8673 200.051L-10.841 200.077L24.2158 170.297L24.1896 170.271L-10.8673 200.051Z" fill="#A68272"/>
<path d="M24.9584 149.657L24.9907 149.68L-10.2192 200.491L-10.2515 200.469L24.9584 149.657Z" fill="#A68272"/>
<path d="M-10.8674 200.05L-10.8281 200.077L30.6338 135.475L30.5944 135.449L-10.8674 200.05Z" fill="#A68272"/>
<path d="M-10.8674 200.051L-10.828 200.077L37.9707 126.761L37.9313 126.734L-10.8674 200.051Z" fill="#A68272"/>
<path d="M-10.867 200.051L-10.8277 200.077L47.1323 120.343L47.093 120.316L-10.867 200.051Z" fill="#A68272"/>
<path d="M-10.867 200.051L-10.8277 200.077L56.7529 117.599L56.7136 117.573L-10.867 200.051Z" fill="#A68272"/>
<path d="M-10.8674 200.051L-10.828 200.077L67.292 118.978L67.2526 118.938L-10.8674 200.051Z" fill="#A68272"/>
<path d="M-10.8673 200.051L-10.841 200.091L77.3721 122.64L77.3327 122.601L-10.8673 200.051Z" fill="#A68272"/>
<path d="M-10.8674 200.037L-10.8412 200.09L86.5332 128.598L86.5069 128.559L-10.8674 200.037Z" fill="#A68272"/>
<path d="M-10.8673 200.051L-10.8411 200.09L72.332 137.773L72.3058 137.733L-10.8673 200.051Z" fill="#A68272"/>
<path d="M71.8183 138.653L71.8496 138.695L-10.8446 200.109L-10.8759 200.067L71.8183 138.653Z" fill="#A68272"/>
<path d="M70.4707 139.607L70.502 139.649L-10.8751 200.085L-10.9064 200.043L70.4707 139.607Z" fill="#A68272"/>
<path d="M-10.8671 200.051L-10.8408 200.091L69.1167 141.435L69.0904 141.396L-10.8671 200.051Z" fill="#A68272"/>
<path d="M65.4076 145.965L65.438 146.008L-10.827 200.126L-10.8574 200.084L65.4076 145.965Z" fill="#A68272"/>
<path d="M-10.8671 200.05L-10.8409 200.09L59.0366 154.717L59.0104 154.69L-10.8671 200.05Z" fill="#A68272"/>
<path d="M-10.8672 200.051L-10.841 200.077L51.2534 163.432L51.2272 163.393L-10.8672 200.051Z" fill="#A68272"/>
<path d="M45.2856 168.898L45.3047 168.933L-10.8301 200.074L-10.8492 200.04L45.2856 168.898Z" fill="#A68272"/>
<path d="M-10.8542 200.051L-10.8411 200.077L41.1602 172.593L41.1471 172.554L-10.8542 200.051Z" fill="#A68272"/>
<path d="M36.3979 175.927L36.416 175.962L-10.6942 200.413L-10.7124 200.378L36.3979 175.927Z" fill="#A68272"/>
<path d="M-10.854 200.051L-10.8409 200.077L30.1616 182.673L30.1485 182.634L-10.854 200.051Z" fill="#A68272"/>
<path d="M-10.8543 200.051L-10.8411 200.077L24.2026 189.091L24.1895 189.052L-10.8543 200.051Z" fill="#A68272"/>
<path d="M-10.8542 200.051L-10.841 200.077L19.6221 192.294L19.609 192.255L-10.8542 200.051Z" fill="#A68272"/>
<path d="M14.5193 192.114L14.5312 192.151L-10.797 200.249L-10.809 200.212L14.5193 192.114Z" fill="#A68272"/>
<path d="M-10.8541 200.051L-10.841 200.077L8.16406 192.294L8.16406 192.255L-10.8541 200.051Z" fill="#A68272"/>
<path d="M-10.8802 200.064L-10.8277 200.064L0.853516 97.8857L0.814142 97.8857L-10.8802 200.064Z" fill="#A68272"/>
<path d="M-10.8803 200.064L-10.8278 200.077L17.3516 102.926L17.2991 102.913L-10.8803 200.064Z" fill="#A68272"/>
<path d="M-10.8803 200.064L-10.8278 200.077L22.3916 102.479L22.3391 102.453L-10.8803 200.064Z" fill="#A68272"/>
<path d="M-10.8672 200.038L-10.841 200.09L97.0728 120.356L97.0465 120.316L-10.8672 200.038Z" fill="#A68272"/>
<path d="M-10.8673 200.038L-10.8411 200.09L89.5127 133.415L89.4864 133.376L-10.8673 200.038Z" fill="#A68272"/>
<path d="M81.9344 147.108L81.9604 147.153L-10.8398 200.064L-10.8658 200.019L81.9344 147.108Z" fill="#A68272"/>
<path d="M-10.8542 200.038L-10.841 200.091L70.2715 161.595L70.2452 161.556L-10.8542 200.038Z" fill="#A68272"/>
<path d="M-10.8542 200.038L-10.841 200.09L60.6377 171.911L60.6246 171.858L-10.8542 200.038Z" fill="#A68272"/>
<path d="M-10.8542 200.051L-10.841 200.091L51.0171 178.776L51.004 178.736L-10.8542 200.051Z" fill="#A68272"/>
<path d="M39.4013 186.716L39.4111 186.754L-10.9728 199.728L-10.9826 199.69L39.4013 186.716Z" fill="#A68272"/>
<path d="M-10.8544 200.051L-10.8412 200.078L26.2632 193.213L26.2632 193.174L-10.8544 200.051Z" fill="#A68272"/>
<path d="M-10.8541 200.051L-10.841 200.078L17.3384 193.213L17.3252 193.174L-10.8541 200.051Z" fill="#A68272"/>
<path d="M-10.854 200.051L-10.8408 200.077L11.1436 191.834L11.1436 191.795L-10.854 200.051Z" fill="#A68272"/>
<path d="M-10.8542 200.051L-10.8411 200.077L4.96143 191.835L4.94829 191.809L-10.8542 200.051Z" fill="#A68272"/>
<path d="M-10.8805 200.064L-10.828 200.077L1.54883 116.221L1.49632 116.208L-10.8805 200.064Z" fill="#A68272"/>
<path d="M-10.8803 200.064L-10.8278 200.077L2.91406 116.904L2.87469 116.891L-10.8803 200.064Z" fill="#A68272"/>
<path d="M-10.8803 200.064L-10.8278 200.077L2.91406 116.904L2.87469 116.891L-10.8803 200.064Z" fill="#A68272"/>
<path d="M-10.8671 200.064L-10.8409 200.077L3.13721 162.959L3.11097 162.946L-10.8671 200.064Z" fill="#A68272"/>
<path d="M-10.8674 200.064L-10.8412 200.077L6.79883 159.297L6.77259 159.284L-10.8674 200.064Z" fill="#A68272"/>
<path d="M-10.8671 200.064L-10.8409 200.077L10.4741 159.297L10.4347 159.284L-10.8671 200.064Z" fill="#A68272"/>
<path d="M-10.8673 200.051L-10.841 200.077L12.2983 159.298L12.2721 159.271L-10.8673 200.051Z" fill="#A68272"/>
<path d="M-10.8675 200.051L-10.8412 200.077L15.9731 159.298L15.9338 159.271L-10.8675 200.051Z" fill="#A68272"/>
<path d="M-10.8672 200.05L-10.841 200.077L19.6353 162.04L19.5959 162.027L-10.8672 200.05Z" fill="#A68272"/>
<path d="M-10.8672 200.051L-10.841 200.077L19.6353 162.96L19.5959 162.934L-10.8672 200.051Z" fill="#A68272"/>
<path d="M-10.8672 200.051L-10.841 200.077L19.6353 162.96L19.5959 162.934L-10.8672 200.051Z" fill="#A68272"/>
<path d="M-10.8672 200.051L-10.841 200.077L19.6353 165.716L19.5959 165.689L-10.8672 200.051Z" fill="#A68272"/>
<path d="M-10.8672 200.051L-10.841 200.077L19.6353 169.378L19.609 169.352L-10.8672 200.051Z" fill="#A68272"/>
<path d="M-10.8674 200.051L-10.8412 200.077L18.7163 172.134L18.69 172.107L-10.8674 200.051Z" fill="#A68272"/>
<path d="M-10.8671 200.051L-10.8409 200.077L17.7979 175.796L17.7716 175.77L-10.8671 200.051Z" fill="#A68272"/>
<path d="M-10.8671 200.051L-10.8409 200.077L17.7979 179.458L17.7716 179.432L-10.8671 200.051Z" fill="#A68272"/>
<path d="M-10.854 200.051L-10.8409 200.077L17.7979 182.214L17.7716 182.188L-10.854 200.051Z" fill="#A68272"/>
<path d="M-10.8542 200.051L-10.8411 200.077L16.8789 184.957L16.8658 184.931L-10.8542 200.051Z" fill="#A68272"/>
<path d="M-10.8544 200.051L-10.8412 200.077L14.1226 188.632L14.1094 188.593L-10.8544 200.051Z" fill="#A68272"/>
<path d="M-10.8544 200.051L-10.8412 200.077L11.3794 194.131L11.3663 194.092L-10.8544 200.051Z" fill="#A68272"/>
<path d="M-10.8542 200.051L-10.8542 200.077L7.70459 197.793L7.70459 197.754L-10.8542 200.051Z" fill="#A68272"/>
<path d="M-10.8541 200.051L-10.8541 200.078L3.12402 197.794L3.12402 197.768L-10.8541 200.051Z" fill="#A68272"/>
<path d="M-10.8672 200.064L-10.8278 200.077L0.394043 160.204L0.35467 160.19L-10.8672 200.064Z" fill="#A68272"/>
<path d="M-10.8672 200.065L-10.8278 200.078L0.394043 159.285L0.35467 159.285L-10.8672 200.065Z" fill="#A68272"/>
<path d="M4.00758 155.627L4.04492 155.64L-10.8192 200.09L-10.8565 200.077L4.00758 155.627Z" fill="#A68272"/>
<path d="M-10.8671 200.065L-10.8277 200.078L5.89355 154.705L5.85418 154.691L-10.8671 200.065Z" fill="#A68272"/>
<path d="M8.44162 155.01L8.47754 155.026L-11.5889 199.739L-11.6248 199.723L8.44162 155.01Z" fill="#A68272"/>
<path d="M-10.8674 200.065L-10.8412 200.078L11.3926 154.718L11.3532 154.691L-10.8674 200.065Z" fill="#A68272"/>
<path d="M-10.8671 200.065L-10.8409 200.078L13.2173 154.718L13.191 154.691L-10.8671 200.065Z" fill="#A68272"/>
<path d="M-10.8671 200.065L-10.8409 200.078L13.2173 154.718L13.191 154.691L-10.8671 200.065Z" fill="#A68272"/>
<path d="M-10.8674 200.051L-10.8411 200.077L14.1357 156.541L14.0964 156.528L-10.8674 200.051Z" fill="#A68272"/>
<path d="M-10.8674 200.051L-10.8411 200.077L14.1357 156.541L14.0964 156.528L-10.8674 200.051Z" fill="#A68272"/>
<path d="M-10.8674 200.051L-10.8411 200.077L14.1357 158.379L14.0964 158.366L-10.8674 200.051Z" fill="#A68272"/>
<path d="M-10.8675 200.051L-10.8412 200.078L15.9731 161.136L15.9338 161.109L-10.8675 200.051Z" fill="#A68272"/>
<path d="M-10.8674 200.051L-10.8412 200.077L18.7163 164.797L18.69 164.771L-10.8674 200.051Z" fill="#A68272"/>
<path d="M-10.8674 200.051L-10.8412 200.077L18.7163 166.635L18.69 166.608L-10.8674 200.051Z" fill="#A68272"/>
</g>
</svg>
