<svg width="213" height="86" viewBox="0 0 213 86" fill="none" xmlns="http://www.w3.org/2000/svg">
<path d="M57.9873 64.5057H29.9308C25.3201 64.5057 21.5835 60.8064 21.5835 56.2419V28.466C21.5835 23.9014 25.3201 20.2021 29.9308 20.2021H57.9873C62.5979 20.2021 66.3346 23.9014 66.3346 28.466V56.2419C66.3346 60.8064 62.5979 64.5057 57.9873 64.5057Z" fill="#7782FF"/>
<path d="M52.021 42.7619C52.819 43.7526 53.2243 44.9063 53.2243 46.2104C53.2243 48.129 52.5783 49.6338 51.2863 50.6997C49.9943 51.7656 48.145 52.3174 45.7384 52.3174H35.2251V29.9336H45.485C47.7903 29.9336 49.5637 30.4352 50.8177 31.4258C52.0717 32.4165 52.705 33.8335 52.705 35.6643C52.705 37.0187 52.3377 38.1347 51.6157 39.0376C50.8937 39.9405 49.9437 40.5173 48.7657 40.7932C50.1463 41.1192 51.223 41.7713 52.021 42.7619ZM40.6844 39.0877H44.269C46.169 39.0877 47.119 38.2852 47.119 36.6801C47.119 35.075 46.1437 34.2724 44.2057 34.2724H40.6844V39.0877ZM47.6257 45.458C47.6257 44.6555 47.3597 44.0285 46.8277 43.577C46.2957 43.1256 45.5357 42.8999 44.5604 42.8999H40.6971V47.9284H44.5984C46.6124 47.9159 47.6257 47.1008 47.6257 45.458Z" fill="white"/>
<path d="M92.2632 52.3174L87.3739 43.8655H86.1326V52.3174H80.6606V29.9336H89.9959C91.7819 29.9336 93.3019 30.2346 94.5306 30.849C95.7719 31.4635 96.6965 32.3036 97.3172 33.3695C97.9379 34.4354 98.2419 35.6518 98.2419 37.0312C98.2419 38.6614 97.7859 40.0408 96.8865 41.1819C95.9746 42.323 94.6699 43.1005 92.9346 43.5269L98.3052 52.3299H92.2632V52.3174ZM86.1326 40.1662H89.5146C90.6039 40.1662 91.4019 39.9279 91.9086 39.4514C92.4152 38.9749 92.6812 38.2726 92.6812 37.3447C92.6812 36.4544 92.4152 35.7647 91.8959 35.2505C91.3766 34.7489 90.5786 34.4856 89.5146 34.4856H86.1326V40.1662Z" fill="#263238"/>
<path d="M122.992 48.2421H114.518L113.112 52.3301H107.362L115.646 30.1094H121.941L130.225 52.3301H124.411L122.992 48.2421ZM121.586 44.1165L118.774 35.8903L115.924 44.1165H121.586Z" fill="#263238"/>
<path d="M160.41 52.3174H154.938L145.792 38.5736V52.3174H140.32V29.9336H145.792L154.938 43.8027V29.9336H160.41V52.3174Z" fill="#263238"/>
<path d="M191.088 46.9254C190.138 48.6182 188.77 49.9475 186.997 50.9005C185.211 51.8535 183.121 52.3301 180.714 52.3301H172.177V29.9463H180.714C183.146 29.9463 185.249 30.4103 187.009 31.3382C188.783 32.2662 190.138 33.5703 191.088 35.2632C192.038 36.9561 192.507 38.8873 192.507 41.0943C192.507 43.2762 192.025 45.2199 191.088 46.9254ZM185.198 45.7967C186.376 44.6807 186.971 43.1007 186.971 41.0817C186.971 39.0503 186.376 37.4828 185.198 36.3667C184.02 35.2507 182.361 34.6864 180.22 34.6864H177.636V47.4771H180.22C182.361 47.4771 184.02 46.9253 185.198 45.7967Z" fill="#263238"/>
</svg>
