<svg width="214" height="86" viewBox="0 0 214 86" fill="none" xmlns="http://www.w3.org/2000/svg">
<path d="M34.8818 27.4986C34.7577 27.2007 34.5901 26.8221 34.3791 26.3628C34.1805 25.9035 33.9632 25.407 33.7274 24.8732C33.4915 24.3395 33.2371 23.7933 32.964 23.2347C32.7033 22.6637 32.455 22.1299 32.2192 21.6334C31.9833 21.1244 31.7599 20.6713 31.5489 20.2741C31.3503 19.8769 31.1889 19.5728 31.0648 19.3618C30.9282 20.8265 30.8165 22.4154 30.7296 24.1284C30.6427 25.829 30.5682 27.5483 30.5062 29.2861H28.7373C28.7869 28.1689 28.8428 27.0455 28.9049 25.9159C28.9669 24.7739 29.0352 23.6567 29.1097 22.5644C29.1966 21.4596 29.2835 20.3858 29.3704 19.3431C29.4697 18.3004 29.5752 17.3136 29.6869 16.3826H31.2696C31.6047 16.9288 31.9647 17.5742 32.3495 18.319C32.7343 19.0638 33.1191 19.8459 33.504 20.6651C33.8888 21.472 34.2612 22.2851 34.6211 23.1043C34.9811 23.9112 35.3101 24.6498 35.608 25.3201C35.9059 24.6498 36.2349 23.9112 36.5949 23.1043C36.9548 22.2851 37.3272 21.472 37.712 20.6651C38.0969 19.8459 38.4817 19.0638 38.8665 18.319C39.2513 17.5742 39.6113 16.9288 39.9464 16.3826H41.5291C41.9512 20.541 42.2677 24.8422 42.4787 29.2861H40.7098C40.6478 27.5483 40.5733 25.829 40.4864 24.1284C40.3995 22.4154 40.2878 20.8265 40.1512 19.3618C40.0271 19.5728 39.8595 19.8769 39.6485 20.2741C39.4499 20.6713 39.2327 21.1244 38.9968 21.6334C38.761 22.1299 38.5065 22.6637 38.2334 23.2347C37.9727 23.7933 37.7245 24.3395 37.4886 24.8732C37.2528 25.407 37.0293 25.9035 36.8183 26.3628C36.6197 26.8221 36.4583 27.2007 36.3342 27.4986H34.8818ZM53.7455 24.445C53.7455 25.2146 53.6338 25.9097 53.4103 26.5304C53.1869 27.1511 52.8704 27.6848 52.4607 28.1317C52.0635 28.5786 51.5856 28.9261 51.027 29.1744C50.4684 29.4103 49.8601 29.5282 49.2022 29.5282C48.5443 29.5282 47.9361 29.4103 47.3775 29.1744C46.8189 28.9261 46.3348 28.5786 45.9251 28.1317C45.5279 27.6848 45.2176 27.1511 44.9942 26.5304C44.7707 25.9097 44.659 25.2146 44.659 24.445C44.659 23.6878 44.7707 22.9988 44.9942 22.3782C45.2176 21.7451 45.5279 21.2051 45.9251 20.7582C46.3348 20.3114 46.8189 19.97 47.3775 19.7341C47.9361 19.4859 48.5443 19.3618 49.2022 19.3618C49.8601 19.3618 50.4684 19.4859 51.027 19.7341C51.5856 19.97 52.0635 20.3114 52.4607 20.7582C52.8704 21.2051 53.1869 21.7451 53.4103 22.3782C53.6338 22.9988 53.7455 23.6878 53.7455 24.445ZM51.9394 24.445C51.9394 23.3526 51.6911 22.4899 51.1946 21.8568C50.7104 21.2113 50.0463 20.8886 49.2022 20.8886C48.3581 20.8886 47.6878 21.2113 47.1913 21.8568C46.7072 22.4899 46.4651 23.3526 46.4651 24.445C46.4651 25.5373 46.7072 26.4063 47.1913 27.0518C47.6878 27.6848 48.3581 28.0014 49.2022 28.0014C50.0463 28.0014 50.7104 27.6848 51.1946 27.0518C51.6911 26.4063 51.9394 25.5373 51.9394 24.445ZM62.438 21.652C62.227 21.4782 61.9229 21.3106 61.5257 21.1493C61.1284 20.9879 60.694 20.9072 60.2223 20.9072C59.7258 20.9072 59.2975 21.0003 58.9375 21.1865C58.5899 21.3603 58.3044 21.6085 58.081 21.9313C57.8576 22.2416 57.6962 22.614 57.5969 23.0485C57.4976 23.4829 57.4479 23.9484 57.4479 24.445C57.4479 25.5746 57.7272 26.4497 58.2858 27.0704C58.8444 27.6786 59.5892 27.9827 60.5202 27.9827C60.9919 27.9827 61.3829 27.9641 61.6933 27.9269C62.016 27.8772 62.2643 27.8276 62.438 27.7779V21.652ZM62.438 15.135L64.1697 14.8371V29.0068C63.7725 29.1186 63.2635 29.2303 62.6429 29.342C62.0222 29.4537 61.3084 29.5096 60.5016 29.5096C59.7568 29.5096 59.0865 29.3916 58.4906 29.1558C57.8948 28.9199 57.3859 28.5848 56.9638 28.1503C56.5418 27.7159 56.2128 27.1883 55.977 26.5676C55.7535 25.9346 55.6418 25.227 55.6418 24.445C55.6418 23.7002 55.7349 23.0174 55.9211 22.3968C56.1197 21.7761 56.4052 21.2424 56.7776 20.7955C57.15 20.3486 57.6031 20.001 58.1369 19.7528C58.683 19.5045 59.3037 19.3804 59.9988 19.3804C60.5574 19.3804 61.0478 19.4549 61.4698 19.6038C61.9043 19.7528 62.227 19.8955 62.438 20.0321V15.135ZM66.6064 24.4636C66.6064 23.6071 66.7306 22.8623 66.9788 22.2292C67.2271 21.5837 67.556 21.05 67.9657 20.6279C68.3753 20.2059 68.847 19.8893 69.3808 19.6783C69.9145 19.4673 70.4607 19.3618 71.0193 19.3618C72.3227 19.3618 73.322 19.7714 74.0171 20.5907C74.7123 21.3975 75.0598 22.6326 75.0598 24.296C75.0598 24.3705 75.0598 24.4698 75.0598 24.5939C75.0598 24.7056 75.0536 24.8112 75.0412 24.9105H68.4125C68.487 25.9159 68.7787 26.6794 69.2877 27.2007C69.7966 27.7221 70.5911 27.9827 71.671 27.9827C72.2793 27.9827 72.7882 27.9331 73.1978 27.8338C73.6199 27.7221 73.9364 27.6166 74.1475 27.5172L74.3895 28.9696C74.1785 29.0813 73.8061 29.1992 73.2723 29.3234C72.751 29.4475 72.1551 29.5096 71.4848 29.5096C70.6407 29.5096 69.9083 29.3854 69.2877 29.1372C68.6794 28.8765 68.1767 28.5227 67.7795 28.0758C67.3822 27.629 67.0843 27.1014 66.8857 26.4932C66.6995 25.8725 66.6064 25.196 66.6064 24.4636ZM73.2537 23.514C73.2661 22.7319 73.0675 22.0927 72.6579 21.5961C72.2606 21.0872 71.7083 20.8327 71.0007 20.8327C70.6035 20.8327 70.2497 20.9134 69.9394 21.0748C69.6415 21.2237 69.387 21.4223 69.176 21.6706C68.9649 21.9189 68.7974 22.2044 68.6732 22.5271C68.5615 22.8499 68.487 23.1788 68.4498 23.514H73.2537ZM81.1223 19.399C81.2713 19.399 81.4389 19.4114 81.6251 19.4362C81.8237 19.4486 82.0161 19.4735 82.2023 19.5107C82.3885 19.5355 82.5561 19.5666 82.705 19.6038C82.8664 19.6286 82.9843 19.6535 83.0588 19.6783L82.7609 21.1865C82.6243 21.1368 82.3947 21.081 82.072 21.0189C81.7616 20.9444 81.3582 20.9072 80.8617 20.9072C80.5389 20.9072 80.2162 20.9444 79.8934 21.0189C79.5831 21.081 79.3783 21.1244 79.279 21.1493V29.2861H77.5473V20.0134C77.957 19.8645 78.4659 19.7279 79.0742 19.6038C79.6824 19.4673 80.3651 19.399 81.1223 19.399ZM84.7298 19.8831C85.127 19.7838 85.6546 19.6783 86.3125 19.5666C86.9704 19.4549 87.7276 19.399 88.5841 19.399C89.3537 19.399 89.993 19.5107 90.5019 19.7341C91.0109 19.9452 91.4143 20.2493 91.7122 20.6465C92.0226 21.0313 92.2398 21.4968 92.3639 22.043C92.4881 22.5892 92.5501 23.1912 92.5501 23.8491V29.2861H90.8185V24.2215C90.8185 23.6257 90.775 23.1168 90.6881 22.6947C90.6137 22.2727 90.4833 21.9313 90.2971 21.6706C90.1109 21.4099 89.8627 21.2237 89.5523 21.112C89.242 20.9879 88.8572 20.9258 88.3979 20.9258C88.2117 20.9258 88.0193 20.932 87.8207 20.9444C87.6221 20.9569 87.4297 20.9755 87.2435 21.0003C87.0697 21.0127 86.9083 21.0313 86.7594 21.0562C86.6228 21.081 86.5235 21.0996 86.4614 21.112V29.2861H84.7298V19.8831Z" fill="#263238"/>
<path d="M39.3003 63.8145C34.8049 63.8145 31.3735 62.5643 29.0062 60.0639C26.6654 57.5635 25.495 54.0124 25.495 49.4107C25.495 47.1231 25.8541 45.0882 26.5723 43.306C27.2905 41.4972 28.2747 39.981 29.5249 38.7575C30.775 37.5073 32.2646 36.563 33.9936 35.9246C35.7226 35.2862 37.5979 34.967 39.6195 34.967C40.7899 34.967 41.8539 35.0601 42.8114 35.2463C43.769 35.4059 44.6069 35.6054 45.3251 35.8448C46.0433 36.0576 46.6418 36.2837 47.1206 36.5231C47.5994 36.7625 47.9452 36.9487 48.158 37.0817L46.3625 42.109C45.5113 41.6568 44.5138 41.2711 43.37 40.9519C42.2528 40.6327 40.9761 40.4731 39.5397 40.4731C38.5821 40.4731 37.6378 40.6327 36.7068 40.9519C35.8024 41.2711 34.9911 41.7898 34.2729 42.508C33.5813 43.1996 33.0227 44.104 32.5971 45.2212C32.1715 46.3384 31.9587 47.695 31.9587 49.291C31.9587 50.5678 32.0917 51.7648 32.3577 52.8819C32.6503 53.9725 33.1025 54.9168 33.7143 55.7148C34.3527 56.5128 35.1773 57.1512 36.1881 57.63C37.1989 58.0822 38.4225 58.3083 39.8589 58.3083C40.7633 58.3083 41.5746 58.2551 42.2927 58.1487C43.0109 58.0423 43.6493 57.9226 44.2079 57.7896C44.7665 57.63 45.2586 57.4571 45.6842 57.2709C46.1098 57.0847 46.4955 56.9118 46.8413 56.7522L48.557 61.7397C47.6792 62.2717 46.4423 62.7505 44.8463 63.1761C43.2503 63.6017 41.4017 63.8145 39.3003 63.8145ZM64.8136 47.5354C64.2816 47.4024 63.6565 47.2694 62.9383 47.1364C62.2201 46.9768 61.4487 46.897 60.6242 46.897C60.2518 46.897 59.7996 46.9369 59.2676 47.0167C58.7622 47.0699 58.3765 47.1364 58.1105 47.2162V63.2559H52.1654V43.3858C53.2294 43.0134 54.4796 42.6676 55.916 42.3484C57.379 42.0026 59.0016 41.8297 60.7838 41.8297C61.103 41.8297 61.4886 41.8563 61.9408 41.9095C62.393 41.9361 62.8452 41.9893 63.2974 42.0691C63.7496 42.1223 64.2018 42.2021 64.654 42.3085C65.1062 42.3883 65.4919 42.4947 65.8111 42.6277L64.8136 47.5354ZM88.8781 42.2686C87.6811 46.3118 86.4309 50.1023 85.1275 53.64C83.8242 57.1778 82.4011 60.6092 80.8583 63.9342C80.2997 65.1311 79.7411 66.1419 79.1825 66.9665C78.6239 67.8177 78.0121 68.5093 77.3471 69.0413C76.6821 69.5999 75.924 69.9989 75.0728 70.2383C74.2482 70.5043 73.2773 70.6373 72.1602 70.6373C71.2292 70.6373 70.3647 70.5442 69.5667 70.358C68.7953 70.1984 68.1569 70.0122 67.6515 69.7994L68.6889 65.0513C69.3007 65.2641 69.846 65.4104 70.3248 65.4902C70.8036 65.57 71.309 65.6099 71.841 65.6099C72.9049 65.6099 73.7162 65.3173 74.2748 64.7321C74.86 64.1736 75.3521 63.3889 75.7511 62.3781C74.3945 59.7181 73.0379 56.7389 71.6814 53.4405C70.3248 50.1156 69.048 46.3916 67.851 42.2686H74.1551C74.4211 43.306 74.727 44.4365 75.0728 45.6601C75.4452 46.8571 75.8309 48.0807 76.2299 49.3309C76.6289 50.5545 77.0279 51.7515 77.4269 52.9218C77.8525 54.0922 78.2515 55.1562 78.6239 56.1138C78.9697 55.1562 79.3288 54.0922 79.7012 52.9218C80.0736 51.7515 80.4327 50.5545 80.7785 49.3309C81.1509 48.0807 81.4967 46.8571 81.8159 45.6601C82.1617 44.4365 82.4676 43.306 82.7336 42.2686H88.8781ZM105.511 52.9218C105.511 51.0865 105.099 49.6235 104.274 48.5329C103.45 47.4157 102.226 46.8571 100.604 46.8571C100.072 46.8571 99.5795 46.8837 99.1273 46.9369C98.6751 46.9635 98.3028 47.0034 98.0102 47.0566V57.7896C98.3826 58.029 98.8613 58.2285 99.4465 58.3881C100.058 58.5477 100.67 58.6275 101.282 58.6275C104.102 58.6275 105.511 56.7256 105.511 52.9218ZM111.576 52.7622C111.576 54.3848 111.377 55.8611 110.978 57.1911C110.579 58.5211 109.993 59.6649 109.222 60.6225C108.451 61.5801 107.493 62.3249 106.349 62.8569C105.205 63.3889 103.889 63.6549 102.399 63.6549C101.575 63.6549 100.803 63.5751 100.085 63.4155C99.3667 63.2559 98.6751 63.0298 98.0102 62.7372V70.6373H92.0651V42.9868C92.5971 42.8272 93.2089 42.6809 93.9005 42.5479C94.5921 42.3883 95.3103 42.2553 96.0551 42.1489C96.8265 42.0425 97.5979 41.9627 98.3693 41.9095C99.1672 41.8297 99.9253 41.7898 100.644 41.7898C102.373 41.7898 103.915 42.0558 105.272 42.5878C106.628 43.0932 107.772 43.8247 108.703 44.7823C109.634 45.7133 110.339 46.8571 110.818 48.2137C111.323 49.5703 111.576 51.0865 111.576 52.7622ZM115.946 37.0418L121.891 36.0842V42.2686H129.033V47.2162H121.891V54.5976C121.891 55.8478 122.104 56.8453 122.529 57.5901C122.981 58.3349 123.872 58.7073 125.202 58.7073C125.841 58.7073 126.492 58.6541 127.157 58.5477C127.849 58.4147 128.474 58.2418 129.033 58.029L129.871 62.6574C129.152 62.95 128.354 63.2027 127.477 63.4155C126.599 63.6283 125.522 63.7347 124.245 63.7347C122.622 63.7347 121.279 63.5219 120.215 63.0963C119.151 62.6441 118.3 62.0323 117.661 61.2609C117.023 60.4629 116.571 59.5053 116.305 58.3881C116.065 57.2709 115.946 56.034 115.946 54.6774V37.0418ZM152.725 52.7223C152.725 54.3715 152.486 55.8877 152.007 57.2709C151.528 58.6275 150.837 59.7979 149.932 60.7821C149.028 61.7397 147.937 62.4845 146.661 63.0165C145.41 63.5485 144.001 63.8145 142.431 63.8145C140.888 63.8145 139.479 63.5485 138.202 63.0165C136.952 62.4845 135.874 61.7397 134.97 60.7821C134.066 59.7979 133.361 58.6275 132.855 57.2709C132.35 55.8877 132.097 54.3715 132.097 52.7223C132.097 51.0732 132.35 49.5703 132.855 48.2137C133.387 46.8571 134.106 45.7 135.01 44.7424C135.941 43.7848 137.032 43.04 138.282 42.508C139.558 41.976 140.942 41.71 142.431 41.71C143.947 41.71 145.331 41.976 146.581 42.508C147.858 43.04 148.948 43.7848 149.853 44.7424C150.757 45.7 151.462 46.8571 151.967 48.2137C152.473 49.5703 152.725 51.0732 152.725 52.7223ZM146.661 52.7223C146.661 50.887 146.288 49.4506 145.543 48.4132C144.825 47.3492 143.788 46.8172 142.431 46.8172C141.075 46.8172 140.024 47.3492 139.279 48.4132C138.534 49.4506 138.162 50.887 138.162 52.7223C138.162 54.5577 138.534 56.0207 139.279 57.1113C140.024 58.1753 141.075 58.7073 142.431 58.7073C143.788 58.7073 144.825 58.1753 145.543 57.1113C146.288 56.0207 146.661 54.5577 146.661 52.7223Z" fill="#263238"/>
<path d="M175.119 67.4756V50.2609L161.819 38.2158V67.4756H175.119Z" fill="#27CAEA"/>
<path d="M191.014 67.0582V50.0891L178.171 38.2158V67.0582H191.014Z" fill="#FFB04E"/>
</svg>
