<svg width="213" height="86" viewBox="0 0 213 86" fill="none" xmlns="http://www.w3.org/2000/svg">
<path d="M45.8335 49.0348V18.7861H63.8285V49.02H45.8335V49.0348ZM61.6482 41.9975L62.1112 38.6562L60.4386 38.4936L59.9308 41.066C58.8855 41.5835 57.6012 41.8348 56.063 41.8348C53.9723 41.8348 52.3147 41.1843 51.1051 39.8685C49.8805 38.5527 49.2832 36.823 49.2832 34.6645C49.2832 32.5651 49.8805 30.8353 51.0603 29.4752C52.24 28.115 53.7932 27.4349 55.7196 27.4349C56.7052 27.4349 57.5415 27.5532 58.2135 27.775C58.8855 27.9967 59.4978 28.2924 60.0802 28.6768L60.573 31.2197L62.2754 31.0571L61.7826 27.7158C61.0658 27.1097 60.2146 26.6218 59.229 26.2374C58.2433 25.8678 57.0188 25.6756 55.5702 25.6756C53.8529 25.6756 52.3744 26.0896 51.135 26.9323C49.8955 27.775 48.9248 28.8838 48.2378 30.2587C47.5509 31.6485 47.2074 33.1417 47.2074 34.7384C47.2074 37.2665 47.9989 39.3806 49.5818 41.066C51.1648 42.7515 53.2256 43.5942 55.7793 43.5942C58.2881 43.5942 60.2445 43.0619 61.6482 41.9975Z" fill="#263238"/>
<path d="M69.9365 49.0348V18.7861H77.6721V49.02H69.9365V49.0348ZM70.7579 43.328H76.8657V41.8053H74.7601V24.9216H70.728V26.4444H72.8635V41.8053H70.7579V43.328Z" fill="#263238"/>
<path d="M83.7803 49.0348V18.7861H97.3699V49.02H83.7803V49.0348ZM86.2443 32.3285L85.8113 35.0784L87.3793 35.2706L87.8422 33.2156C88.5142 32.8903 89.2758 32.7277 90.1719 32.7277C91.2471 32.7277 91.9789 32.9938 92.3522 33.5261C92.7255 34.0583 92.9047 34.7532 92.9047 35.6106V36.6751C92.5762 36.6455 92.2327 36.616 91.8594 36.6012C91.486 36.5864 91.1276 36.5716 90.7692 36.5716C89.4252 36.5716 88.1409 36.8082 86.9462 37.2813C85.7515 37.7544 85.1542 38.7449 85.1542 40.2381C85.1542 41.5096 85.5574 42.3818 86.3788 42.8549C87.2001 43.3428 88.0065 43.5794 88.798 43.5794C89.7687 43.5794 90.6049 43.328 91.2919 42.8254C91.9788 42.3227 92.5165 41.7609 92.9047 41.1104V41.1695C92.9346 42.781 93.6664 43.5794 95.1 43.5794C95.6525 43.5794 96.1752 43.4463 96.668 43.1802L96.6381 41.9531C96.3992 42.0566 96.1304 42.1157 95.8317 42.1157C95.1448 42.1157 94.8013 41.687 94.8013 40.8295V35.1671C94.8013 32.5059 93.3677 31.1754 90.5004 31.1754C89.7089 31.1754 88.9622 31.2641 88.2604 31.4415C87.5435 31.6337 86.8715 31.9294 86.2443 32.3285ZM92.8898 38.8632C92.8151 39.8389 92.4119 40.6225 91.6802 41.1843C90.9484 41.7609 90.1719 42.0418 89.3356 42.0418C88.8129 42.0418 88.3052 41.894 87.8273 41.6131C87.3345 41.3322 87.0955 40.7999 87.0955 40.0311C87.0955 39.0997 87.4689 38.5084 88.1857 38.2275C88.9175 37.9466 89.7238 37.8135 90.6348 37.8135C91.038 37.8135 91.4263 37.8283 91.7996 37.8726C92.173 37.9022 92.5463 37.9318 92.8748 37.9466V38.8632H92.8898Z" fill="#263238"/>
<path d="M103.492 49.0348V18.7861H115.842V49.02H103.492V49.0348ZM114.543 39.8833C114.543 38.9371 114.289 38.2422 113.781 37.7839C113.274 37.3256 112.661 37.0152 111.915 36.8377C111.168 36.6603 110.436 36.5125 109.705 36.3942C108.973 36.2759 108.346 36.0837 107.838 35.8324C107.33 35.5811 107.076 35.1376 107.076 34.5018C107.076 33.8957 107.315 33.4521 107.808 33.1565C108.301 32.8608 108.913 32.7277 109.675 32.7277C110.556 32.7277 111.377 32.9199 112.139 33.3191L112.437 35.241L114.005 35.0488L113.707 32.2694C113.199 31.9589 112.587 31.7076 111.855 31.5006C111.123 31.2936 110.347 31.1754 109.51 31.1754C108.405 31.1754 107.39 31.4415 106.449 31.9589C105.508 32.4764 105.045 33.3634 105.045 34.6349C105.045 35.5663 105.299 36.2464 105.807 36.6751C106.315 37.1186 106.942 37.4143 107.703 37.5917C108.465 37.7691 109.212 37.917 109.958 38.0501C110.705 38.1683 111.332 38.3753 111.84 38.6414C112.348 38.9075 112.602 39.3659 112.602 40.0311C112.602 40.7112 112.273 41.2139 111.616 41.5391C110.959 41.8644 110.212 42.027 109.361 42.027C108.405 42.027 107.509 41.8348 106.688 41.4357L106.763 39.8537L105.254 39.6911L104.881 42.3966C105.404 42.7367 106.091 43.0176 106.927 43.2393C107.763 43.4611 108.599 43.5794 109.451 43.5794C110.899 43.5794 112.109 43.2541 113.08 42.5888C114.05 41.9531 114.543 41.0365 114.543 39.8833Z" fill="#263238"/>
<path d="M121.951 49.0348V18.7861H134.301V49.02H121.951V49.0348ZM133.002 39.8833C133.002 38.9371 132.748 38.2422 132.24 37.7839C131.732 37.3256 131.12 37.0152 130.373 36.8377C129.626 36.6603 128.895 36.5125 128.163 36.3942C127.431 36.2759 126.804 36.0837 126.296 35.8324C125.789 35.5811 125.535 35.1376 125.535 34.5018C125.535 33.8957 125.774 33.4521 126.266 33.1565C126.759 32.8608 127.372 32.7277 128.133 32.7277C129.014 32.7277 129.836 32.9199 130.597 33.3191L130.896 35.241L132.464 35.0488L132.165 32.2694C131.657 31.9589 131.045 31.7076 130.313 31.5006C129.582 31.2936 128.805 31.1754 127.969 31.1754C126.864 31.1754 125.848 31.4415 124.908 31.9589C123.967 32.4764 123.504 33.3634 123.504 34.6349C123.504 35.5663 123.758 36.2464 124.265 36.6751C124.773 37.1186 125.4 37.4143 126.162 37.5917C126.924 37.7691 127.67 37.917 128.417 38.0501C129.164 38.1683 129.791 38.3753 130.299 38.6414C130.806 38.9075 131.06 39.3659 131.06 40.0311C131.06 40.7112 130.732 41.2139 130.075 41.5391C129.417 41.8644 128.671 42.027 127.82 42.027C126.864 42.027 125.968 41.8348 125.146 41.4357L125.221 39.8537L123.713 39.6911L123.339 42.3966C123.862 42.7367 124.549 43.0176 125.385 43.2393C126.222 43.4611 127.058 43.5794 127.909 43.5794C129.358 43.5794 130.567 43.2541 131.538 42.5888C132.509 41.9531 133.002 41.0365 133.002 39.8833Z" fill="#263238"/>
<path d="M140.409 49.0348V18.7861H148.548V49.02H140.409V49.0348ZM141.603 43.328H147.711V41.8053H145.606V31.4267H141.559V32.9495H143.724V41.8053H141.618V43.328H141.603ZM143.515 25.9122V28.3516H145.576V25.9122H143.515Z" fill="#263238"/>
<path d="M154.655 49.0348V18.7861H167.662V49.02H154.655V49.0348ZM166.497 39.3215L164.869 38.9667C164.511 40.9773 163.421 41.9827 161.629 41.9827C160.434 41.9827 159.523 41.5835 158.896 40.7851C158.269 39.9868 157.955 38.8632 157.955 37.4439C157.955 36.1577 158.239 35.0636 158.791 34.147C159.344 33.2304 160.27 32.7868 161.554 32.7868C162.54 32.7868 163.406 33.0086 164.123 33.4521L164.586 35.4628L166.154 35.2706L165.691 32.4025C165.078 31.9441 164.436 31.6189 163.764 31.4415C163.092 31.2641 162.361 31.1754 161.569 31.1754C159.702 31.1754 158.284 31.8259 157.358 33.1269C156.417 34.4279 155.954 35.9063 155.954 37.5474C155.954 39.4546 156.447 40.9478 157.447 41.9975C158.433 43.0619 159.762 43.5942 161.42 43.5942C163.077 43.5942 164.302 43.1358 165.079 42.234C165.855 41.3174 166.333 40.3564 166.497 39.3215Z" fill="#263238"/>
<path d="M53.6143 65.5488C53.2708 66.1697 52.7631 66.6576 52.106 66.9976C51.434 67.3377 50.6425 67.5151 49.7166 67.5151H47.0435V59.1768H49.7166C50.6425 59.1768 51.4489 59.3394 52.106 59.6794C52.7631 60.0195 53.2708 60.4926 53.6143 61.1283C53.9578 61.764 54.122 62.4884 54.122 63.3459C54.122 64.1886 53.9578 64.9278 53.6143 65.5488ZM52.1358 65.7114C52.7182 65.1496 53.002 64.366 53.002 63.3459C53.002 62.3258 52.7182 61.5422 52.1358 60.9804C51.5534 60.4186 50.7171 60.1377 49.612 60.1377H48.1038V66.5541H49.612C50.7171 66.5541 51.5534 66.2732 52.1358 65.7114Z" fill="#FF5196"/>
<path d="M59.6624 60.049V62.9024H62.8583V63.7303H59.6624V66.6428H63.2166V67.5151H58.5723V59.1768H63.2166V60.049H59.6624Z" fill="#FF5196"/>
<path d="M72.6547 66.4505C72.4606 66.7905 72.1768 67.0714 71.7886 67.2784C71.4003 67.4854 70.9224 67.6036 70.34 67.6036C69.7875 67.6036 69.2797 67.5001 68.8466 67.308C68.4136 67.101 68.0701 66.8349 67.8013 66.48C67.5474 66.1252 67.3981 65.726 67.3533 65.2825H68.5181C68.548 65.5191 68.6226 65.7556 68.757 65.9774C68.8914 66.1991 69.1005 66.3913 69.3544 66.5392C69.6083 66.687 69.9219 66.7609 70.2952 66.7609C70.7731 66.7609 71.1465 66.6427 71.4003 66.3765C71.6542 66.1104 71.7886 65.8 71.7886 65.4008C71.7886 65.0607 71.699 64.7798 71.5198 64.5729C71.3406 64.3659 71.1166 64.1885 70.8627 64.0702C70.6088 63.9519 70.2355 63.8189 69.7875 63.671C69.2499 63.4936 68.8317 63.331 68.5032 63.1831C68.1747 63.0353 67.9058 62.7987 67.6818 62.4883C67.4578 62.1778 67.3384 61.7786 67.3384 61.276C67.3384 60.8472 67.4429 60.4628 67.652 60.1228C67.861 59.7975 68.1597 59.5314 68.5629 59.354C68.9512 59.1766 69.4291 59.0879 69.9518 59.0879C70.7731 59.0879 71.4451 59.2801 71.923 59.6793C72.4158 60.0784 72.6846 60.5811 72.7742 61.202H71.6094C71.5496 60.8768 71.3704 60.5811 71.1016 60.3298C70.8179 60.0784 70.4445 59.9454 69.9667 59.9454C69.5336 59.9454 69.1752 60.0637 68.9213 60.2854C68.6525 60.5072 68.5331 60.8324 68.5331 61.2316C68.5331 61.5569 68.6227 61.823 68.7869 62.0152C68.9661 62.2222 69.1752 62.37 69.4291 62.4883C69.6829 62.6065 70.0413 62.7248 70.4744 62.8727C71.012 63.0501 71.4451 63.2127 71.7886 63.3753C72.1171 63.538 72.4008 63.7745 72.6248 64.085C72.8489 64.3954 72.9683 64.8242 72.9683 65.3564C72.9385 65.7408 72.8489 66.1104 72.6547 66.4505Z" fill="#FF5196"/>
<path d="M78.4784 59.1768V67.5151H77.3882V59.1768H78.4784Z" fill="#FF5196"/>
<path d="M89.4994 59.8124C90.1714 60.3003 90.6194 60.9508 90.8434 61.7787H89.6936C89.4994 61.2761 89.1559 60.8621 88.693 60.5664C88.23 60.256 87.6775 60.1081 87.0354 60.1081C86.4679 60.1081 85.9452 60.2412 85.4972 60.5073C85.0492 60.7734 84.6908 61.143 84.422 61.6309C84.1681 62.1188 84.0337 62.6954 84.0337 63.3607C84.0337 64.0407 84.1681 64.6321 84.422 65.12C84.6759 65.6079 85.0492 65.9923 85.5121 66.2584C85.9751 66.5245 86.5127 66.6576 87.125 66.6576C87.6477 66.6576 88.1106 66.5393 88.5436 66.3323C88.9767 66.1105 89.3202 65.7853 89.6039 65.3713C89.8877 64.9574 90.037 64.4547 90.0968 63.8929H86.7815V63.0945H91.0077V64.0851C90.933 64.7504 90.724 65.3418 90.3805 65.8888C90.037 66.4358 89.5741 66.8497 88.9917 67.1602C88.4093 67.4707 87.7522 67.6333 87.0055 67.6333C86.1991 67.6333 85.4822 67.4559 84.855 67.1011C84.2278 66.7463 83.7499 66.2436 83.4065 65.5931C83.063 64.9574 82.8838 64.2181 82.8838 63.3902C82.8838 62.5623 83.063 61.8231 83.4065 61.1874C83.7499 60.5516 84.2428 60.0342 84.855 59.6794C85.4673 59.3246 86.1841 59.1324 86.9905 59.1324C88.006 59.1028 88.8274 59.3393 89.4994 59.8124Z" fill="#FF5196"/>
<path d="M102.029 67.5151H100.939L96.5633 60.9213V67.5151H95.4731V59.1768H96.5633L100.939 65.7705V59.1768H102.029V67.5151Z" fill="#FF5196"/>
<path d="M117.739 66.4505C117.545 66.7905 117.261 67.0714 116.873 67.2784C116.484 67.4854 116.006 67.6036 115.424 67.6036C114.871 67.6036 114.364 67.5001 113.931 67.308C113.498 67.101 113.154 66.8349 112.885 66.48C112.631 66.1252 112.482 65.726 112.437 65.2825H113.602C113.632 65.5191 113.707 65.7556 113.841 65.9774C113.975 66.1991 114.184 66.3913 114.438 66.5392C114.692 66.687 115.006 66.7609 115.379 66.7609C115.857 66.7609 116.23 66.6427 116.484 66.3765C116.738 66.1104 116.873 65.8 116.873 65.4008C116.873 65.0607 116.783 64.7798 116.604 64.5729C116.425 64.3659 116.201 64.1885 115.947 64.0702C115.693 63.9519 115.32 63.8189 114.871 63.671C114.334 63.4936 113.916 63.331 113.587 63.1831C113.259 63.0353 112.99 62.7987 112.766 62.4883C112.542 62.1778 112.422 61.7786 112.422 61.276C112.422 60.8472 112.527 60.4628 112.736 60.1228C112.945 59.7975 113.244 59.5314 113.647 59.354C114.035 59.1766 114.513 59.0879 115.036 59.0879C115.857 59.0879 116.529 59.2801 117.007 59.6793C117.5 60.0784 117.769 60.5811 117.858 61.202H116.693C116.634 60.8768 116.454 60.5811 116.186 60.3298C115.902 60.0784 115.529 59.9454 115.051 59.9454C114.618 59.9454 114.259 60.0637 114.005 60.2854C113.737 60.5072 113.617 60.8324 113.617 61.2316C113.617 61.5569 113.707 61.823 113.871 62.0152C114.05 62.2222 114.259 62.37 114.513 62.4883C114.767 62.6065 115.125 62.7248 115.558 62.8727C116.096 63.0501 116.529 63.2127 116.873 63.3753C117.201 63.538 117.485 63.7745 117.709 64.085C117.933 64.3954 118.052 64.8242 118.052 65.3564C118.022 65.7408 117.933 66.1104 117.739 66.4505Z" fill="#FF5196"/>
<path d="M127.64 59.1768V60.049H125.265V67.5151H124.16V60.049H121.786V59.1768H127.64Z" fill="#FF5196"/>
<path d="M132.718 59.1768V64.1738C132.718 64.987 132.898 65.5931 133.271 65.9923C133.644 66.3767 134.137 66.5837 134.794 66.5837C135.436 66.5837 135.929 66.3915 136.288 65.9923C136.646 65.5931 136.825 65.0018 136.825 64.1886V59.1915H137.915V64.1886C137.915 65.327 137.632 66.1845 137.064 66.7463C136.497 67.3229 135.735 67.6038 134.779 67.6038C133.838 67.6038 133.077 67.3229 132.509 66.7463C131.942 66.1697 131.658 65.327 131.658 64.1886V59.1915H132.718V59.1768Z" fill="#FF5196"/>
<path d="M149.16 65.5488C148.816 66.1697 148.308 66.6576 147.651 66.9976C146.979 67.3377 146.188 67.5151 145.262 67.5151H142.589V59.1768H145.262C146.188 59.1768 146.994 59.3394 147.651 59.6794C148.308 60.0195 148.816 60.4926 149.16 61.1283C149.503 61.764 149.667 62.4884 149.667 63.3459C149.667 64.1886 149.503 64.9278 149.16 65.5488ZM147.696 65.7114C148.279 65.1496 148.562 64.366 148.562 63.3459C148.562 62.3258 148.279 61.5422 147.696 60.9804C147.114 60.4186 146.277 60.1377 145.172 60.1377H143.664V66.5541H145.172C146.263 66.5541 147.114 66.2732 147.696 65.7114Z" fill="#FF5196"/>
<path d="M155.222 59.1768V67.5151H154.132V59.1768H155.222Z" fill="#FF5196"/>
<path d="M165.915 59.6203C166.542 59.9899 167.035 60.4925 167.393 61.143C167.752 61.7935 167.931 62.5328 167.931 63.3459C167.931 64.159 167.752 64.8982 167.393 65.5488C167.035 66.1993 166.542 66.7019 165.915 67.0715C165.288 67.4411 164.586 67.6186 163.809 67.6186C163.033 67.6186 162.316 67.4411 161.689 67.0715C161.061 66.7019 160.554 66.1993 160.195 65.5488C159.837 64.8982 159.658 64.159 159.658 63.3459C159.658 62.5328 159.837 61.7935 160.195 61.143C160.554 60.4925 161.047 59.9899 161.689 59.6203C162.331 59.2507 163.033 59.0732 163.809 59.0732C164.586 59.0732 165.288 59.2507 165.915 59.6203ZM162.241 60.4777C161.778 60.7439 161.42 61.1135 161.166 61.6161C160.912 62.104 160.778 62.6806 160.778 63.3459C160.778 63.9964 160.912 64.573 161.166 65.0757C161.42 65.5783 161.778 65.9479 162.241 66.214C162.704 66.4802 163.212 66.6132 163.794 66.6132C164.362 66.6132 164.884 66.4802 165.347 66.214C165.81 65.9479 166.169 65.5635 166.423 65.0757C166.676 64.5878 166.811 64.0112 166.811 63.3607C166.811 62.6954 166.676 62.1188 166.423 61.6309C166.169 61.143 165.81 60.7586 165.347 60.4925C164.884 60.2264 164.377 60.0934 163.794 60.0934C163.227 60.0786 162.704 60.2116 162.241 60.4777Z" fill="#FF5196"/>
</svg>
