<svg width="213" height="86" viewBox="0 0 213 86" fill="none" xmlns="http://www.w3.org/2000/svg">
<path d="M66.6149 54.3145C65.4395 54.3145 64.264 54.2733 63.0885 54.1908C61.9337 54.1289 60.7273 53.964 59.4693 53.6959V32.9086C60.4592 32.723 61.5419 32.5889 62.7173 32.5064C63.8928 32.4033 64.9858 32.3518 65.9963 32.3518C67.3573 32.3518 68.605 32.4549 69.7392 32.6611C70.8941 32.8467 71.8839 33.1767 72.7088 33.651C73.5337 34.1253 74.173 34.7543 74.6267 35.5379C75.101 36.3009 75.3382 37.2496 75.3382 38.3838C75.3382 40.0954 74.5133 41.4462 72.8635 42.4361C74.2246 42.9516 75.1526 43.6528 75.6475 44.5396C76.1425 45.4263 76.3899 46.4265 76.3899 47.5401C76.3899 49.7879 75.565 51.479 73.9152 52.6132C72.2861 53.7474 69.8526 54.3145 66.6149 54.3145ZM64.1712 44.6942V50.2313C64.5218 50.2726 64.9033 50.3035 65.3157 50.3241C65.7282 50.3447 66.1819 50.355 66.6768 50.355C68.1204 50.355 69.2855 50.1488 70.1723 49.7364C71.0591 49.3239 71.5024 48.5609 71.5024 47.4473C71.5024 46.4574 71.1312 45.7563 70.3888 45.3438C69.6464 44.9108 68.5844 44.6942 67.2027 44.6942H64.1712ZM64.1712 41.0131H66.5221C68.0069 41.0131 69.069 40.8275 69.7083 40.4563C70.3476 40.0645 70.6672 39.4458 70.6672 38.6003C70.6672 37.7342 70.3373 37.1258 69.6774 36.7752C69.0174 36.4247 68.0482 36.2494 66.7696 36.2494C66.3572 36.2494 65.9138 36.2597 65.4395 36.2803C64.9652 36.2803 64.5424 36.3009 64.1712 36.3422V41.0131ZM84.5525 54.0361H79.9434V37.7651H84.5525V54.0361ZM84.9856 33.0632C84.9856 33.9087 84.7072 34.579 84.1504 35.0739C83.6142 35.5482 82.9749 35.7854 82.2325 35.7854C81.4901 35.7854 80.8405 35.5482 80.2837 35.0739C79.7475 34.579 79.4794 33.9087 79.4794 33.0632C79.4794 32.2177 79.7475 31.5578 80.2837 31.0835C80.8405 30.5886 81.4901 30.3411 82.2325 30.3411C82.9749 30.3411 83.6142 30.5886 84.1504 31.0835C84.7072 31.5578 84.9856 32.2177 84.9856 33.0632ZM88.7304 33.7128L93.3395 32.9704V37.7651H98.8766V41.6009H93.3395V47.3236C93.3395 48.2928 93.5045 49.0662 93.8345 49.6436C94.1851 50.221 94.8759 50.5097 95.907 50.5097C96.402 50.5097 96.9072 50.4685 97.4228 50.386C97.9589 50.2829 98.4436 50.1488 98.8766 49.9838L99.5262 53.5721C98.9694 53.799 98.3508 53.9949 97.6702 54.1599C96.9897 54.3248 96.1545 54.4073 95.1646 54.4073C93.9067 54.4073 92.8652 54.2424 92.0403 53.9124C91.2154 53.5618 90.5555 53.0875 90.0606 52.4895C89.5657 51.8708 89.2151 51.1284 89.0089 50.2622C88.8232 49.3961 88.7304 48.4372 88.7304 47.3854V33.7128ZM102.475 33.7128L107.084 32.9704V37.7651H112.621V41.6009H107.084V47.3236C107.084 48.2928 107.249 49.0662 107.579 49.6436C107.93 50.221 108.621 50.5097 109.652 50.5097C110.147 50.5097 110.652 50.4685 111.168 50.386C111.704 50.2829 112.188 50.1488 112.621 49.9838L113.271 53.5721C112.714 53.799 112.096 53.9949 111.415 54.1599C110.735 54.3248 109.899 54.4073 108.909 54.4073C107.652 54.4073 106.61 54.2424 105.785 53.9124C104.96 53.5618 104.3 53.0875 103.805 52.4895C103.311 51.8708 102.96 51.1284 102.754 50.2622C102.568 49.3961 102.475 48.4372 102.475 47.3854V33.7128ZM130.99 45.8697C130.99 47.1483 130.804 48.3237 130.433 49.3961C130.062 50.4478 129.526 51.3552 128.825 52.1183C128.123 52.8607 127.278 53.4381 126.288 53.8505C125.319 54.263 124.226 54.4692 123.009 54.4692C121.813 54.4692 120.72 54.263 119.73 53.8505C118.761 53.4381 117.926 52.8607 117.225 52.1183C116.523 51.3552 115.977 50.4478 115.585 49.3961C115.193 48.3237 114.997 47.1483 114.997 45.8697C114.997 44.5911 115.193 43.4259 115.585 42.3742C115.998 41.3225 116.554 40.4254 117.255 39.683C117.977 38.9406 118.823 38.3632 119.792 37.9507C120.782 37.5383 121.854 37.3321 123.009 37.3321C124.185 37.3321 125.257 37.5383 126.226 37.9507C127.216 38.3632 128.062 38.9406 128.763 39.683C129.464 40.4254 130.01 41.3225 130.402 42.3742C130.794 43.4259 130.99 44.5911 130.99 45.8697ZM126.288 45.8697C126.288 44.4468 125.999 43.3331 125.422 42.5289C124.865 41.704 124.061 41.2915 123.009 41.2915C121.957 41.2915 121.143 41.704 120.565 42.5289C119.988 43.3331 119.699 44.4468 119.699 45.8697C119.699 47.2926 119.988 48.4269 120.565 49.2724C121.143 50.0973 121.957 50.5097 123.009 50.5097C124.061 50.5097 124.865 50.0973 125.422 49.2724C125.999 48.4269 126.288 47.2926 126.288 45.8697ZM144.366 41.8483C143.954 41.7452 143.469 41.6421 142.912 41.539C142.356 41.4153 141.758 41.3534 141.118 41.3534C140.83 41.3534 140.479 41.3843 140.067 41.4462C139.675 41.4874 139.376 41.539 139.169 41.6009V54.0361H134.56V38.6313C135.385 38.3425 136.354 38.0745 137.468 37.827C138.602 37.5589 139.86 37.4249 141.242 37.4249C141.489 37.4249 141.788 37.4455 142.139 37.4867C142.49 37.5073 142.84 37.5486 143.191 37.6105C143.541 37.6517 143.892 37.7136 144.243 37.7961C144.593 37.8579 144.892 37.9404 145.14 38.0435L144.366 41.8483ZM146.535 46.0244C146.535 44.5808 146.752 43.3228 147.185 42.2505C147.638 41.1575 148.226 40.2501 148.948 39.5283C149.67 38.8065 150.494 38.2601 151.422 37.8889C152.371 37.5177 153.34 37.3321 154.33 37.3321C156.64 37.3321 158.465 38.0435 159.805 39.4665C161.146 40.8688 161.816 42.9413 161.816 45.6841C161.816 45.9522 161.806 46.2512 161.785 46.5812C161.765 46.8905 161.744 47.1689 161.723 47.4164H151.268C151.371 48.365 151.814 49.1177 152.598 49.6745C153.382 50.2313 154.433 50.5097 155.753 50.5097C156.599 50.5097 157.424 50.4375 158.228 50.2932C159.053 50.1282 159.723 49.9323 160.239 49.7054L160.857 53.4484C160.61 53.5721 160.28 53.6959 159.867 53.8196C159.455 53.9433 158.991 54.0464 158.475 54.1289C157.98 54.232 157.444 54.3145 156.867 54.3764C156.289 54.4383 155.712 54.4692 155.134 54.4692C153.67 54.4692 152.392 54.2527 151.299 53.8196C150.226 53.3865 149.329 52.7988 148.608 52.0564C147.906 51.2934 147.38 50.3963 147.03 49.3652C146.7 48.3341 146.535 47.2205 146.535 46.0244ZM157.362 44.2612C157.341 43.8693 157.269 43.4878 157.145 43.1166C157.042 42.7454 156.867 42.4155 156.619 42.1267C156.392 41.838 156.093 41.6009 155.722 41.4153C155.372 41.2297 154.928 41.1369 154.392 41.1369C153.877 41.1369 153.433 41.2297 153.062 41.4153C152.691 41.5802 152.381 41.8071 152.134 42.0958C151.886 42.3845 151.691 42.7248 151.546 43.1166C151.422 43.4878 151.33 43.8693 151.268 44.2612H157.362ZM165.373 38.3219C166.157 38.0951 167.167 37.8889 168.404 37.7033C169.642 37.497 170.941 37.3939 172.302 37.3939C173.684 37.3939 174.828 37.5795 175.736 37.9507C176.664 38.3013 177.396 38.8065 177.932 39.4665C178.468 40.1264 178.85 40.91 179.077 41.8174C179.303 42.7248 179.417 43.7353 179.417 44.8489V54.0361H174.808V45.4057C174.808 43.9209 174.612 42.8691 174.22 42.2505C173.828 41.6318 173.096 41.3225 172.024 41.3225C171.694 41.3225 171.343 41.3431 170.972 41.3843C170.601 41.405 170.271 41.4359 169.982 41.4771V54.0361H165.373V38.3219ZM183.434 33.7128L188.043 32.9704V37.7651H193.58V41.6009H188.043V47.3236C188.043 48.2928 188.208 49.0662 188.538 49.6436C188.889 50.221 189.579 50.5097 190.611 50.5097C191.106 50.5097 191.611 50.4685 192.126 50.386C192.663 50.2829 193.147 50.1488 193.58 49.9838L194.23 53.5721C193.673 53.799 193.054 53.9949 192.374 54.1599C191.693 54.3248 190.858 54.4073 189.868 54.4073C188.61 54.4073 187.569 54.2424 186.744 53.9124C185.919 53.5618 185.259 53.0875 184.764 52.4895C184.269 51.8708 183.919 51.1284 183.712 50.2622C183.527 49.3961 183.434 48.4372 183.434 47.3854V33.7128Z" fill="#263238"/>
<rect x="15.75" y="26.4736" width="10.3112" height="10.3112" fill="#3EBA59"/>
<rect x="15.75" y="36.7852" width="10.3112" height="11.4568" fill="#83EBFF"/>
<rect x="15.75" y="48.2412" width="10.3112" height="10.3112" fill="#20C1E1"/>
<rect x="26.061" y="26.4736" width="11.4568" height="10.3112" fill="#83EBFF"/>
<rect x="26.061" y="48.2412" width="11.4568" height="10.3112" fill="#83EBFF"/>
<rect x="37.5181" y="26.4736" width="10.3112" height="10.3112" fill="#20C1E1"/>
<rect x="37.5181" y="36.7852" width="10.3112" height="11.4568" fill="#83EBFF"/>
<rect x="37.5181" y="48.2412" width="10.3112" height="10.3112" fill="#3EBA59"/>
<rect x="21.4785" y="32.2021" width="20.6223" height="20.6223" fill="white"/>
</svg>
