<svg width="214" height="86" viewBox="0 0 214 86" fill="none" xmlns="http://www.w3.org/2000/svg">
<path d="M193.333 23.5945C190.391 22.3537 187.396 21.3871 184.361 20.6295C181.34 19.8328 178.279 19.2711 175.205 18.8793C173.675 18.6442 172.118 18.5919 170.587 18.4091C169.044 18.3699 167.513 18.2131 165.97 18.2785C165.204 18.2915 164.426 18.2915 163.661 18.2785C162.896 18.2785 162.117 18.3568 161.352 18.3829C160.587 18.4352 159.808 18.4483 159.043 18.5266L156.747 18.8009C153.673 19.0491 150.692 19.676 147.71 20.4467C144.689 21.1651 141.826 22.1839 138.778 23.2027C135.651 24.2345 132.26 24.8615 128.856 24.3913C127.181 24.117 125.492 23.5292 124.159 22.4843C122.8 21.4524 121.877 20.0418 121.31 18.5658C122.246 19.8589 123.407 20.9169 124.74 21.57C126.072 22.2231 127.537 22.4973 129.001 22.4843C131.957 22.4843 134.886 21.5439 137.656 20.3683C140.48 19.036 143.58 17.8605 146.668 16.8939C149.781 15.9666 153.027 15.2612 156.272 14.9216C162.75 14.2424 169.374 14.3992 175.72 15.8882C178.899 16.5543 182 17.5731 184.968 18.827C187.95 20.1071 190.826 21.5961 193.333 23.5945Z" fill="#FEBA66"/>
<path d="M19.083 61.9312C22.5529 63.368 26.0888 64.4782 29.6906 65.3272C33.266 66.2154 36.9075 66.8424 40.5489 67.2342C42.3696 67.4824 44.2035 67.5085 46.011 67.6783C47.8449 67.6914 49.6656 67.8351 51.4863 67.7306L54.2174 67.6653C55.1277 67.6522 56.0381 67.5346 56.9484 67.4824C57.8588 67.404 58.7691 67.3648 59.6663 67.2473L62.371 66.8685C65.9992 66.4767 69.5219 65.6407 73.0314 64.635C76.5804 63.6684 79.9316 62.3884 83.4806 61.0561C87.1089 59.7369 91.0405 58.8748 95.025 59.2928C96.9908 59.541 98.9698 60.1679 100.579 61.3173C102.202 62.4537 103.363 64.0733 104.102 65.7713C102.994 64.2562 101.609 63.0153 100.012 62.2447C98.4157 61.4741 96.661 61.1606 94.9194 61.2128C91.3968 61.2651 87.9268 62.4276 84.668 63.8905C81.3565 65.5101 77.7678 66.973 74.1528 68.1877C70.5114 69.3502 66.7512 70.2776 62.9383 70.7478C55.352 71.7405 47.581 71.7535 40.0871 70.2515C36.327 69.5723 32.6591 68.5143 29.1101 67.1689C25.5874 65.7713 22.1439 64.1386 19.083 61.9312Z" fill="#FEBA66"/>
<path d="M28.2716 49.4638C27.0496 49.4638 25.9529 49.2758 24.9816 48.8998C24.0102 48.5238 23.1877 47.9755 22.5141 47.2548C21.8404 46.5185 21.3234 45.6254 20.963 44.5758C20.6027 43.5261 20.4225 42.3197 20.4225 40.9567C20.4225 39.5937 20.6262 38.3873 21.0335 37.3377C21.4565 36.288 22.0284 35.4028 22.7491 34.6821C23.4697 33.9458 24.3158 33.3896 25.2871 33.0136C26.2584 32.6376 27.3003 32.4496 28.4126 32.4496C29.0863 32.4496 29.6973 32.5044 30.2457 32.6141C30.794 32.7081 31.2719 32.8178 31.6792 32.9431C32.0865 33.0684 32.4234 33.2016 32.6897 33.3426C32.956 33.4836 33.144 33.5854 33.2537 33.6481L32.3842 36.0686C32.0082 35.8336 31.4677 35.6143 30.7627 35.4106C30.0733 35.1913 29.3213 35.0816 28.5066 35.0816C27.8016 35.0816 27.1436 35.207 26.5326 35.4576C25.9216 35.6926 25.3889 36.053 24.9346 36.5386C24.4959 37.0243 24.1512 37.6353 23.9006 38.3717C23.6499 39.108 23.5246 39.9619 23.5246 40.9332C23.5246 41.7949 23.6186 42.5861 23.8066 43.3067C24.0102 44.0274 24.3158 44.6541 24.7231 45.1868C25.1304 45.7038 25.6474 46.1111 26.2741 46.4088C26.9008 46.6908 27.6528 46.8318 28.5301 46.8318C29.5798 46.8318 30.4337 46.73 31.0917 46.5263C31.7497 46.307 32.2589 46.1033 32.6192 45.9153L33.4182 48.3358C33.2302 48.4612 32.9717 48.5865 32.6427 48.7118C32.3294 48.8372 31.9534 48.9625 31.5147 49.0878C31.076 49.1975 30.5825 49.2837 30.0342 49.3463C29.4858 49.4247 28.8983 49.4638 28.2716 49.4638ZM45.5471 48.7353C44.9988 48.8763 44.286 49.0173 43.4086 49.1583C42.5313 49.315 41.5678 49.3933 40.5181 49.3933C39.5311 49.3933 38.7007 49.2523 38.027 48.9703C37.369 48.6883 36.8364 48.2966 36.429 47.7953C36.0373 47.294 35.7553 46.6986 35.583 46.0093C35.4107 45.3043 35.3245 44.5366 35.3245 43.7062V36.8206H38.168V43.2597C38.168 44.5758 38.356 45.5158 38.732 46.0798C39.1237 46.6438 39.7974 46.9258 40.7531 46.9258C41.0977 46.9258 41.4581 46.9101 41.8341 46.8788C42.2258 46.8475 42.5156 46.8083 42.7036 46.7613V36.8206H45.5471V48.7353ZM56.1695 39.3822C55.9345 39.3039 55.6055 39.2255 55.1825 39.1472C54.7751 39.0532 54.2973 39.0062 53.749 39.0062C53.4356 39.0062 53.0988 39.0375 52.7384 39.1002C52.3938 39.1628 52.1509 39.2177 52.0099 39.2647V49.1113H49.1664V37.4082C49.7147 37.2045 50.3962 37.0165 51.2109 36.8441C52.0413 36.6561 52.9578 36.5621 53.9605 36.5621C54.1485 36.5621 54.3678 36.5778 54.6185 36.6091C54.8691 36.6248 55.1198 36.6561 55.3705 36.7031C55.6211 36.7345 55.864 36.7815 56.099 36.8441C56.334 36.8911 56.522 36.9382 56.663 36.9852L56.1695 39.3822ZM65.6477 39.3822C65.4126 39.3039 65.0836 39.2255 64.6606 39.1472C64.2533 39.0532 63.7755 39.0062 63.2271 39.0062C62.9138 39.0062 62.5769 39.0375 62.2166 39.1002C61.8719 39.1628 61.6291 39.2177 61.4881 39.2647V49.1113H58.6445V37.4082C59.1929 37.2045 59.8744 37.0165 60.6891 36.8441C61.5194 36.6561 62.4359 36.5621 63.4386 36.5621C63.6266 36.5621 63.846 36.5778 64.0966 36.6091C64.3473 36.6248 64.598 36.6561 64.8486 36.7031C65.0993 36.7345 65.3421 36.7815 65.5771 36.8441C65.8122 36.8911 66.0002 36.9382 66.1412 36.9852L65.6477 39.3822ZM67.4412 43.0247C67.4412 41.9437 67.5979 40.9959 67.9112 40.1812C68.2402 39.3665 68.6711 38.6928 69.2037 38.1602C69.7364 37.6118 70.3474 37.2045 71.0368 36.9382C71.7261 36.6561 72.4311 36.5151 73.1518 36.5151C74.8438 36.5151 76.1598 37.04 77.0998 38.0897C78.0555 39.1393 78.5334 40.706 78.5334 42.7897C78.5334 42.9464 78.5255 43.1266 78.5099 43.3302C78.5099 43.5182 78.502 43.6906 78.4864 43.8473H70.3787C70.4571 44.8343 70.8018 45.6019 71.4128 46.1503C72.0394 46.683 72.9403 46.9493 74.1153 46.9493C74.8046 46.9493 75.4313 46.8866 75.9953 46.7613C76.575 46.636 77.0293 46.5028 77.3583 46.3618L77.7344 48.6883C77.5777 48.7667 77.3583 48.8528 77.0763 48.9468C76.81 49.0252 76.4967 49.0957 76.1363 49.1583C75.7917 49.2367 75.4157 49.2993 75.0083 49.3463C74.601 49.3933 74.1858 49.4168 73.7628 49.4168C72.6818 49.4168 71.7418 49.2602 70.9428 48.9468C70.1437 48.6178 69.4857 48.1713 68.9687 47.6073C68.4517 47.0276 68.0679 46.354 67.8172 45.5863C67.5665 44.8029 67.4412 43.9491 67.4412 43.0247ZM75.6898 41.7557C75.6898 41.364 75.635 40.9959 75.5253 40.6512C75.4157 40.2909 75.2512 39.9854 75.0318 39.7347C74.8281 39.4684 74.5696 39.2647 74.2563 39.1237C73.9586 38.967 73.5983 38.8887 73.1753 38.8887C72.7366 38.8887 72.3528 38.9748 72.0238 39.1472C71.6948 39.3039 71.4128 39.5154 71.1778 39.7817C70.9584 40.048 70.7861 40.3535 70.6607 40.6982C70.5354 41.0429 70.4492 41.3954 70.4022 41.7557H75.6898ZM81.5482 37.2202C82.0965 37.0635 82.8094 36.9147 83.6867 36.7736C84.5641 36.6326 85.5354 36.5621 86.6008 36.5621C87.6035 36.5621 88.4416 36.7031 89.1153 36.9852C89.789 37.2515 90.3217 37.6353 90.7133 38.1367C91.1207 38.6223 91.4027 39.2177 91.5593 39.9227C91.7317 40.612 91.8178 41.3719 91.8178 42.2022V49.1113H88.9743V42.6487C88.9743 41.9907 88.9273 41.4345 88.8333 40.9802C88.755 40.5102 88.614 40.1342 88.4103 39.8522C88.2223 39.5545 87.956 39.343 87.6113 39.2177C87.2823 39.0767 86.8749 39.0062 86.3893 39.0062C86.0289 39.0062 85.6529 39.0297 85.2613 39.0767C84.8696 39.1237 84.5797 39.1628 84.3917 39.1942V49.1113H81.5482V37.2202ZM94.6135 42.9777C94.6135 42.0691 94.7545 41.223 95.0365 40.4397C95.3185 39.6407 95.718 38.9513 96.235 38.3717C96.7677 37.792 97.41 37.3377 98.162 37.0087C98.914 36.6796 99.76 36.5151 100.7 36.5151C101.859 36.5151 102.956 36.7266 103.99 37.1497L103.379 39.4762C103.05 39.3352 102.674 39.2177 102.251 39.1237C101.844 39.0297 101.405 38.9827 100.935 38.9827C99.8227 38.9827 98.9767 39.3352 98.397 40.0402C97.8174 40.7295 97.5275 41.7087 97.5275 42.9777C97.5275 44.1998 97.8017 45.1711 98.35 45.8918C98.8984 46.5968 99.8227 46.9493 101.123 46.9493C101.609 46.9493 102.087 46.9023 102.557 46.8083C103.027 46.7143 103.434 46.5968 103.779 46.4558L104.178 48.8058C103.865 48.9625 103.387 49.1035 102.745 49.2288C102.118 49.3542 101.468 49.4168 100.794 49.4168C99.7444 49.4168 98.8279 49.2602 98.0445 48.9468C97.2768 48.6178 96.6345 48.1713 96.1175 47.6073C95.6162 47.0276 95.2402 46.3461 94.9895 45.5628C94.7388 44.7638 94.6135 43.9021 94.6135 42.9777ZM116.621 36.8206C115.352 41.4894 113.879 45.7194 112.203 49.5108C111.889 50.2158 111.568 50.819 111.239 51.3204C110.91 51.8217 110.542 52.2369 110.135 52.5659C109.727 52.8949 109.273 53.1299 108.772 53.2709C108.27 53.4276 107.691 53.5059 107.033 53.5059C106.594 53.5059 106.155 53.4589 105.717 53.3649C105.294 53.2709 104.972 53.1691 104.753 53.0594L105.27 50.7799C105.834 50.9992 106.39 51.1089 106.939 51.1089C107.675 51.1089 108.247 50.9287 108.654 50.5683C109.077 50.2237 109.445 49.6832 109.759 48.9468C108.866 47.2235 108.004 45.3434 107.174 43.3067C106.359 41.27 105.63 39.108 104.988 36.8206H108.02C108.176 37.4787 108.364 38.1915 108.584 38.9592C108.819 39.7269 109.069 40.5102 109.336 41.3092C109.602 42.0926 109.884 42.8759 110.182 43.6592C110.479 44.4426 110.777 45.1711 111.075 45.8448C111.576 44.4504 112.046 42.9699 112.485 41.4032C112.923 39.8209 113.323 38.2933 113.683 36.8206H116.621ZM134.832 34.6586C135.083 35.5046 135.349 36.3898 135.631 37.3142C135.913 38.2228 136.203 39.1393 136.501 40.0637C136.814 40.9724 137.12 41.8732 137.418 42.7662C137.731 43.6436 138.029 44.4739 138.311 45.2573C138.546 44.4113 138.773 43.4947 138.992 42.5077C139.211 41.5051 139.431 40.471 139.65 39.4057C139.869 38.3247 140.081 37.228 140.285 36.1156C140.504 35.0033 140.708 33.9066 140.896 32.8256H143.951C143.402 35.771 142.791 38.6067 142.118 41.3327C141.444 44.0431 140.692 46.636 139.862 49.1113H137.042C135.819 45.9466 134.637 42.4921 133.493 38.7477C132.913 40.6434 132.326 42.4451 131.73 44.1528C131.135 45.8604 130.54 47.5133 129.944 49.1113H127.124C126.278 46.636 125.519 44.0431 124.845 41.3327C124.187 38.6067 123.584 35.771 123.035 32.8256H126.208C126.396 33.8909 126.592 34.9798 126.795 36.0921C127.015 37.2045 127.234 38.3012 127.453 39.3822C127.688 40.4475 127.923 41.4816 128.158 42.4842C128.393 43.4869 128.628 44.4113 128.863 45.2573C129.161 44.4583 129.459 43.6201 129.756 42.7427C130.07 41.8497 130.375 40.9489 130.673 40.0402C130.971 39.1158 131.253 38.1993 131.519 37.2907C131.801 36.382 132.059 35.5046 132.294 34.6586H134.832ZM150.016 47.1138C150.894 47.1138 151.559 47.0668 152.014 46.9728V43.8238C151.857 43.7768 151.63 43.7297 151.332 43.6827C151.035 43.6357 150.706 43.6122 150.345 43.6122C150.032 43.6122 149.711 43.6357 149.382 43.6827C149.068 43.7297 148.779 43.8159 148.512 43.9413C148.262 44.0666 148.058 44.2468 147.901 44.4818C147.745 44.7011 147.666 44.9831 147.666 45.3278C147.666 46.0014 147.878 46.4715 148.301 46.7378C148.724 46.9885 149.296 47.1138 150.016 47.1138ZM149.781 36.5151C150.721 36.5151 151.512 36.6326 152.155 36.8676C152.797 37.1027 153.306 37.4317 153.682 37.8547C154.074 38.2777 154.348 38.7947 154.505 39.4057C154.677 40.001 154.763 40.659 154.763 41.3797V48.8293C154.325 48.9233 153.659 49.033 152.766 49.1583C151.888 49.2993 150.894 49.3698 149.781 49.3698C149.045 49.3698 148.371 49.2993 147.76 49.1583C147.149 49.0173 146.624 48.7902 146.186 48.4768C145.763 48.1635 145.426 47.7561 145.175 47.2548C144.94 46.7535 144.823 46.1346 144.823 45.3983C144.823 44.6933 144.956 44.0979 145.222 43.6122C145.504 43.1266 145.88 42.7349 146.35 42.4372C146.82 42.1239 147.361 41.9046 147.972 41.7792C148.598 41.6382 149.249 41.5677 149.922 41.5677C150.236 41.5677 150.565 41.5912 150.909 41.6382C151.254 41.6696 151.622 41.7322 152.014 41.8262V41.3562C152.014 41.0272 151.975 40.7139 151.896 40.4162C151.818 40.1185 151.677 39.86 151.473 39.6407C151.285 39.4057 151.027 39.2255 150.698 39.1002C150.384 38.9748 149.985 38.9122 149.499 38.9122C148.841 38.9122 148.238 38.9592 147.69 39.0532C147.141 39.1472 146.695 39.2569 146.35 39.3822L145.998 37.0792C146.358 36.9538 146.883 36.8285 147.572 36.7031C148.262 36.5778 148.998 36.5151 149.781 36.5151ZM161.096 49.1113C160.313 47.4976 159.506 45.6489 158.676 43.5652C157.861 41.4659 157.117 39.2177 156.443 36.8206H159.475C159.647 37.51 159.843 38.2542 160.062 39.0532C160.297 39.8365 160.54 40.6277 160.791 41.4267C161.057 42.2101 161.323 42.9777 161.59 43.7297C161.872 44.4661 162.13 45.1319 162.365 45.7273C162.6 45.1319 162.851 44.4661 163.117 43.7297C163.384 42.9777 163.642 42.2101 163.893 41.4267C164.159 40.6277 164.41 39.8365 164.645 39.0532C164.88 38.2542 165.084 37.51 165.256 36.8206H168.193C167.52 39.2177 166.768 41.4659 165.937 43.5652C165.123 45.6489 164.324 47.4976 163.54 49.1113H161.096ZM169.36 43.0247C169.36 41.9437 169.517 40.9959 169.83 40.1812C170.159 39.3665 170.59 38.6928 171.123 38.1602C171.655 37.6118 172.266 37.2045 172.956 36.9382C173.645 36.6561 174.35 36.5151 175.071 36.5151C176.763 36.5151 178.079 37.04 179.019 38.0897C179.974 39.1393 180.452 40.706 180.452 42.7897C180.452 42.9464 180.444 43.1266 180.429 43.3302C180.429 43.5182 180.421 43.6906 180.405 43.8473H172.298C172.376 44.8343 172.721 45.6019 173.332 46.1503C173.958 46.683 174.859 46.9493 176.034 46.9493C176.724 46.9493 177.35 46.8866 177.914 46.7613C178.494 46.636 178.948 46.5028 179.277 46.3618L179.653 48.6883C179.497 48.7667 179.277 48.8528 178.995 48.9468C178.729 49.0252 178.416 49.0957 178.055 49.1583C177.711 49.2367 177.335 49.2993 176.927 49.3463C176.52 49.3933 176.105 49.4168 175.682 49.4168C174.601 49.4168 173.661 49.2602 172.862 48.9468C172.063 48.6178 171.405 48.1713 170.888 47.6073C170.371 47.0276 169.987 46.354 169.736 45.5863C169.485 44.8029 169.36 43.9491 169.36 43.0247ZM177.609 41.7557C177.609 41.364 177.554 40.9959 177.444 40.6512C177.335 40.2909 177.17 39.9854 176.951 39.7347C176.747 39.4684 176.489 39.2647 176.175 39.1237C175.878 38.967 175.517 38.8887 175.094 38.8887C174.656 38.8887 174.272 38.9748 173.943 39.1472C173.614 39.3039 173.332 39.5154 173.097 39.7817C172.877 40.048 172.705 40.3535 172.58 40.6982C172.454 41.0429 172.368 41.3954 172.321 41.7557H177.609Z" fill="#263238"/>
</svg>
